G04 EAGLE Gerber X2 export*
G75*
%MOIN*%
%FSLAX34Y34*%
%LPD*%
%AMOC8*
5,1,8,0,0,1.08239X$1,22.5*%
G01*
%ADD10C,0.000000*%
%ADD11C,0.007000*%
%ADD12C,0.003000*%


D10*
X0Y0D02*
X18000Y0D01*
X18000Y10000D01*
X0Y10000D01*
X0Y0D01*
D11*
X11938Y3750D02*
X11675Y4540D01*
X11412Y3750D01*
X11478Y3948D02*
X11873Y3948D01*
X11209Y3750D02*
X10945Y4540D01*
X10682Y3750D01*
X10748Y3948D02*
X11143Y3948D01*
X9972Y3750D02*
X9972Y4540D01*
X10060Y3750D02*
X9884Y3750D01*
X9884Y4540D02*
X10060Y4540D01*
X9588Y4277D02*
X9588Y3750D01*
X9588Y4277D02*
X9369Y4277D01*
X9348Y4275D01*
X9328Y4271D01*
X9309Y4263D01*
X9291Y4252D01*
X9276Y4238D01*
X9262Y4223D01*
X9251Y4205D01*
X9243Y4186D01*
X9239Y4166D01*
X9237Y4145D01*
X9237Y3750D01*
X8934Y3618D02*
X8934Y4277D01*
X8934Y3618D02*
X8936Y3597D01*
X8940Y3577D01*
X8948Y3558D01*
X8959Y3540D01*
X8973Y3525D01*
X8988Y3511D01*
X9006Y3500D01*
X9025Y3492D01*
X9045Y3488D01*
X9066Y3486D01*
X9066Y3487D02*
X9110Y3487D01*
X8956Y4496D02*
X8956Y4540D01*
X8912Y4540D01*
X8912Y4496D01*
X8956Y4496D01*
X8508Y3750D02*
X8288Y3750D01*
X8508Y3750D02*
X8529Y3752D01*
X8549Y3756D01*
X8568Y3764D01*
X8586Y3775D01*
X8601Y3789D01*
X8615Y3804D01*
X8626Y3822D01*
X8634Y3841D01*
X8638Y3861D01*
X8640Y3882D01*
X8639Y3882D02*
X8639Y4101D01*
X8640Y4101D02*
X8638Y4126D01*
X8633Y4151D01*
X8624Y4174D01*
X8612Y4196D01*
X8597Y4216D01*
X8579Y4234D01*
X8559Y4249D01*
X8537Y4261D01*
X8514Y4270D01*
X8489Y4275D01*
X8464Y4277D01*
X8439Y4275D01*
X8414Y4270D01*
X8391Y4261D01*
X8369Y4249D01*
X8349Y4234D01*
X8331Y4216D01*
X8316Y4196D01*
X8304Y4174D01*
X8295Y4151D01*
X8290Y4126D01*
X8288Y4101D01*
X8288Y4013D01*
X8639Y4013D01*
X7874Y3750D02*
X7699Y3750D01*
X7874Y3750D02*
X7895Y3752D01*
X7915Y3756D01*
X7934Y3764D01*
X7952Y3775D01*
X7967Y3789D01*
X7981Y3804D01*
X7992Y3822D01*
X8000Y3841D01*
X8004Y3861D01*
X8006Y3882D01*
X8006Y4145D01*
X8004Y4166D01*
X8000Y4186D01*
X7992Y4205D01*
X7981Y4223D01*
X7967Y4238D01*
X7952Y4252D01*
X7934Y4263D01*
X7915Y4271D01*
X7895Y4275D01*
X7874Y4277D01*
X7699Y4277D01*
X7505Y4277D02*
X7241Y4277D01*
X7417Y4540D02*
X7417Y3882D01*
X7415Y3861D01*
X7411Y3841D01*
X7403Y3822D01*
X7392Y3804D01*
X7378Y3789D01*
X7363Y3775D01*
X7345Y3764D01*
X7326Y3756D01*
X7306Y3752D01*
X7285Y3750D01*
X7241Y3750D01*
X6985Y3926D02*
X6985Y4101D01*
X6983Y4126D01*
X6978Y4151D01*
X6969Y4174D01*
X6957Y4196D01*
X6942Y4216D01*
X6924Y4234D01*
X6904Y4249D01*
X6882Y4261D01*
X6859Y4270D01*
X6834Y4275D01*
X6809Y4277D01*
X6784Y4275D01*
X6759Y4270D01*
X6736Y4261D01*
X6714Y4249D01*
X6694Y4234D01*
X6676Y4216D01*
X6661Y4196D01*
X6649Y4174D01*
X6640Y4151D01*
X6635Y4126D01*
X6633Y4101D01*
X6634Y4101D02*
X6634Y3926D01*
X6633Y3926D02*
X6635Y3901D01*
X6640Y3876D01*
X6649Y3853D01*
X6661Y3831D01*
X6676Y3811D01*
X6694Y3793D01*
X6714Y3778D01*
X6736Y3766D01*
X6759Y3757D01*
X6784Y3752D01*
X6809Y3750D01*
X6834Y3752D01*
X6859Y3757D01*
X6882Y3766D01*
X6904Y3778D01*
X6924Y3793D01*
X6942Y3811D01*
X6957Y3831D01*
X6969Y3853D01*
X6978Y3876D01*
X6983Y3901D01*
X6985Y3926D01*
X6325Y3750D02*
X6325Y4277D01*
X6062Y4277D01*
X6062Y4189D01*
X12527Y3250D02*
X12527Y2460D01*
X12527Y3250D02*
X12307Y3250D01*
X12278Y3248D01*
X12250Y3243D01*
X12223Y3233D01*
X12198Y3221D01*
X12174Y3205D01*
X12152Y3186D01*
X12133Y3164D01*
X12117Y3141D01*
X12105Y3115D01*
X12095Y3088D01*
X12090Y3060D01*
X12088Y3031D01*
X12090Y3002D01*
X12095Y2974D01*
X12105Y2947D01*
X12117Y2922D01*
X12133Y2898D01*
X12152Y2876D01*
X12174Y2857D01*
X12198Y2841D01*
X12223Y2829D01*
X12250Y2819D01*
X12278Y2814D01*
X12307Y2812D01*
X12307Y2811D02*
X12527Y2811D01*
X12263Y2811D02*
X12088Y2460D01*
X11800Y3074D02*
X11580Y3250D01*
X11580Y2460D01*
X11361Y2460D02*
X11800Y2460D01*
X10899Y2460D02*
X10899Y3250D01*
X10680Y3250D02*
X11119Y3250D01*
X10218Y3250D02*
X10481Y2460D01*
X9955Y2460D02*
X10218Y3250D01*
X10021Y2658D02*
X10416Y2658D01*
X9314Y2767D02*
X8787Y2767D01*
X7861Y3251D02*
X7835Y3249D01*
X7810Y3244D01*
X7785Y3236D01*
X7762Y3224D01*
X7740Y3210D01*
X7721Y3193D01*
X7704Y3174D01*
X7690Y3152D01*
X7678Y3129D01*
X7670Y3104D01*
X7665Y3079D01*
X7663Y3053D01*
X7861Y3250D02*
X7890Y3248D01*
X7919Y3243D01*
X7946Y3235D01*
X7973Y3224D01*
X7998Y3210D01*
X8022Y3193D01*
X8043Y3173D01*
X8062Y3151D01*
X8079Y3127D01*
X8092Y3101D01*
X8103Y3074D01*
X7729Y2899D02*
X7709Y2921D01*
X7693Y2944D01*
X7680Y2969D01*
X7671Y2996D01*
X7665Y3024D01*
X7663Y3053D01*
X7729Y2899D02*
X8102Y2460D01*
X7663Y2460D01*
X7372Y2855D02*
X7370Y2904D01*
X7365Y2953D01*
X7355Y3001D01*
X7342Y3049D01*
X7326Y3095D01*
X7306Y3140D01*
X7306Y3141D02*
X7298Y3161D01*
X7286Y3180D01*
X7272Y3198D01*
X7256Y3213D01*
X7238Y3226D01*
X7218Y3236D01*
X7197Y3244D01*
X7175Y3248D01*
X7153Y3250D01*
X7131Y3248D01*
X7109Y3244D01*
X7088Y3236D01*
X7068Y3226D01*
X7050Y3213D01*
X7034Y3198D01*
X7020Y3180D01*
X7008Y3161D01*
X7000Y3141D01*
X6999Y3140D02*
X6979Y3095D01*
X6963Y3049D01*
X6950Y3001D01*
X6940Y2953D01*
X6935Y2904D01*
X6933Y2855D01*
X7372Y2855D02*
X7370Y2806D01*
X7365Y2757D01*
X7355Y2709D01*
X7342Y2661D01*
X7326Y2615D01*
X7306Y2570D01*
X7306Y2569D02*
X7298Y2549D01*
X7286Y2530D01*
X7272Y2512D01*
X7256Y2497D01*
X7238Y2484D01*
X7218Y2474D01*
X7197Y2466D01*
X7175Y2462D01*
X7153Y2460D01*
X6999Y2570D02*
X6979Y2615D01*
X6963Y2661D01*
X6950Y2709D01*
X6940Y2757D01*
X6935Y2806D01*
X6933Y2855D01*
X7000Y2569D02*
X7008Y2549D01*
X7020Y2530D01*
X7034Y2512D01*
X7050Y2497D01*
X7068Y2484D01*
X7088Y2474D01*
X7109Y2466D01*
X7131Y2462D01*
X7153Y2460D01*
X7328Y2636D02*
X6977Y3074D01*
X6642Y3074D02*
X6423Y3250D01*
X6423Y2460D01*
X6642Y2460D02*
X6203Y2460D01*
X5912Y2679D02*
X5910Y2708D01*
X5905Y2736D01*
X5895Y2763D01*
X5883Y2789D01*
X5867Y2812D01*
X5848Y2834D01*
X5826Y2853D01*
X5803Y2869D01*
X5777Y2881D01*
X5750Y2891D01*
X5722Y2896D01*
X5693Y2898D01*
X5664Y2896D01*
X5636Y2891D01*
X5609Y2881D01*
X5584Y2869D01*
X5560Y2853D01*
X5538Y2834D01*
X5519Y2812D01*
X5503Y2789D01*
X5491Y2763D01*
X5481Y2736D01*
X5476Y2708D01*
X5474Y2679D01*
X5476Y2650D01*
X5481Y2622D01*
X5491Y2595D01*
X5503Y2570D01*
X5519Y2546D01*
X5538Y2524D01*
X5560Y2505D01*
X5584Y2489D01*
X5609Y2477D01*
X5636Y2467D01*
X5664Y2462D01*
X5693Y2460D01*
X5722Y2462D01*
X5750Y2467D01*
X5777Y2477D01*
X5802Y2489D01*
X5826Y2505D01*
X5848Y2524D01*
X5867Y2546D01*
X5883Y2569D01*
X5895Y2595D01*
X5905Y2622D01*
X5910Y2650D01*
X5912Y2679D01*
X5869Y3074D02*
X5867Y3099D01*
X5862Y3124D01*
X5853Y3147D01*
X5841Y3169D01*
X5826Y3189D01*
X5808Y3207D01*
X5788Y3222D01*
X5766Y3234D01*
X5743Y3243D01*
X5718Y3248D01*
X5693Y3250D01*
X5668Y3248D01*
X5643Y3243D01*
X5620Y3234D01*
X5598Y3222D01*
X5578Y3207D01*
X5560Y3189D01*
X5545Y3169D01*
X5533Y3147D01*
X5524Y3124D01*
X5519Y3099D01*
X5517Y3074D01*
X5519Y3049D01*
X5524Y3024D01*
X5533Y3001D01*
X5545Y2979D01*
X5560Y2959D01*
X5578Y2941D01*
X5598Y2926D01*
X5620Y2914D01*
X5643Y2905D01*
X5668Y2900D01*
X5693Y2898D01*
X5718Y2900D01*
X5743Y2905D01*
X5766Y2914D01*
X5788Y2926D01*
X5808Y2941D01*
X5826Y2959D01*
X5841Y2979D01*
X5853Y3001D01*
X5862Y3024D01*
X5867Y3049D01*
X5869Y3074D01*
D10*
X0Y2800D02*
X0Y7200D01*
X18000Y5050D02*
X18000Y9450D01*
D12*
X6046Y6265D02*
X6032Y6267D01*
X6018Y6271D01*
X6006Y6279D01*
X5996Y6289D01*
X5988Y6301D01*
X5984Y6315D01*
X5982Y6329D01*
X6046Y6265D02*
X6067Y6267D01*
X6088Y6272D01*
X6108Y6280D01*
X6126Y6291D01*
X6143Y6305D01*
X6134Y6491D02*
X6132Y6505D01*
X6128Y6519D01*
X6120Y6531D01*
X6110Y6541D01*
X6098Y6549D01*
X6084Y6553D01*
X6070Y6555D01*
X6051Y6553D01*
X6032Y6549D01*
X6014Y6541D01*
X5997Y6531D01*
X6102Y6435D02*
X6113Y6443D01*
X6122Y6453D01*
X6128Y6465D01*
X6133Y6478D01*
X6134Y6491D01*
X6014Y6385D02*
X6003Y6377D01*
X5994Y6367D01*
X5988Y6355D01*
X5983Y6342D01*
X5982Y6329D01*
X6014Y6386D02*
X6102Y6434D01*
X5798Y6329D02*
X5798Y6555D01*
X5798Y6329D02*
X5800Y6315D01*
X5804Y6301D01*
X5812Y6289D01*
X5822Y6279D01*
X5834Y6271D01*
X5848Y6267D01*
X5862Y6265D01*
X5894Y6265D01*
X5662Y6491D02*
X5582Y6555D01*
X5582Y6265D01*
X5662Y6265D02*
X5501Y6265D01*
M02*
