G04 EAGLE Gerber X2 export*
G75*
%MOIN*%
%FSLAX34Y34*%
%LPD*%
%AMOC8*
5,1,8,0,0,1.08239X$1,22.5*%
G01*
%ADD10R,0.200000X0.090000*%
%ADD11R,0.070866X0.062992*%
%ADD12R,0.094488X0.094488*%
%ADD13R,0.062992X0.070866*%
%ADD14R,0.055118X0.055118*%
%ADD15C,0.170000*%
%ADD16R,0.104331X0.287402*%
%ADD17R,0.062992X0.125984*%
%ADD18R,0.088000X0.048000*%
%ADD19R,0.086614X0.141732*%
%ADD20R,0.070984X0.062992*%
%ADD21R,0.055118X0.062992*%
%ADD22R,0.051181X0.035433*%
%ADD23R,0.062992X0.070984*%
%ADD24R,0.070866X0.125984*%
%ADD25R,0.050000X0.025000*%
%ADD26R,0.181102X0.059055*%
%ADD27C,0.032000*%
%ADD28C,0.020000*%
%ADD29C,0.029717*%

G36*
X17781Y161D02*
X17781Y161D01*
X17783Y161D01*
X17788Y162D01*
X17794Y162D01*
X17795Y163D01*
X17796Y163D01*
X17801Y165D01*
X17806Y167D01*
X17807Y168D01*
X17809Y168D01*
X17813Y171D01*
X17818Y174D01*
X17819Y175D01*
X17820Y176D01*
X17823Y180D01*
X17827Y184D01*
X17828Y185D01*
X17829Y186D01*
X17831Y191D01*
X17834Y196D01*
X17835Y197D01*
X17835Y198D01*
X17837Y204D01*
X17838Y209D01*
X17838Y210D01*
X17839Y212D01*
X17839Y220D01*
X17839Y4900D01*
X17839Y4901D01*
X17839Y4903D01*
X17838Y4908D01*
X17838Y4914D01*
X17837Y4915D01*
X17837Y4916D01*
X17835Y4921D01*
X17833Y4926D01*
X17832Y4927D01*
X17832Y4929D01*
X17829Y4933D01*
X17826Y4938D01*
X17825Y4939D01*
X17824Y4940D01*
X17820Y4943D01*
X17816Y4947D01*
X17815Y4948D01*
X17814Y4949D01*
X17809Y4951D01*
X17804Y4954D01*
X17803Y4955D01*
X17802Y4955D01*
X17796Y4957D01*
X17791Y4958D01*
X17790Y4958D01*
X17788Y4959D01*
X17780Y4959D01*
X17109Y4959D01*
X17109Y5450D01*
X17109Y5451D01*
X17109Y5453D01*
X17108Y5458D01*
X17108Y5464D01*
X17107Y5465D01*
X17107Y5466D01*
X17105Y5471D01*
X17103Y5476D01*
X17102Y5477D01*
X17102Y5479D01*
X17099Y5483D01*
X17096Y5488D01*
X17095Y5489D01*
X17094Y5490D01*
X17090Y5493D01*
X17086Y5497D01*
X17085Y5498D01*
X17084Y5499D01*
X17079Y5501D01*
X17074Y5504D01*
X17073Y5505D01*
X17072Y5505D01*
X17066Y5507D01*
X17061Y5508D01*
X17060Y5508D01*
X17058Y5509D01*
X17050Y5509D01*
X16930Y5509D01*
X16929Y5509D01*
X16927Y5509D01*
X16922Y5508D01*
X16916Y5508D01*
X16915Y5507D01*
X16914Y5507D01*
X16909Y5505D01*
X16904Y5503D01*
X16903Y5502D01*
X16901Y5502D01*
X16897Y5499D01*
X16892Y5496D01*
X16891Y5495D01*
X16890Y5494D01*
X16887Y5490D01*
X16883Y5486D01*
X16882Y5485D01*
X16881Y5484D01*
X16879Y5479D01*
X16876Y5474D01*
X16875Y5473D01*
X16875Y5472D01*
X16873Y5466D01*
X16872Y5461D01*
X16872Y5460D01*
X16871Y5458D01*
X16871Y5450D01*
X16871Y4959D01*
X16051Y4959D01*
X16047Y4959D01*
X16043Y4959D01*
X16040Y4958D01*
X16037Y4958D01*
X16034Y4956D01*
X16030Y4955D01*
X16027Y4954D01*
X16025Y4953D01*
X16021Y4951D01*
X16018Y4949D01*
X16016Y4947D01*
X16013Y4946D01*
X16010Y4943D01*
X16007Y4940D01*
X16006Y4938D01*
X16004Y4936D01*
X16002Y4932D01*
X15999Y4929D01*
X15998Y4926D01*
X15997Y4924D01*
X15996Y4920D01*
X15994Y4916D01*
X15994Y4914D01*
X15993Y4911D01*
X15992Y4907D01*
X15992Y4903D01*
X15992Y4900D01*
X15992Y4897D01*
X15992Y4893D01*
X15993Y4889D01*
X15994Y4887D01*
X15994Y4884D01*
X15996Y4880D01*
X15997Y4876D01*
X15998Y4874D01*
X15999Y4871D01*
X16002Y4868D01*
X16004Y4864D01*
X16006Y4861D01*
X16007Y4860D01*
X16008Y4860D01*
X16009Y4858D01*
X16046Y4821D01*
X16179Y4591D01*
X16248Y4333D01*
X16248Y4067D01*
X16179Y3810D01*
X16046Y3580D01*
X15858Y3392D01*
X15628Y3259D01*
X15370Y3190D01*
X15104Y3190D01*
X14847Y3259D01*
X14617Y3392D01*
X14429Y3580D01*
X14296Y3810D01*
X14227Y4067D01*
X14227Y4333D01*
X14296Y4591D01*
X14429Y4821D01*
X14617Y5009D01*
X14847Y5142D01*
X15104Y5211D01*
X15370Y5211D01*
X15628Y5142D01*
X15800Y5042D01*
X15803Y5041D01*
X15806Y5040D01*
X15810Y5039D01*
X15813Y5037D01*
X15816Y5037D01*
X15819Y5036D01*
X15823Y5035D01*
X15826Y5035D01*
X15829Y5035D01*
X15833Y5035D01*
X15836Y5035D01*
X15840Y5035D01*
X15843Y5036D01*
X15846Y5037D01*
X15849Y5038D01*
X15853Y5039D01*
X15856Y5041D01*
X15859Y5042D01*
X15862Y5044D01*
X15865Y5046D01*
X15867Y5048D01*
X15870Y5050D01*
X15872Y5053D01*
X15875Y5055D01*
X15877Y5058D01*
X15879Y5060D01*
X15880Y5063D01*
X15883Y5066D01*
X15884Y5069D01*
X15885Y5072D01*
X15886Y5076D01*
X15887Y5079D01*
X15888Y5082D01*
X15889Y5085D01*
X15889Y5092D01*
X15889Y5093D01*
X15889Y5094D01*
X15889Y5286D01*
X15889Y5287D01*
X15889Y5288D01*
X15888Y5294D01*
X15888Y5299D01*
X15887Y5300D01*
X15887Y5302D01*
X15885Y5307D01*
X15883Y5312D01*
X15882Y5313D01*
X15882Y5314D01*
X15879Y5319D01*
X15876Y5323D01*
X15875Y5324D01*
X15874Y5325D01*
X15870Y5329D01*
X15866Y5333D01*
X15865Y5334D01*
X15864Y5334D01*
X15859Y5337D01*
X15854Y5340D01*
X15853Y5340D01*
X15852Y5341D01*
X15846Y5342D01*
X15841Y5344D01*
X15840Y5344D01*
X15838Y5344D01*
X15830Y5345D01*
X15620Y5345D01*
X15620Y5740D01*
X15620Y5741D01*
X15620Y5743D01*
X15619Y5748D01*
X15619Y5754D01*
X15618Y5755D01*
X15618Y5756D01*
X15616Y5761D01*
X15614Y5766D01*
X15614Y5767D01*
X15613Y5769D01*
X15610Y5773D01*
X15607Y5778D01*
X15606Y5779D01*
X15605Y5780D01*
X15601Y5783D01*
X15597Y5787D01*
X15596Y5788D01*
X15595Y5789D01*
X15590Y5791D01*
X15585Y5794D01*
X15584Y5795D01*
X15583Y5795D01*
X15577Y5797D01*
X15572Y5798D01*
X15571Y5798D01*
X15570Y5799D01*
X15561Y5799D01*
X15500Y5799D01*
X15500Y5801D01*
X15561Y5801D01*
X15562Y5801D01*
X15564Y5801D01*
X15569Y5802D01*
X15575Y5802D01*
X15576Y5803D01*
X15577Y5803D01*
X15582Y5805D01*
X15588Y5807D01*
X15589Y5808D01*
X15590Y5808D01*
X15594Y5811D01*
X15599Y5814D01*
X15600Y5815D01*
X15601Y5816D01*
X15605Y5820D01*
X15608Y5824D01*
X15609Y5825D01*
X15610Y5826D01*
X15613Y5831D01*
X15615Y5836D01*
X15616Y5837D01*
X15616Y5838D01*
X15618Y5844D01*
X15619Y5849D01*
X15619Y5850D01*
X15620Y5852D01*
X15620Y5860D01*
X15620Y6255D01*
X15829Y6255D01*
X15855Y6248D01*
X15878Y6235D01*
X15897Y6216D01*
X15910Y6193D01*
X15917Y6168D01*
X15917Y6120D01*
X15917Y6119D01*
X15917Y6117D01*
X15918Y6112D01*
X15918Y6106D01*
X15919Y6105D01*
X15919Y6104D01*
X15921Y6099D01*
X15923Y6094D01*
X15924Y6093D01*
X15924Y6091D01*
X15928Y6087D01*
X15931Y6082D01*
X15931Y6081D01*
X15932Y6080D01*
X15936Y6077D01*
X15940Y6073D01*
X15942Y6072D01*
X15942Y6071D01*
X15947Y6069D01*
X15952Y6066D01*
X15953Y6065D01*
X15955Y6065D01*
X15960Y6063D01*
X15965Y6062D01*
X15966Y6062D01*
X15968Y6061D01*
X15976Y6061D01*
X16871Y6061D01*
X16871Y5570D01*
X16871Y5569D01*
X16871Y5567D01*
X16872Y5562D01*
X16872Y5556D01*
X16873Y5555D01*
X16873Y5554D01*
X16875Y5549D01*
X16877Y5544D01*
X16878Y5543D01*
X16878Y5541D01*
X16881Y5537D01*
X16884Y5532D01*
X16885Y5531D01*
X16886Y5530D01*
X16890Y5527D01*
X16894Y5523D01*
X16895Y5522D01*
X16896Y5521D01*
X16901Y5519D01*
X16906Y5516D01*
X16907Y5515D01*
X16908Y5515D01*
X16914Y5513D01*
X16919Y5512D01*
X16920Y5512D01*
X16922Y5511D01*
X16930Y5511D01*
X17050Y5511D01*
X17051Y5511D01*
X17053Y5511D01*
X17058Y5512D01*
X17064Y5512D01*
X17065Y5513D01*
X17066Y5513D01*
X17071Y5515D01*
X17076Y5517D01*
X17077Y5518D01*
X17079Y5518D01*
X17083Y5521D01*
X17088Y5524D01*
X17089Y5525D01*
X17090Y5526D01*
X17093Y5530D01*
X17097Y5534D01*
X17098Y5535D01*
X17099Y5536D01*
X17101Y5541D01*
X17104Y5546D01*
X17105Y5547D01*
X17105Y5548D01*
X17107Y5554D01*
X17108Y5559D01*
X17108Y5560D01*
X17109Y5562D01*
X17109Y5570D01*
X17109Y6061D01*
X17780Y6061D01*
X17781Y6061D01*
X17783Y6061D01*
X17788Y6062D01*
X17794Y6062D01*
X17795Y6063D01*
X17796Y6063D01*
X17801Y6065D01*
X17806Y6067D01*
X17807Y6068D01*
X17809Y6068D01*
X17813Y6071D01*
X17818Y6074D01*
X17819Y6075D01*
X17820Y6076D01*
X17823Y6080D01*
X17827Y6084D01*
X17828Y6085D01*
X17829Y6086D01*
X17831Y6091D01*
X17834Y6096D01*
X17835Y6097D01*
X17835Y6098D01*
X17837Y6104D01*
X17838Y6109D01*
X17838Y6110D01*
X17839Y6112D01*
X17839Y6120D01*
X17839Y6580D01*
X17839Y6581D01*
X17839Y6583D01*
X17838Y6588D01*
X17838Y6594D01*
X17837Y6595D01*
X17837Y6596D01*
X17835Y6601D01*
X17833Y6606D01*
X17832Y6607D01*
X17832Y6609D01*
X17829Y6613D01*
X17826Y6618D01*
X17825Y6619D01*
X17824Y6620D01*
X17820Y6623D01*
X17816Y6627D01*
X17815Y6628D01*
X17814Y6629D01*
X17809Y6631D01*
X17804Y6634D01*
X17803Y6635D01*
X17802Y6635D01*
X17796Y6637D01*
X17791Y6638D01*
X17790Y6638D01*
X17788Y6639D01*
X17780Y6639D01*
X15923Y6639D01*
X15829Y6733D01*
X15829Y7276D01*
X15829Y7277D01*
X15829Y7278D01*
X15828Y7284D01*
X15828Y7289D01*
X15827Y7290D01*
X15827Y7292D01*
X15825Y7297D01*
X15823Y7302D01*
X15822Y7303D01*
X15822Y7304D01*
X15819Y7309D01*
X15816Y7313D01*
X15815Y7314D01*
X15814Y7315D01*
X15810Y7319D01*
X15806Y7323D01*
X15805Y7324D01*
X15804Y7324D01*
X15799Y7327D01*
X15794Y7330D01*
X15793Y7330D01*
X15792Y7331D01*
X15786Y7332D01*
X15781Y7334D01*
X15780Y7334D01*
X15778Y7334D01*
X15770Y7335D01*
X15120Y7335D01*
X15025Y7429D01*
X15025Y8271D01*
X15120Y8365D01*
X15879Y8365D01*
X15883Y8366D01*
X15888Y8366D01*
X15890Y8366D01*
X15891Y8363D01*
X15892Y8361D01*
X15893Y8359D01*
X15895Y8355D01*
X15898Y8351D01*
X15899Y8349D01*
X15900Y8348D01*
X15901Y8347D01*
X15903Y8344D01*
X15977Y8271D01*
X15977Y8044D01*
X15977Y8041D01*
X15977Y8037D01*
X15978Y8034D01*
X15978Y8031D01*
X15980Y8027D01*
X15981Y8024D01*
X15982Y8021D01*
X15983Y8018D01*
X15985Y8015D01*
X15987Y8011D01*
X15989Y8009D01*
X15991Y8006D01*
X15993Y8004D01*
X15995Y8001D01*
X15998Y7999D01*
X16000Y7997D01*
X16003Y7995D01*
X16006Y7993D01*
X16011Y7991D01*
X16012Y7990D01*
X16013Y7990D01*
X16014Y7989D01*
X16322Y7865D01*
X16329Y7863D01*
X16335Y7861D01*
X16336Y7861D01*
X16344Y7861D01*
X17780Y7861D01*
X17781Y7861D01*
X17783Y7861D01*
X17788Y7862D01*
X17794Y7862D01*
X17795Y7863D01*
X17796Y7863D01*
X17801Y7865D01*
X17806Y7867D01*
X17807Y7868D01*
X17809Y7868D01*
X17813Y7871D01*
X17818Y7874D01*
X17819Y7875D01*
X17820Y7876D01*
X17823Y7880D01*
X17827Y7884D01*
X17828Y7885D01*
X17829Y7886D01*
X17831Y7891D01*
X17834Y7896D01*
X17835Y7897D01*
X17835Y7898D01*
X17837Y7904D01*
X17838Y7909D01*
X17838Y7910D01*
X17839Y7912D01*
X17839Y7920D01*
X17839Y8380D01*
X17839Y8381D01*
X17839Y8383D01*
X17838Y8388D01*
X17838Y8394D01*
X17837Y8395D01*
X17837Y8396D01*
X17835Y8401D01*
X17833Y8406D01*
X17832Y8407D01*
X17832Y8409D01*
X17829Y8413D01*
X17826Y8418D01*
X17825Y8419D01*
X17824Y8420D01*
X17820Y8423D01*
X17816Y8427D01*
X17815Y8428D01*
X17814Y8429D01*
X17809Y8431D01*
X17804Y8434D01*
X17803Y8435D01*
X17802Y8435D01*
X17796Y8437D01*
X17791Y8438D01*
X17790Y8438D01*
X17788Y8439D01*
X17780Y8439D01*
X17109Y8439D01*
X17109Y8930D01*
X17109Y8931D01*
X17109Y8932D01*
X17109Y8933D01*
X17108Y8938D01*
X17108Y8944D01*
X17107Y8945D01*
X17107Y8946D01*
X17105Y8951D01*
X17103Y8956D01*
X17102Y8957D01*
X17102Y8959D01*
X17099Y8963D01*
X17096Y8968D01*
X17095Y8969D01*
X17094Y8970D01*
X17090Y8973D01*
X17086Y8977D01*
X17085Y8978D01*
X17084Y8979D01*
X17079Y8981D01*
X17074Y8984D01*
X17073Y8985D01*
X17072Y8985D01*
X17066Y8987D01*
X17061Y8988D01*
X17060Y8988D01*
X17058Y8989D01*
X17050Y8989D01*
X16989Y8989D01*
X16989Y8991D01*
X17050Y8991D01*
X17051Y8991D01*
X17053Y8991D01*
X17058Y8992D01*
X17064Y8992D01*
X17065Y8993D01*
X17066Y8993D01*
X17071Y8995D01*
X17076Y8997D01*
X17077Y8998D01*
X17079Y8998D01*
X17083Y9001D01*
X17088Y9004D01*
X17089Y9005D01*
X17090Y9006D01*
X17093Y9010D01*
X17097Y9014D01*
X17098Y9015D01*
X17099Y9016D01*
X17101Y9021D01*
X17104Y9026D01*
X17105Y9027D01*
X17105Y9028D01*
X17107Y9034D01*
X17108Y9039D01*
X17108Y9040D01*
X17109Y9042D01*
X17109Y9050D01*
X17109Y9541D01*
X17780Y9541D01*
X17781Y9541D01*
X17783Y9541D01*
X17788Y9542D01*
X17794Y9542D01*
X17795Y9543D01*
X17796Y9543D01*
X17801Y9545D01*
X17806Y9547D01*
X17807Y9548D01*
X17809Y9548D01*
X17813Y9551D01*
X17818Y9554D01*
X17819Y9555D01*
X17820Y9556D01*
X17823Y9560D01*
X17827Y9564D01*
X17828Y9565D01*
X17829Y9566D01*
X17831Y9571D01*
X17834Y9576D01*
X17835Y9577D01*
X17835Y9578D01*
X17837Y9584D01*
X17838Y9589D01*
X17838Y9590D01*
X17839Y9592D01*
X17839Y9600D01*
X17839Y9780D01*
X17839Y9781D01*
X17839Y9783D01*
X17838Y9788D01*
X17838Y9794D01*
X17837Y9795D01*
X17837Y9796D01*
X17835Y9801D01*
X17833Y9806D01*
X17832Y9807D01*
X17832Y9809D01*
X17829Y9813D01*
X17826Y9818D01*
X17825Y9819D01*
X17824Y9820D01*
X17820Y9823D01*
X17816Y9827D01*
X17815Y9828D01*
X17814Y9829D01*
X17809Y9831D01*
X17804Y9834D01*
X17803Y9835D01*
X17802Y9835D01*
X17796Y9837D01*
X17791Y9838D01*
X17790Y9838D01*
X17788Y9839D01*
X17780Y9839D01*
X220Y9839D01*
X219Y9839D01*
X217Y9839D01*
X212Y9838D01*
X206Y9838D01*
X205Y9837D01*
X204Y9837D01*
X199Y9835D01*
X194Y9833D01*
X193Y9832D01*
X191Y9832D01*
X187Y9829D01*
X182Y9826D01*
X181Y9825D01*
X180Y9824D01*
X177Y9820D01*
X173Y9816D01*
X172Y9815D01*
X171Y9814D01*
X169Y9809D01*
X166Y9804D01*
X165Y9803D01*
X165Y9802D01*
X163Y9796D01*
X162Y9791D01*
X162Y9790D01*
X161Y9788D01*
X161Y9780D01*
X161Y7350D01*
X161Y7349D01*
X161Y7347D01*
X162Y7342D01*
X162Y7336D01*
X163Y7335D01*
X163Y7334D01*
X165Y7329D01*
X167Y7324D01*
X168Y7323D01*
X168Y7321D01*
X171Y7317D01*
X174Y7312D01*
X175Y7311D01*
X176Y7310D01*
X180Y7307D01*
X184Y7303D01*
X185Y7302D01*
X186Y7301D01*
X191Y7299D01*
X196Y7296D01*
X197Y7295D01*
X198Y7295D01*
X204Y7293D01*
X209Y7292D01*
X210Y7292D01*
X212Y7291D01*
X220Y7291D01*
X891Y7291D01*
X891Y6800D01*
X891Y6799D01*
X891Y6797D01*
X892Y6792D01*
X892Y6786D01*
X893Y6785D01*
X893Y6784D01*
X895Y6779D01*
X897Y6774D01*
X898Y6773D01*
X898Y6771D01*
X901Y6767D01*
X904Y6762D01*
X905Y6761D01*
X906Y6760D01*
X910Y6757D01*
X914Y6753D01*
X915Y6752D01*
X916Y6751D01*
X921Y6749D01*
X926Y6746D01*
X927Y6745D01*
X928Y6745D01*
X934Y6743D01*
X939Y6742D01*
X940Y6742D01*
X942Y6741D01*
X950Y6741D01*
X1011Y6741D01*
X1011Y6739D01*
X950Y6739D01*
X949Y6739D01*
X947Y6739D01*
X942Y6738D01*
X936Y6738D01*
X935Y6737D01*
X934Y6737D01*
X929Y6735D01*
X924Y6733D01*
X923Y6732D01*
X921Y6732D01*
X917Y6729D01*
X912Y6726D01*
X911Y6725D01*
X910Y6724D01*
X907Y6720D01*
X903Y6716D01*
X902Y6715D01*
X901Y6714D01*
X899Y6709D01*
X896Y6704D01*
X895Y6703D01*
X895Y6702D01*
X893Y6696D01*
X892Y6691D01*
X892Y6690D01*
X891Y6688D01*
X891Y6680D01*
X891Y6189D01*
X220Y6189D01*
X219Y6189D01*
X217Y6189D01*
X212Y6188D01*
X206Y6188D01*
X205Y6187D01*
X204Y6187D01*
X199Y6185D01*
X194Y6183D01*
X193Y6182D01*
X191Y6182D01*
X187Y6179D01*
X182Y6176D01*
X181Y6175D01*
X180Y6174D01*
X177Y6170D01*
X173Y6166D01*
X172Y6165D01*
X171Y6164D01*
X169Y6159D01*
X166Y6154D01*
X165Y6153D01*
X165Y6152D01*
X163Y6146D01*
X162Y6141D01*
X162Y6140D01*
X161Y6138D01*
X161Y6130D01*
X161Y5670D01*
X161Y5669D01*
X161Y5668D01*
X161Y5667D01*
X162Y5662D01*
X162Y5656D01*
X163Y5655D01*
X163Y5654D01*
X165Y5649D01*
X167Y5644D01*
X168Y5643D01*
X168Y5641D01*
X171Y5637D01*
X174Y5632D01*
X175Y5631D01*
X176Y5630D01*
X180Y5627D01*
X184Y5623D01*
X185Y5622D01*
X186Y5621D01*
X191Y5619D01*
X196Y5616D01*
X197Y5615D01*
X198Y5615D01*
X204Y5613D01*
X209Y5612D01*
X210Y5612D01*
X212Y5611D01*
X220Y5611D01*
X2077Y5611D01*
X2171Y5517D01*
X2171Y5380D01*
X2171Y5379D01*
X2171Y5377D01*
X2172Y5372D01*
X2172Y5366D01*
X2173Y5365D01*
X2173Y5364D01*
X2175Y5359D01*
X2177Y5354D01*
X2178Y5353D01*
X2178Y5351D01*
X2181Y5347D01*
X2184Y5342D01*
X2185Y5341D01*
X2186Y5340D01*
X2190Y5337D01*
X2194Y5333D01*
X2195Y5332D01*
X2196Y5331D01*
X2201Y5329D01*
X2206Y5326D01*
X2207Y5325D01*
X2208Y5325D01*
X2214Y5323D01*
X2219Y5322D01*
X2220Y5322D01*
X2222Y5321D01*
X2230Y5321D01*
X3064Y5321D01*
X3182Y5272D01*
X3272Y5182D01*
X3321Y5064D01*
X3321Y4213D01*
X3321Y4208D01*
X3322Y4202D01*
X3322Y4201D01*
X3322Y4199D01*
X3324Y4194D01*
X3326Y4189D01*
X3326Y4188D01*
X3327Y4187D01*
X3330Y4182D01*
X3333Y4178D01*
X3334Y4176D01*
X3334Y4175D01*
X3335Y4174D01*
X3338Y4171D01*
X3413Y4097D01*
X3413Y2703D01*
X3319Y2609D01*
X2477Y2609D01*
X2383Y2703D01*
X2383Y4097D01*
X2477Y4191D01*
X2620Y4191D01*
X2621Y4191D01*
X2623Y4191D01*
X2628Y4192D01*
X2634Y4192D01*
X2635Y4193D01*
X2636Y4193D01*
X2641Y4195D01*
X2646Y4197D01*
X2647Y4198D01*
X2649Y4198D01*
X2653Y4201D01*
X2658Y4204D01*
X2659Y4205D01*
X2660Y4206D01*
X2663Y4210D01*
X2667Y4214D01*
X2668Y4215D01*
X2669Y4216D01*
X2671Y4221D01*
X2674Y4226D01*
X2675Y4227D01*
X2675Y4228D01*
X2677Y4234D01*
X2678Y4239D01*
X2678Y4240D01*
X2679Y4241D01*
X2679Y4250D01*
X2679Y4620D01*
X2679Y4621D01*
X2679Y4623D01*
X2678Y4628D01*
X2678Y4634D01*
X2677Y4635D01*
X2677Y4636D01*
X2675Y4641D01*
X2673Y4646D01*
X2672Y4647D01*
X2672Y4649D01*
X2669Y4653D01*
X2666Y4658D01*
X2665Y4659D01*
X2664Y4660D01*
X2660Y4663D01*
X2656Y4667D01*
X2655Y4668D01*
X2654Y4669D01*
X2649Y4671D01*
X2644Y4674D01*
X2643Y4675D01*
X2642Y4675D01*
X2636Y4677D01*
X2631Y4678D01*
X2630Y4678D01*
X2628Y4679D01*
X2620Y4679D01*
X2230Y4679D01*
X2229Y4679D01*
X2227Y4679D01*
X2222Y4678D01*
X2216Y4678D01*
X2215Y4677D01*
X2214Y4677D01*
X2209Y4675D01*
X2204Y4673D01*
X2203Y4672D01*
X2201Y4672D01*
X2197Y4669D01*
X2192Y4666D01*
X2191Y4665D01*
X2190Y4664D01*
X2187Y4660D01*
X2183Y4656D01*
X2182Y4655D01*
X2181Y4654D01*
X2179Y4649D01*
X2176Y4644D01*
X2175Y4643D01*
X2175Y4642D01*
X2173Y4636D01*
X2172Y4631D01*
X2172Y4630D01*
X2171Y4628D01*
X2171Y4620D01*
X2171Y4483D01*
X2077Y4389D01*
X220Y4389D01*
X219Y4389D01*
X217Y4389D01*
X212Y4388D01*
X206Y4388D01*
X205Y4387D01*
X204Y4387D01*
X199Y4385D01*
X194Y4383D01*
X193Y4382D01*
X191Y4382D01*
X187Y4379D01*
X182Y4376D01*
X181Y4375D01*
X180Y4374D01*
X177Y4370D01*
X173Y4366D01*
X172Y4365D01*
X171Y4364D01*
X169Y4359D01*
X166Y4354D01*
X165Y4353D01*
X165Y4352D01*
X163Y4346D01*
X162Y4341D01*
X162Y4340D01*
X161Y4338D01*
X161Y4330D01*
X161Y3870D01*
X161Y3869D01*
X161Y3867D01*
X162Y3862D01*
X162Y3856D01*
X163Y3855D01*
X163Y3854D01*
X165Y3849D01*
X167Y3844D01*
X168Y3843D01*
X168Y3841D01*
X171Y3837D01*
X174Y3832D01*
X175Y3831D01*
X176Y3830D01*
X180Y3827D01*
X184Y3823D01*
X185Y3822D01*
X186Y3821D01*
X191Y3819D01*
X196Y3816D01*
X197Y3815D01*
X198Y3815D01*
X204Y3813D01*
X209Y3812D01*
X210Y3812D01*
X212Y3811D01*
X220Y3811D01*
X891Y3811D01*
X891Y3320D01*
X891Y3319D01*
X891Y3317D01*
X892Y3312D01*
X892Y3306D01*
X893Y3305D01*
X893Y3304D01*
X895Y3299D01*
X897Y3294D01*
X898Y3293D01*
X898Y3291D01*
X901Y3287D01*
X904Y3282D01*
X905Y3281D01*
X906Y3280D01*
X910Y3277D01*
X914Y3273D01*
X915Y3272D01*
X916Y3271D01*
X921Y3269D01*
X926Y3266D01*
X927Y3265D01*
X928Y3265D01*
X934Y3263D01*
X939Y3262D01*
X940Y3262D01*
X942Y3261D01*
X950Y3261D01*
X1011Y3261D01*
X1011Y3259D01*
X950Y3259D01*
X949Y3259D01*
X947Y3259D01*
X942Y3258D01*
X936Y3258D01*
X935Y3257D01*
X934Y3257D01*
X929Y3255D01*
X924Y3253D01*
X923Y3252D01*
X921Y3252D01*
X917Y3249D01*
X912Y3246D01*
X911Y3245D01*
X910Y3244D01*
X907Y3240D01*
X903Y3236D01*
X902Y3235D01*
X901Y3234D01*
X899Y3229D01*
X896Y3224D01*
X895Y3223D01*
X895Y3222D01*
X893Y3216D01*
X892Y3211D01*
X892Y3210D01*
X891Y3208D01*
X891Y3200D01*
X891Y2709D01*
X220Y2709D01*
X219Y2709D01*
X217Y2709D01*
X212Y2708D01*
X206Y2708D01*
X205Y2707D01*
X204Y2707D01*
X199Y2705D01*
X194Y2703D01*
X193Y2702D01*
X191Y2702D01*
X187Y2699D01*
X182Y2696D01*
X181Y2695D01*
X180Y2694D01*
X177Y2690D01*
X173Y2686D01*
X172Y2685D01*
X171Y2684D01*
X169Y2679D01*
X166Y2674D01*
X165Y2673D01*
X165Y2672D01*
X163Y2666D01*
X162Y2661D01*
X162Y2660D01*
X161Y2658D01*
X161Y2650D01*
X161Y220D01*
X161Y219D01*
X161Y217D01*
X162Y212D01*
X162Y206D01*
X163Y205D01*
X163Y204D01*
X165Y199D01*
X167Y194D01*
X168Y193D01*
X168Y191D01*
X171Y187D01*
X174Y182D01*
X175Y181D01*
X176Y180D01*
X180Y177D01*
X184Y173D01*
X185Y172D01*
X186Y171D01*
X191Y169D01*
X196Y166D01*
X197Y165D01*
X198Y165D01*
X204Y163D01*
X209Y162D01*
X210Y162D01*
X212Y161D01*
X220Y161D01*
X17780Y161D01*
X17781Y161D01*
G37*
%LPC*%
G36*
X1698Y289D02*
X1698Y289D01*
X1602Y329D01*
X1399Y532D01*
X1359Y628D01*
X1359Y915D01*
X1359Y916D01*
X1359Y918D01*
X1358Y923D01*
X1358Y929D01*
X1357Y930D01*
X1357Y931D01*
X1355Y936D01*
X1353Y941D01*
X1352Y943D01*
X1352Y944D01*
X1349Y948D01*
X1346Y953D01*
X1345Y954D01*
X1344Y955D01*
X1340Y958D01*
X1336Y962D01*
X1335Y963D01*
X1334Y964D01*
X1329Y966D01*
X1324Y969D01*
X1323Y970D01*
X1322Y970D01*
X1316Y972D01*
X1311Y973D01*
X1310Y973D01*
X1309Y974D01*
X1300Y974D01*
X1278Y974D01*
X1184Y1068D01*
X1184Y1832D01*
X1278Y1926D01*
X1962Y1926D01*
X2056Y1832D01*
X2056Y1068D01*
X1962Y974D01*
X1940Y974D01*
X1939Y974D01*
X1937Y974D01*
X1932Y973D01*
X1927Y973D01*
X1925Y972D01*
X1924Y972D01*
X1919Y970D01*
X1914Y968D01*
X1913Y967D01*
X1911Y967D01*
X1907Y964D01*
X1902Y961D01*
X1901Y960D01*
X1900Y959D01*
X1897Y955D01*
X1893Y951D01*
X1892Y950D01*
X1891Y949D01*
X1889Y944D01*
X1886Y939D01*
X1886Y938D01*
X1885Y937D01*
X1884Y931D01*
X1882Y926D01*
X1882Y925D01*
X1881Y923D01*
X1881Y915D01*
X1881Y870D01*
X1881Y869D01*
X1881Y867D01*
X1882Y862D01*
X1882Y856D01*
X1883Y855D01*
X1883Y854D01*
X1885Y849D01*
X1887Y844D01*
X1888Y843D01*
X1888Y841D01*
X1891Y837D01*
X1894Y832D01*
X1895Y831D01*
X1896Y830D01*
X1900Y827D01*
X1904Y823D01*
X1905Y822D01*
X1906Y821D01*
X1911Y819D01*
X1916Y816D01*
X1917Y815D01*
X1918Y815D01*
X1924Y813D01*
X1929Y812D01*
X1930Y812D01*
X1932Y811D01*
X1940Y811D01*
X2525Y811D01*
X2527Y811D01*
X2530Y811D01*
X2534Y812D01*
X2539Y812D01*
X2541Y813D01*
X2543Y813D01*
X2547Y815D01*
X2552Y817D01*
X2553Y818D01*
X2555Y819D01*
X2559Y822D01*
X2563Y824D01*
X2565Y826D01*
X2566Y827D01*
X2569Y831D01*
X2572Y834D01*
X2574Y836D01*
X2575Y838D01*
X2577Y842D01*
X2579Y846D01*
X2580Y848D01*
X2581Y850D01*
X2582Y855D01*
X2583Y859D01*
X2584Y861D01*
X2584Y863D01*
X2584Y868D01*
X2584Y873D01*
X2584Y875D01*
X2584Y877D01*
X2582Y885D01*
X2582Y886D01*
X2582Y988D01*
X2910Y988D01*
X2912Y988D01*
X2913Y988D01*
X2918Y989D01*
X2924Y990D01*
X2925Y990D01*
X2926Y990D01*
X2932Y992D01*
X2937Y994D01*
X2938Y995D01*
X2939Y996D01*
X2944Y993D01*
X2945Y993D01*
X2946Y992D01*
X2951Y991D01*
X2957Y989D01*
X2958Y989D01*
X2959Y989D01*
X2968Y988D01*
X3296Y988D01*
X3296Y886D01*
X3296Y885D01*
X3295Y884D01*
X3295Y883D01*
X3295Y882D01*
X3295Y881D01*
X3294Y876D01*
X3294Y872D01*
X3294Y870D01*
X3294Y867D01*
X3294Y863D01*
X3295Y858D01*
X3295Y856D01*
X3296Y854D01*
X3298Y850D01*
X3299Y845D01*
X3300Y843D01*
X3301Y841D01*
X3304Y838D01*
X3306Y834D01*
X3308Y832D01*
X3309Y830D01*
X3312Y827D01*
X3316Y824D01*
X3317Y823D01*
X3319Y821D01*
X3323Y819D01*
X3327Y817D01*
X3329Y816D01*
X3331Y815D01*
X3336Y814D01*
X3340Y812D01*
X3342Y812D01*
X3344Y811D01*
X3353Y811D01*
X3366Y811D01*
X3372Y811D01*
X3377Y812D01*
X3378Y812D01*
X3380Y812D01*
X3385Y814D01*
X3390Y816D01*
X3391Y816D01*
X3393Y817D01*
X3397Y820D01*
X3402Y823D01*
X3403Y824D01*
X3404Y824D01*
X3405Y825D01*
X3408Y828D01*
X3456Y876D01*
X3459Y880D01*
X3463Y884D01*
X3463Y885D01*
X3464Y886D01*
X3467Y891D01*
X3469Y896D01*
X3469Y897D01*
X3470Y899D01*
X3471Y904D01*
X3473Y909D01*
X3473Y911D01*
X3473Y912D01*
X3473Y914D01*
X3473Y918D01*
X3473Y1421D01*
X3506Y1453D01*
X3506Y1455D01*
X3507Y1455D01*
X3511Y1460D01*
X3514Y1464D01*
X3515Y1465D01*
X3515Y1466D01*
X3518Y1472D01*
X3520Y1477D01*
X3520Y1478D01*
X3521Y1479D01*
X3522Y1484D01*
X3523Y1490D01*
X3523Y1491D01*
X3523Y1492D01*
X3523Y1498D01*
X3522Y1503D01*
X3522Y1505D01*
X3522Y1506D01*
X3520Y1511D01*
X3519Y1517D01*
X3518Y1518D01*
X3518Y1519D01*
X3515Y1524D01*
X3513Y1529D01*
X3512Y1530D01*
X3511Y1531D01*
X3506Y1537D01*
X3451Y1592D01*
X3450Y1593D01*
X3449Y1594D01*
X3445Y1597D01*
X3440Y1600D01*
X3439Y1601D01*
X3438Y1602D01*
X3433Y1604D01*
X3428Y1606D01*
X3427Y1606D01*
X3426Y1607D01*
X3420Y1608D01*
X3415Y1609D01*
X3413Y1609D01*
X3412Y1609D01*
X3407Y1609D01*
X3401Y1609D01*
X3400Y1608D01*
X3398Y1608D01*
X3393Y1607D01*
X3388Y1605D01*
X3387Y1605D01*
X3385Y1604D01*
X3381Y1602D01*
X3376Y1599D01*
X3375Y1598D01*
X3374Y1597D01*
X3367Y1592D01*
X3261Y1486D01*
X2616Y1486D01*
X2522Y1580D01*
X2522Y2068D01*
X2616Y2162D01*
X2884Y2162D01*
X2889Y2163D01*
X2894Y2163D01*
X2896Y2163D01*
X2897Y2163D01*
X2902Y2165D01*
X2907Y2167D01*
X2909Y2168D01*
X2910Y2168D01*
X2914Y2171D01*
X2919Y2174D01*
X2921Y2175D01*
X2921Y2176D01*
X2922Y2177D01*
X2925Y2179D01*
X2977Y2231D01*
X3073Y2271D01*
X3405Y2271D01*
X3406Y2271D01*
X3408Y2271D01*
X3413Y2272D01*
X3419Y2272D01*
X3420Y2273D01*
X3421Y2273D01*
X3426Y2275D01*
X3432Y2277D01*
X3433Y2278D01*
X3434Y2278D01*
X3438Y2281D01*
X3443Y2284D01*
X3444Y2285D01*
X3445Y2286D01*
X3449Y2290D01*
X3452Y2294D01*
X3453Y2295D01*
X3454Y2296D01*
X3457Y2301D01*
X3459Y2306D01*
X3460Y2307D01*
X3460Y2308D01*
X3462Y2314D01*
X3463Y2319D01*
X3464Y2320D01*
X3464Y2321D01*
X3464Y2330D01*
X3464Y2422D01*
X3559Y2516D01*
X3630Y2516D01*
X3631Y2516D01*
X3633Y2516D01*
X3638Y2517D01*
X3644Y2517D01*
X3645Y2518D01*
X3646Y2518D01*
X3651Y2520D01*
X3656Y2522D01*
X3657Y2523D01*
X3659Y2523D01*
X3663Y2526D01*
X3668Y2529D01*
X3669Y2530D01*
X3670Y2531D01*
X3673Y2535D01*
X3677Y2539D01*
X3678Y2540D01*
X3679Y2541D01*
X3681Y2546D01*
X3684Y2551D01*
X3685Y2552D01*
X3685Y2553D01*
X3687Y2559D01*
X3688Y2564D01*
X3688Y2565D01*
X3689Y2566D01*
X3689Y2575D01*
X3689Y4302D01*
X3729Y4398D01*
X4075Y4744D01*
X4171Y4784D01*
X4980Y4784D01*
X4981Y4784D01*
X4983Y4784D01*
X4988Y4785D01*
X4994Y4785D01*
X4995Y4786D01*
X4996Y4786D01*
X5001Y4788D01*
X5006Y4790D01*
X5007Y4790D01*
X5009Y4791D01*
X5013Y4794D01*
X5018Y4797D01*
X5019Y4798D01*
X5020Y4799D01*
X5023Y4803D01*
X5027Y4807D01*
X5028Y4808D01*
X5029Y4809D01*
X5031Y4814D01*
X5034Y4819D01*
X5035Y4820D01*
X5035Y4821D01*
X5037Y4827D01*
X5038Y4832D01*
X5038Y4833D01*
X5039Y4834D01*
X5039Y4843D01*
X5039Y5069D01*
X5134Y5163D01*
X5138Y5164D01*
X5144Y5164D01*
X5145Y5165D01*
X5146Y5165D01*
X5151Y5167D01*
X5156Y5169D01*
X5157Y5170D01*
X5159Y5170D01*
X5163Y5174D01*
X5168Y5177D01*
X5169Y5177D01*
X5170Y5178D01*
X5173Y5182D01*
X5177Y5186D01*
X5178Y5188D01*
X5179Y5189D01*
X5181Y5193D01*
X5184Y5198D01*
X5185Y5199D01*
X5185Y5201D01*
X5187Y5206D01*
X5188Y5211D01*
X5188Y5212D01*
X5189Y5214D01*
X5189Y5222D01*
X5189Y5620D01*
X5189Y5621D01*
X5189Y5623D01*
X5188Y5628D01*
X5188Y5634D01*
X5187Y5635D01*
X5187Y5636D01*
X5185Y5641D01*
X5183Y5646D01*
X5182Y5647D01*
X5182Y5649D01*
X5179Y5653D01*
X5176Y5658D01*
X5175Y5659D01*
X5174Y5660D01*
X5170Y5663D01*
X5166Y5667D01*
X5165Y5668D01*
X5164Y5669D01*
X5159Y5671D01*
X5154Y5674D01*
X5153Y5675D01*
X5152Y5675D01*
X5146Y5677D01*
X5141Y5678D01*
X5140Y5678D01*
X5138Y5679D01*
X5130Y5679D01*
X4784Y5679D01*
X4666Y5728D01*
X3952Y6442D01*
X3948Y6445D01*
X3944Y6449D01*
X3943Y6450D01*
X3942Y6450D01*
X3937Y6453D01*
X3932Y6455D01*
X3931Y6456D01*
X3929Y6456D01*
X3924Y6457D01*
X3919Y6459D01*
X3917Y6459D01*
X3916Y6459D01*
X3915Y6459D01*
X3911Y6459D01*
X3216Y6459D01*
X3122Y6553D01*
X3122Y7947D01*
X3216Y8041D01*
X3980Y8041D01*
X4074Y7947D01*
X4074Y7252D01*
X4074Y7247D01*
X4075Y7242D01*
X4075Y7240D01*
X4075Y7239D01*
X4077Y7234D01*
X4079Y7229D01*
X4079Y7227D01*
X4080Y7226D01*
X4083Y7222D01*
X4086Y7217D01*
X4087Y7215D01*
X4088Y7214D01*
X4091Y7211D01*
X4964Y6338D01*
X4968Y6335D01*
X4972Y6331D01*
X4973Y6331D01*
X4974Y6330D01*
X4979Y6327D01*
X4984Y6325D01*
X4985Y6324D01*
X4987Y6324D01*
X4992Y6323D01*
X4997Y6321D01*
X4999Y6321D01*
X5000Y6321D01*
X5001Y6321D01*
X5005Y6321D01*
X7343Y6321D01*
X7348Y6321D01*
X7353Y6322D01*
X7355Y6322D01*
X7356Y6322D01*
X7361Y6324D01*
X7366Y6326D01*
X7368Y6326D01*
X7369Y6327D01*
X7373Y6330D01*
X7378Y6333D01*
X7380Y6334D01*
X7381Y6335D01*
X7384Y6338D01*
X7405Y6358D01*
X7407Y6361D01*
X7410Y6364D01*
X7411Y6367D01*
X7413Y6369D01*
X7415Y6373D01*
X7417Y6376D01*
X7418Y6379D01*
X7419Y6381D01*
X7420Y6385D01*
X7421Y6389D01*
X7421Y6392D01*
X7422Y6395D01*
X7422Y6399D01*
X7422Y6403D01*
X7421Y6405D01*
X7421Y6408D01*
X7420Y6412D01*
X7420Y6416D01*
X7419Y6419D01*
X7418Y6421D01*
X7416Y6425D01*
X7415Y6429D01*
X7413Y6431D01*
X7412Y6433D01*
X7409Y6437D01*
X7407Y6440D01*
X7405Y6442D01*
X7403Y6444D01*
X7399Y6446D01*
X7396Y6449D01*
X7394Y6450D01*
X7392Y6452D01*
X7388Y6453D01*
X7384Y6455D01*
X7382Y6456D01*
X7379Y6457D01*
X7375Y6458D01*
X7371Y6459D01*
X7367Y6459D01*
X7366Y6459D01*
X7365Y6459D01*
X7363Y6459D01*
X6720Y6459D01*
X6626Y6553D01*
X6626Y7947D01*
X6720Y8041D01*
X7484Y8041D01*
X7578Y7947D01*
X7578Y7630D01*
X7578Y7629D01*
X7578Y7627D01*
X7579Y7622D01*
X7579Y7616D01*
X7580Y7615D01*
X7580Y7614D01*
X7582Y7609D01*
X7584Y7604D01*
X7585Y7603D01*
X7585Y7601D01*
X7588Y7597D01*
X7591Y7592D01*
X7592Y7591D01*
X7593Y7590D01*
X7597Y7587D01*
X7601Y7583D01*
X7602Y7582D01*
X7603Y7581D01*
X7608Y7579D01*
X7613Y7576D01*
X7614Y7575D01*
X7615Y7575D01*
X7621Y7573D01*
X7626Y7572D01*
X7627Y7572D01*
X7629Y7571D01*
X7637Y7571D01*
X8711Y7571D01*
X8717Y7571D01*
X8722Y7572D01*
X8723Y7572D01*
X8725Y7572D01*
X8730Y7574D01*
X8735Y7576D01*
X8736Y7576D01*
X8738Y7577D01*
X8742Y7580D01*
X8747Y7583D01*
X8748Y7584D01*
X8749Y7584D01*
X8750Y7585D01*
X8753Y7588D01*
X8769Y7604D01*
X8772Y7608D01*
X8776Y7612D01*
X8777Y7613D01*
X8777Y7615D01*
X8780Y7619D01*
X8782Y7624D01*
X8783Y7626D01*
X8783Y7627D01*
X8784Y7632D01*
X8786Y7637D01*
X8786Y7639D01*
X8786Y7640D01*
X8786Y7642D01*
X8786Y7646D01*
X8786Y9354D01*
X8880Y9448D01*
X10057Y9448D01*
X10151Y9354D01*
X10151Y6346D01*
X10057Y6252D01*
X9849Y6252D01*
X9847Y6252D01*
X9846Y6252D01*
X9841Y6251D01*
X9835Y6251D01*
X9834Y6250D01*
X9833Y6250D01*
X9828Y6248D01*
X9822Y6246D01*
X9821Y6245D01*
X9820Y6245D01*
X9816Y6242D01*
X9811Y6239D01*
X9810Y6238D01*
X9809Y6237D01*
X9805Y6233D01*
X9801Y6229D01*
X9801Y6228D01*
X9800Y6227D01*
X9797Y6222D01*
X9795Y6217D01*
X9794Y6216D01*
X9794Y6215D01*
X9792Y6209D01*
X9790Y6204D01*
X9790Y6203D01*
X9790Y6201D01*
X9789Y6193D01*
X9789Y5042D01*
X9790Y5037D01*
X9790Y5031D01*
X9791Y5030D01*
X9791Y5029D01*
X9793Y5024D01*
X9794Y5018D01*
X9795Y5017D01*
X9796Y5016D01*
X9799Y5011D01*
X9801Y5007D01*
X9803Y5005D01*
X9803Y5004D01*
X9804Y5003D01*
X9807Y5000D01*
X9866Y4941D01*
X9866Y4178D01*
X9772Y4084D01*
X8928Y4084D01*
X8834Y4178D01*
X8834Y4941D01*
X8928Y5036D01*
X9089Y5036D01*
X9090Y5036D01*
X9091Y5036D01*
X9097Y5036D01*
X9102Y5037D01*
X9103Y5038D01*
X9105Y5038D01*
X9110Y5040D01*
X9115Y5042D01*
X9116Y5042D01*
X9117Y5043D01*
X9122Y5046D01*
X9127Y5049D01*
X9127Y5050D01*
X9128Y5051D01*
X9132Y5055D01*
X9136Y5059D01*
X9137Y5060D01*
X9137Y5061D01*
X9140Y5066D01*
X9143Y5071D01*
X9143Y5072D01*
X9144Y5073D01*
X9145Y5079D01*
X9147Y5084D01*
X9147Y5085D01*
X9147Y5086D01*
X9148Y5095D01*
X9148Y6193D01*
X9148Y6194D01*
X9148Y6196D01*
X9147Y6201D01*
X9146Y6207D01*
X9146Y6208D01*
X9146Y6209D01*
X9144Y6214D01*
X9142Y6219D01*
X9141Y6220D01*
X9141Y6222D01*
X9137Y6226D01*
X9134Y6231D01*
X9133Y6232D01*
X9133Y6233D01*
X9128Y6236D01*
X9124Y6240D01*
X9123Y6241D01*
X9122Y6242D01*
X9117Y6244D01*
X9113Y6247D01*
X9111Y6248D01*
X9110Y6248D01*
X9105Y6250D01*
X9100Y6251D01*
X9098Y6251D01*
X9097Y6252D01*
X9089Y6252D01*
X8880Y6252D01*
X8786Y6346D01*
X8786Y6870D01*
X8786Y6871D01*
X8786Y6873D01*
X8785Y6878D01*
X8785Y6884D01*
X8784Y6885D01*
X8784Y6886D01*
X8782Y6891D01*
X8780Y6896D01*
X8779Y6897D01*
X8779Y6899D01*
X8776Y6903D01*
X8773Y6908D01*
X8772Y6909D01*
X8771Y6910D01*
X8767Y6913D01*
X8763Y6917D01*
X8762Y6918D01*
X8761Y6919D01*
X8756Y6921D01*
X8751Y6924D01*
X8750Y6925D01*
X8749Y6925D01*
X8743Y6927D01*
X8738Y6928D01*
X8737Y6928D01*
X8735Y6929D01*
X8727Y6929D01*
X7637Y6929D01*
X7636Y6929D01*
X7634Y6929D01*
X7629Y6928D01*
X7623Y6928D01*
X7622Y6927D01*
X7621Y6927D01*
X7616Y6925D01*
X7611Y6923D01*
X7609Y6922D01*
X7608Y6922D01*
X7604Y6919D01*
X7599Y6916D01*
X7598Y6915D01*
X7597Y6914D01*
X7594Y6910D01*
X7590Y6906D01*
X7589Y6905D01*
X7588Y6904D01*
X7586Y6899D01*
X7583Y6894D01*
X7582Y6893D01*
X7582Y6892D01*
X7580Y6886D01*
X7579Y6881D01*
X7579Y6880D01*
X7578Y6878D01*
X7578Y6870D01*
X7578Y6614D01*
X7578Y6608D01*
X7579Y6602D01*
X7579Y6601D01*
X7581Y6595D01*
X7583Y6589D01*
X7584Y6589D01*
X7584Y6588D01*
X7587Y6583D01*
X7590Y6578D01*
X7591Y6577D01*
X7596Y6572D01*
X7600Y6568D01*
X7601Y6568D01*
X7601Y6567D01*
X7606Y6564D01*
X7612Y6561D01*
X7613Y6560D01*
X7619Y6558D01*
X7624Y6557D01*
X7625Y6556D01*
X7626Y6556D01*
X7632Y6556D01*
X7638Y6555D01*
X7639Y6555D01*
X7640Y6555D01*
X7646Y6556D01*
X7652Y6557D01*
X7653Y6557D01*
X7654Y6558D01*
X7660Y6560D01*
X7686Y6571D01*
X7814Y6571D01*
X7932Y6522D01*
X8022Y6432D01*
X8071Y6314D01*
X8071Y4457D01*
X8071Y4452D01*
X8072Y4447D01*
X8072Y4445D01*
X8072Y4444D01*
X8074Y4439D01*
X8076Y4434D01*
X8076Y4432D01*
X8077Y4431D01*
X8080Y4427D01*
X8083Y4422D01*
X8084Y4420D01*
X8085Y4419D01*
X8088Y4416D01*
X8733Y3770D01*
X8736Y3768D01*
X8739Y3765D01*
X8742Y3764D01*
X8744Y3762D01*
X8748Y3760D01*
X8751Y3758D01*
X8754Y3757D01*
X8756Y3756D01*
X8760Y3755D01*
X8764Y3754D01*
X8767Y3754D01*
X8770Y3753D01*
X8774Y3753D01*
X8778Y3753D01*
X8780Y3754D01*
X8783Y3754D01*
X8787Y3755D01*
X8791Y3755D01*
X8794Y3756D01*
X8796Y3757D01*
X8800Y3759D01*
X8804Y3760D01*
X8806Y3762D01*
X8808Y3763D01*
X8812Y3766D01*
X8815Y3768D01*
X8817Y3770D01*
X8819Y3772D01*
X8821Y3776D01*
X8824Y3779D01*
X8825Y3781D01*
X8827Y3783D01*
X8828Y3787D01*
X8830Y3791D01*
X8831Y3793D01*
X8832Y3796D01*
X8833Y3800D01*
X8834Y3804D01*
X8834Y3808D01*
X8834Y3809D01*
X8834Y3810D01*
X8834Y3812D01*
X8834Y3822D01*
X8928Y3916D01*
X9772Y3916D01*
X9866Y3822D01*
X9866Y3059D01*
X9772Y2964D01*
X9730Y2964D01*
X9729Y2964D01*
X9727Y2964D01*
X9722Y2964D01*
X9716Y2963D01*
X9715Y2962D01*
X9714Y2962D01*
X9709Y2960D01*
X9704Y2958D01*
X9703Y2958D01*
X9701Y2957D01*
X9697Y2954D01*
X9692Y2951D01*
X9691Y2950D01*
X9690Y2949D01*
X9687Y2945D01*
X9683Y2941D01*
X9682Y2940D01*
X9681Y2939D01*
X9679Y2934D01*
X9676Y2929D01*
X9675Y2928D01*
X9675Y2927D01*
X9673Y2921D01*
X9672Y2916D01*
X9672Y2915D01*
X9671Y2914D01*
X9671Y2905D01*
X9671Y2670D01*
X9671Y2666D01*
X9671Y2662D01*
X9672Y2659D01*
X9672Y2657D01*
X9674Y2653D01*
X9675Y2649D01*
X9676Y2646D01*
X9677Y2644D01*
X9679Y2640D01*
X9681Y2637D01*
X9683Y2635D01*
X9684Y2632D01*
X9687Y2630D01*
X9690Y2627D01*
X9692Y2625D01*
X9694Y2623D01*
X9698Y2621D01*
X9701Y2619D01*
X9704Y2618D01*
X9706Y2616D01*
X9710Y2615D01*
X9714Y2613D01*
X9716Y2613D01*
X9719Y2612D01*
X9723Y2612D01*
X9727Y2611D01*
X9730Y2611D01*
X9733Y2611D01*
X9737Y2612D01*
X9741Y2612D01*
X9743Y2613D01*
X9746Y2613D01*
X9750Y2615D01*
X9754Y2616D01*
X9756Y2617D01*
X9759Y2618D01*
X9762Y2621D01*
X9766Y2623D01*
X9769Y2625D01*
X9770Y2626D01*
X9770Y2627D01*
X9772Y2628D01*
X9877Y2733D01*
X10516Y2733D01*
X10517Y2733D01*
X10523Y2734D01*
X10530Y2735D01*
X10531Y2735D01*
X10537Y2737D01*
X10543Y2739D01*
X10543Y2740D01*
X10549Y2743D01*
X10554Y2747D01*
X10555Y2748D01*
X10561Y2753D01*
X10978Y3231D01*
X10979Y3233D01*
X10981Y3234D01*
X10983Y3238D01*
X10986Y3242D01*
X10987Y3244D01*
X10988Y3246D01*
X10989Y3251D01*
X10991Y3255D01*
X10991Y3257D01*
X10992Y3259D01*
X10992Y3264D01*
X10993Y3269D01*
X10993Y3271D01*
X10993Y3273D01*
X10992Y3277D01*
X10992Y3282D01*
X10991Y3284D01*
X10991Y3286D01*
X10989Y3291D01*
X10987Y3295D01*
X10986Y3297D01*
X10985Y3299D01*
X10983Y3303D01*
X10980Y3307D01*
X10979Y3308D01*
X10977Y3310D01*
X10974Y3313D01*
X10971Y3316D01*
X10969Y3318D01*
X10967Y3319D01*
X10963Y3321D01*
X10959Y3324D01*
X10957Y3324D01*
X10955Y3325D01*
X10951Y3327D01*
X10946Y3328D01*
X10944Y3328D01*
X10942Y3329D01*
X10934Y3329D01*
X10778Y3329D01*
X10684Y3424D01*
X10684Y4147D01*
X10778Y4241D01*
X11917Y4241D01*
X11918Y4242D01*
X11918Y4241D01*
X11924Y4242D01*
X11931Y4243D01*
X11932Y4243D01*
X11938Y4246D01*
X11943Y4248D01*
X11944Y4248D01*
X11945Y4248D01*
X11952Y4253D01*
X12464Y4623D01*
X12466Y4625D01*
X12469Y4627D01*
X12473Y4631D01*
X12474Y4632D01*
X12475Y4633D01*
X12482Y4642D01*
X12508Y4655D01*
X12515Y4660D01*
X12539Y4676D01*
X12550Y4679D01*
X12553Y4680D01*
X12556Y4681D01*
X12562Y4683D01*
X12563Y4684D01*
X12564Y4684D01*
X12803Y4809D01*
X12804Y4810D01*
X12809Y4814D01*
X12814Y4817D01*
X12815Y4818D01*
X12819Y4823D01*
X12824Y4827D01*
X12824Y4828D01*
X12827Y4834D01*
X12830Y4839D01*
X12831Y4840D01*
X12832Y4846D01*
X12834Y4852D01*
X12834Y4853D01*
X12835Y4862D01*
X12835Y5183D01*
X12838Y5186D01*
X12839Y5189D01*
X12841Y5191D01*
X12842Y5194D01*
X12845Y5198D01*
X12845Y5201D01*
X12847Y5203D01*
X12847Y5207D01*
X12849Y5211D01*
X12849Y5214D01*
X12849Y5216D01*
X12849Y5221D01*
X12850Y5225D01*
X12849Y5227D01*
X12849Y5230D01*
X12848Y5234D01*
X12847Y5238D01*
X12846Y5241D01*
X12846Y5243D01*
X12844Y5247D01*
X12842Y5251D01*
X12841Y5253D01*
X12839Y5255D01*
X12837Y5258D01*
X12834Y5262D01*
X12832Y5264D01*
X12830Y5266D01*
X12827Y5268D01*
X12824Y5271D01*
X12822Y5272D01*
X12819Y5274D01*
X12816Y5275D01*
X12812Y5277D01*
X12809Y5278D01*
X12807Y5279D01*
X12803Y5280D01*
X12799Y5281D01*
X12795Y5281D01*
X12793Y5281D01*
X12792Y5281D01*
X12790Y5281D01*
X12769Y5281D01*
X12764Y5281D01*
X12759Y5280D01*
X12757Y5280D01*
X12756Y5280D01*
X12751Y5278D01*
X12746Y5276D01*
X12744Y5276D01*
X12743Y5275D01*
X12738Y5272D01*
X12734Y5269D01*
X12732Y5268D01*
X12730Y5267D01*
X12727Y5264D01*
X12722Y5259D01*
X10778Y5259D01*
X10684Y5353D01*
X10684Y6076D01*
X10778Y6171D01*
X10782Y6171D01*
X10786Y6171D01*
X10790Y6171D01*
X10792Y6172D01*
X10795Y6172D01*
X10799Y6174D01*
X10803Y6175D01*
X10805Y6176D01*
X10808Y6177D01*
X10811Y6179D01*
X10815Y6181D01*
X10817Y6183D01*
X10819Y6184D01*
X10822Y6187D01*
X10825Y6190D01*
X10827Y6192D01*
X10829Y6194D01*
X10831Y6198D01*
X10833Y6201D01*
X10834Y6203D01*
X10836Y6206D01*
X10837Y6210D01*
X10839Y6213D01*
X10839Y6216D01*
X10840Y6219D01*
X10840Y6223D01*
X10841Y6227D01*
X10841Y6230D01*
X10841Y6232D01*
X10840Y6236D01*
X10840Y6241D01*
X10839Y6243D01*
X10839Y6246D01*
X10837Y6250D01*
X10836Y6254D01*
X10835Y6256D01*
X10834Y6259D01*
X10831Y6262D01*
X10829Y6265D01*
X10826Y6268D01*
X10826Y6270D01*
X10825Y6270D01*
X10824Y6272D01*
X10749Y6346D01*
X10749Y9354D01*
X10843Y9448D01*
X12020Y9448D01*
X12114Y9354D01*
X12114Y6930D01*
X12114Y6929D01*
X12114Y6927D01*
X12115Y6922D01*
X12115Y6916D01*
X12116Y6915D01*
X12116Y6914D01*
X12118Y6909D01*
X12120Y6904D01*
X12121Y6903D01*
X12121Y6901D01*
X12124Y6897D01*
X12127Y6892D01*
X12128Y6891D01*
X12129Y6890D01*
X12133Y6887D01*
X12137Y6883D01*
X12138Y6882D01*
X12139Y6881D01*
X12144Y6879D01*
X12149Y6876D01*
X12150Y6875D01*
X12151Y6875D01*
X12157Y6873D01*
X12162Y6872D01*
X12163Y6872D01*
X12165Y6871D01*
X12173Y6871D01*
X12743Y6871D01*
X12748Y6871D01*
X12753Y6872D01*
X12755Y6872D01*
X12756Y6872D01*
X12761Y6874D01*
X12766Y6876D01*
X12768Y6876D01*
X12769Y6877D01*
X12773Y6880D01*
X12778Y6883D01*
X12780Y6884D01*
X12781Y6885D01*
X12784Y6888D01*
X12996Y7100D01*
X13000Y7104D01*
X13003Y7108D01*
X13004Y7109D01*
X13005Y7111D01*
X13007Y7115D01*
X13010Y7120D01*
X13010Y7122D01*
X13011Y7123D01*
X13012Y7128D01*
X13013Y7133D01*
X13013Y7135D01*
X13013Y7136D01*
X13013Y7138D01*
X13014Y7142D01*
X13014Y7440D01*
X13108Y7534D01*
X13269Y7534D01*
X13273Y7535D01*
X13277Y7535D01*
X13280Y7536D01*
X13283Y7536D01*
X13286Y7537D01*
X13290Y7538D01*
X13293Y7540D01*
X13295Y7541D01*
X13299Y7543D01*
X13302Y7545D01*
X13304Y7546D01*
X13307Y7548D01*
X13310Y7551D01*
X13313Y7554D01*
X13314Y7556D01*
X13316Y7558D01*
X13318Y7561D01*
X13321Y7565D01*
X13322Y7567D01*
X13323Y7570D01*
X13324Y7573D01*
X13326Y7577D01*
X13326Y7580D01*
X13327Y7583D01*
X13327Y7587D01*
X13328Y7591D01*
X13328Y7593D01*
X13328Y7596D01*
X13328Y7600D01*
X13327Y7604D01*
X13326Y7607D01*
X13326Y7610D01*
X13324Y7613D01*
X13323Y7617D01*
X13322Y7620D01*
X13321Y7622D01*
X13318Y7626D01*
X13316Y7629D01*
X13314Y7632D01*
X13313Y7633D01*
X13312Y7634D01*
X13311Y7636D01*
X13278Y7668D01*
X13229Y7786D01*
X13229Y7914D01*
X13278Y8032D01*
X13368Y8122D01*
X13486Y8171D01*
X13864Y8171D01*
X13865Y8171D01*
X13866Y8171D01*
X13872Y8172D01*
X13877Y8172D01*
X13879Y8173D01*
X13880Y8173D01*
X13885Y8175D01*
X13890Y8177D01*
X13891Y8178D01*
X13893Y8178D01*
X13897Y8181D01*
X13902Y8184D01*
X13903Y8185D01*
X13904Y8186D01*
X13907Y8190D01*
X13911Y8194D01*
X13912Y8195D01*
X13913Y8196D01*
X13915Y8201D01*
X13918Y8206D01*
X13918Y8207D01*
X13919Y8208D01*
X13920Y8214D01*
X13922Y8219D01*
X13922Y8220D01*
X13923Y8222D01*
X13923Y8230D01*
X13923Y8271D01*
X14017Y8365D01*
X14780Y8365D01*
X14875Y8271D01*
X14875Y7429D01*
X14780Y7335D01*
X14017Y7335D01*
X13987Y7365D01*
X13984Y7367D01*
X13981Y7370D01*
X13979Y7371D01*
X13977Y7373D01*
X13973Y7375D01*
X13970Y7377D01*
X13967Y7378D01*
X13964Y7379D01*
X13960Y7380D01*
X13957Y7381D01*
X13954Y7381D01*
X13951Y7382D01*
X13947Y7382D01*
X13943Y7382D01*
X13940Y7382D01*
X13937Y7382D01*
X13934Y7380D01*
X13930Y7380D01*
X13927Y7379D01*
X13924Y7378D01*
X13921Y7376D01*
X13917Y7375D01*
X13915Y7373D01*
X13912Y7372D01*
X13909Y7369D01*
X13906Y7367D01*
X13904Y7365D01*
X13902Y7363D01*
X13900Y7360D01*
X13897Y7356D01*
X13896Y7354D01*
X13894Y7352D01*
X13892Y7348D01*
X13890Y7344D01*
X13890Y7342D01*
X13889Y7339D01*
X13888Y7335D01*
X13887Y7331D01*
X13887Y7327D01*
X13886Y7326D01*
X13886Y7325D01*
X13886Y7323D01*
X13886Y7008D01*
X13887Y7005D01*
X13887Y7002D01*
X13887Y6998D01*
X13888Y6994D01*
X13889Y6991D01*
X13890Y6989D01*
X13891Y6985D01*
X13893Y6981D01*
X13894Y6979D01*
X13895Y6976D01*
X13900Y6970D01*
X13900Y6969D01*
X14436Y6336D01*
X14437Y6335D01*
X14442Y6331D01*
X14446Y6327D01*
X14447Y6326D01*
X14448Y6326D01*
X14453Y6323D01*
X14458Y6320D01*
X14459Y6320D01*
X14460Y6319D01*
X14465Y6318D01*
X14471Y6316D01*
X14472Y6316D01*
X14473Y6316D01*
X14481Y6315D01*
X14780Y6315D01*
X14875Y6221D01*
X14875Y5379D01*
X14780Y5285D01*
X14017Y5285D01*
X13987Y5315D01*
X13984Y5317D01*
X13981Y5320D01*
X13979Y5321D01*
X13977Y5323D01*
X13973Y5325D01*
X13970Y5327D01*
X13967Y5328D01*
X13964Y5329D01*
X13960Y5330D01*
X13957Y5331D01*
X13954Y5331D01*
X13951Y5332D01*
X13947Y5332D01*
X13943Y5332D01*
X13940Y5332D01*
X13937Y5332D01*
X13934Y5330D01*
X13930Y5330D01*
X13927Y5329D01*
X13924Y5328D01*
X13921Y5326D01*
X13917Y5325D01*
X13915Y5323D01*
X13912Y5322D01*
X13909Y5319D01*
X13906Y5317D01*
X13904Y5315D01*
X13902Y5313D01*
X13900Y5310D01*
X13897Y5306D01*
X13896Y5304D01*
X13894Y5302D01*
X13892Y5298D01*
X13890Y5294D01*
X13890Y5292D01*
X13889Y5289D01*
X13888Y5285D01*
X13887Y5281D01*
X13887Y5277D01*
X13886Y5276D01*
X13886Y5275D01*
X13886Y5273D01*
X13886Y5260D01*
X13879Y5253D01*
X13878Y5252D01*
X13877Y5251D01*
X13874Y5246D01*
X13871Y5242D01*
X13870Y5241D01*
X13869Y5240D01*
X13867Y5234D01*
X13865Y5229D01*
X13865Y5228D01*
X13864Y5227D01*
X13863Y5222D01*
X13862Y5216D01*
X13862Y5215D01*
X13862Y5214D01*
X13862Y5208D01*
X13862Y5203D01*
X13863Y5201D01*
X13863Y5200D01*
X13864Y5195D01*
X13865Y5192D01*
X13865Y4420D01*
X13771Y4325D01*
X13018Y4325D01*
X13014Y4325D01*
X13011Y4325D01*
X13008Y4324D01*
X13004Y4324D01*
X13001Y4323D01*
X12998Y4322D01*
X12992Y4320D01*
X12991Y4319D01*
X12990Y4319D01*
X12835Y4237D01*
X12832Y4236D01*
X12829Y4234D01*
X12826Y4232D01*
X12824Y4230D01*
X12821Y4227D01*
X12819Y4225D01*
X12817Y4222D01*
X12814Y4220D01*
X12813Y4217D01*
X12811Y4214D01*
X12809Y4211D01*
X12808Y4208D01*
X12807Y4205D01*
X12805Y4201D01*
X12805Y4198D01*
X12804Y4195D01*
X12804Y4191D01*
X12803Y4188D01*
X12803Y4185D01*
X12803Y4181D01*
X12804Y4178D01*
X12804Y4174D01*
X12805Y4171D01*
X12806Y4168D01*
X12807Y4165D01*
X12808Y4161D01*
X12810Y4158D01*
X12811Y4155D01*
X12813Y4152D01*
X12815Y4149D01*
X12816Y4148D01*
X12816Y4120D01*
X12817Y4116D01*
X12817Y4112D01*
X12818Y4109D01*
X12818Y4106D01*
X12819Y4103D01*
X12820Y4099D01*
X12822Y4096D01*
X12822Y4094D01*
X12825Y4090D01*
X12827Y4086D01*
X12828Y4084D01*
X12830Y4082D01*
X12833Y4079D01*
X12835Y4076D01*
X12838Y4075D01*
X12840Y4073D01*
X12843Y4071D01*
X12847Y4068D01*
X12849Y4067D01*
X12851Y4066D01*
X12855Y4065D01*
X12859Y4063D01*
X12862Y4062D01*
X12865Y4062D01*
X12869Y4061D01*
X12873Y4061D01*
X12875Y4061D01*
X12878Y4061D01*
X12882Y4061D01*
X12886Y4062D01*
X12889Y4062D01*
X12892Y4063D01*
X12895Y4064D01*
X12899Y4066D01*
X12902Y4067D01*
X12904Y4068D01*
X12908Y4070D01*
X12911Y4072D01*
X12914Y4075D01*
X12915Y4076D01*
X12916Y4077D01*
X12917Y4078D01*
X12934Y4094D01*
X12957Y4108D01*
X12982Y4115D01*
X13231Y4115D01*
X13231Y3759D01*
X13231Y3758D01*
X13231Y3756D01*
X13232Y3751D01*
X13232Y3745D01*
X13233Y3744D01*
X13233Y3743D01*
X13235Y3738D01*
X13237Y3732D01*
X13238Y3731D01*
X13238Y3730D01*
X13241Y3726D01*
X13244Y3721D01*
X13245Y3720D01*
X13246Y3719D01*
X13250Y3715D01*
X13254Y3712D01*
X13255Y3711D01*
X13256Y3710D01*
X13261Y3707D01*
X13266Y3705D01*
X13267Y3704D01*
X13268Y3704D01*
X13274Y3702D01*
X13279Y3701D01*
X13280Y3701D01*
X13282Y3700D01*
X13290Y3700D01*
X13351Y3700D01*
X13351Y3698D01*
X13290Y3698D01*
X13289Y3698D01*
X13287Y3698D01*
X13282Y3697D01*
X13276Y3696D01*
X13275Y3696D01*
X13274Y3696D01*
X13269Y3694D01*
X13264Y3692D01*
X13263Y3691D01*
X13261Y3691D01*
X13257Y3687D01*
X13252Y3684D01*
X13251Y3683D01*
X13250Y3683D01*
X13247Y3679D01*
X13243Y3675D01*
X13242Y3673D01*
X13241Y3672D01*
X13239Y3668D01*
X13236Y3663D01*
X13235Y3662D01*
X13235Y3660D01*
X13233Y3655D01*
X13232Y3650D01*
X13232Y3649D01*
X13231Y3647D01*
X13231Y3639D01*
X13231Y3283D01*
X12982Y3283D01*
X12957Y3290D01*
X12934Y3303D01*
X12915Y3322D01*
X12902Y3345D01*
X12894Y3375D01*
X12893Y3378D01*
X12892Y3381D01*
X12890Y3385D01*
X12889Y3388D01*
X12887Y3391D01*
X12885Y3393D01*
X12883Y3396D01*
X12881Y3399D01*
X12879Y3401D01*
X12876Y3404D01*
X12873Y3406D01*
X12871Y3408D01*
X12868Y3410D01*
X12865Y3412D01*
X12862Y3413D01*
X12859Y3415D01*
X12856Y3416D01*
X12853Y3417D01*
X12849Y3417D01*
X12846Y3418D01*
X12842Y3419D01*
X12839Y3419D01*
X12836Y3419D01*
X12832Y3419D01*
X12829Y3418D01*
X12826Y3418D01*
X12822Y3417D01*
X12819Y3416D01*
X12816Y3415D01*
X12813Y3414D01*
X12810Y3412D01*
X12806Y3411D01*
X12804Y3409D01*
X12801Y3407D01*
X12796Y3403D01*
X12795Y3403D01*
X12795Y3402D01*
X12722Y3329D01*
X11943Y3329D01*
X11942Y3329D01*
X11936Y3329D01*
X11929Y3328D01*
X11928Y3328D01*
X11922Y3325D01*
X11916Y3323D01*
X11915Y3323D01*
X11910Y3319D01*
X11905Y3316D01*
X11905Y3315D01*
X11904Y3315D01*
X11898Y3309D01*
X11064Y2354D01*
X11062Y2351D01*
X11059Y2349D01*
X11058Y2346D01*
X11056Y2343D01*
X11055Y2340D01*
X11053Y2337D01*
X11052Y2333D01*
X11051Y2330D01*
X11050Y2327D01*
X11050Y2323D01*
X11049Y2318D01*
X11049Y2317D01*
X11049Y2316D01*
X11049Y2315D01*
X11049Y1929D01*
X11050Y1924D01*
X11050Y1919D01*
X11050Y1917D01*
X11051Y1916D01*
X11052Y1911D01*
X11054Y1905D01*
X11055Y1904D01*
X11055Y1903D01*
X11058Y1898D01*
X11061Y1894D01*
X11062Y1892D01*
X11063Y1891D01*
X11064Y1890D01*
X11066Y1887D01*
X11616Y1338D01*
X11620Y1335D01*
X11624Y1331D01*
X11625Y1331D01*
X11626Y1330D01*
X11631Y1327D01*
X11636Y1325D01*
X11637Y1324D01*
X11639Y1324D01*
X11644Y1323D01*
X11649Y1321D01*
X11651Y1321D01*
X11652Y1321D01*
X11653Y1321D01*
X11657Y1321D01*
X13770Y1321D01*
X13774Y1321D01*
X13778Y1321D01*
X13781Y1322D01*
X13784Y1322D01*
X13787Y1324D01*
X13791Y1324D01*
X13794Y1326D01*
X13797Y1327D01*
X13800Y1329D01*
X13803Y1331D01*
X13806Y1333D01*
X13808Y1334D01*
X13811Y1337D01*
X13814Y1339D01*
X13815Y1342D01*
X13818Y1344D01*
X13820Y1347D01*
X13822Y1350D01*
X13823Y1353D01*
X13825Y1356D01*
X13826Y1360D01*
X13827Y1363D01*
X13828Y1366D01*
X13829Y1369D01*
X13829Y1373D01*
X13830Y1376D01*
X13829Y1379D01*
X13830Y1383D01*
X13829Y1386D01*
X13829Y1390D01*
X13828Y1393D01*
X13827Y1396D01*
X13826Y1399D01*
X13825Y1403D01*
X13823Y1406D01*
X13822Y1409D01*
X13820Y1412D01*
X13818Y1415D01*
X13816Y1417D01*
X13814Y1420D01*
X13812Y1422D01*
X13809Y1425D01*
X13806Y1427D01*
X13804Y1429D01*
X13801Y1431D01*
X13798Y1433D01*
X13793Y1434D01*
X13792Y1435D01*
X13791Y1435D01*
X13790Y1436D01*
X13692Y1470D01*
X13596Y1517D01*
X13505Y1573D01*
X13422Y1640D01*
X13346Y1715D01*
X13280Y1799D01*
X13223Y1889D01*
X13177Y1986D01*
X13141Y2086D01*
X13118Y2190D01*
X13113Y2231D01*
X13996Y2231D01*
X13998Y2231D01*
X13999Y2231D01*
X14004Y2232D01*
X14010Y2232D01*
X14011Y2233D01*
X14012Y2233D01*
X14017Y2235D01*
X14023Y2237D01*
X14024Y2238D01*
X14025Y2238D01*
X14029Y2241D01*
X14034Y2244D01*
X14035Y2245D01*
X14036Y2246D01*
X14040Y2250D01*
X14044Y2254D01*
X14044Y2255D01*
X14045Y2256D01*
X14048Y2261D01*
X14050Y2266D01*
X14051Y2267D01*
X14051Y2268D01*
X14053Y2274D01*
X14055Y2279D01*
X14055Y2280D01*
X14055Y2282D01*
X14056Y2290D01*
X14056Y2351D01*
X14057Y2351D01*
X14057Y2290D01*
X14057Y2289D01*
X14057Y2287D01*
X14058Y2282D01*
X14059Y2276D01*
X14059Y2275D01*
X14059Y2274D01*
X14061Y2269D01*
X14063Y2264D01*
X14064Y2263D01*
X14064Y2261D01*
X14068Y2257D01*
X14071Y2252D01*
X14072Y2251D01*
X14072Y2250D01*
X14077Y2247D01*
X14081Y2243D01*
X14082Y2242D01*
X14083Y2241D01*
X14088Y2239D01*
X14092Y2236D01*
X14094Y2235D01*
X14095Y2235D01*
X14100Y2233D01*
X14105Y2232D01*
X14107Y2232D01*
X14108Y2231D01*
X14116Y2231D01*
X15000Y2231D01*
X14995Y2190D01*
X14971Y2086D01*
X14936Y1986D01*
X14890Y1889D01*
X14833Y1799D01*
X14766Y1715D01*
X14691Y1640D01*
X14607Y1573D01*
X14517Y1517D01*
X14421Y1470D01*
X14323Y1436D01*
X14319Y1434D01*
X14316Y1433D01*
X14313Y1431D01*
X14310Y1430D01*
X14308Y1428D01*
X14304Y1426D01*
X14302Y1423D01*
X14300Y1421D01*
X14298Y1418D01*
X14295Y1416D01*
X14293Y1413D01*
X14291Y1411D01*
X14290Y1407D01*
X14288Y1404D01*
X14287Y1401D01*
X14286Y1398D01*
X14285Y1395D01*
X14284Y1391D01*
X14284Y1388D01*
X14283Y1385D01*
X14283Y1381D01*
X14283Y1377D01*
X14284Y1374D01*
X14284Y1371D01*
X14285Y1368D01*
X14285Y1364D01*
X14286Y1361D01*
X14287Y1358D01*
X14289Y1355D01*
X14290Y1351D01*
X14292Y1349D01*
X14294Y1346D01*
X14296Y1343D01*
X14298Y1340D01*
X14301Y1338D01*
X14303Y1336D01*
X14306Y1334D01*
X14309Y1331D01*
X14311Y1330D01*
X14314Y1328D01*
X14317Y1327D01*
X14321Y1325D01*
X14324Y1324D01*
X14327Y1323D01*
X14330Y1322D01*
X14334Y1321D01*
X14339Y1321D01*
X14340Y1321D01*
X14341Y1321D01*
X14342Y1321D01*
X14911Y1321D01*
X14916Y1321D01*
X14922Y1322D01*
X14923Y1322D01*
X14925Y1322D01*
X14930Y1324D01*
X14935Y1326D01*
X14936Y1326D01*
X14937Y1327D01*
X14942Y1330D01*
X14947Y1333D01*
X14948Y1334D01*
X14949Y1334D01*
X14950Y1335D01*
X14953Y1338D01*
X15480Y1866D01*
X15481Y1866D01*
X15485Y1871D01*
X15489Y1876D01*
X15489Y1877D01*
X15492Y1883D01*
X15495Y1889D01*
X15496Y1896D01*
X15498Y1902D01*
X15497Y1902D01*
X15498Y1903D01*
X15497Y1909D01*
X15497Y1916D01*
X15495Y1922D01*
X15494Y1929D01*
X15490Y1937D01*
X15477Y1960D01*
X15408Y2217D01*
X15408Y2483D01*
X15477Y2740D01*
X15610Y2971D01*
X15798Y3159D01*
X16028Y3292D01*
X16285Y3361D01*
X16552Y3361D01*
X16809Y3292D01*
X17039Y3159D01*
X17227Y2971D01*
X17360Y2740D01*
X17429Y2483D01*
X17429Y2217D01*
X17360Y1960D01*
X17227Y1729D01*
X17039Y1541D01*
X16809Y1408D01*
X16552Y1339D01*
X16285Y1339D01*
X16028Y1408D01*
X16006Y1421D01*
X16005Y1421D01*
X16005Y1422D01*
X15999Y1424D01*
X15993Y1427D01*
X15992Y1427D01*
X15986Y1428D01*
X15980Y1429D01*
X15979Y1429D01*
X15972Y1429D01*
X15966Y1428D01*
X15965Y1428D01*
X15959Y1426D01*
X15953Y1425D01*
X15953Y1424D01*
X15952Y1424D01*
X15947Y1421D01*
X15941Y1418D01*
X15940Y1417D01*
X15934Y1412D01*
X15349Y827D01*
X15250Y728D01*
X15132Y679D01*
X11436Y679D01*
X11318Y728D01*
X10597Y1449D01*
X10593Y1453D01*
X10589Y1456D01*
X10587Y1457D01*
X10586Y1458D01*
X10581Y1460D01*
X10577Y1463D01*
X10575Y1463D01*
X10574Y1464D01*
X10569Y1465D01*
X10563Y1466D01*
X10562Y1466D01*
X10561Y1467D01*
X10559Y1467D01*
X10555Y1467D01*
X9877Y1467D01*
X9783Y1561D01*
X9783Y2538D01*
X9782Y2540D01*
X9782Y2542D01*
X9782Y2547D01*
X9781Y2552D01*
X9780Y2554D01*
X9780Y2556D01*
X9778Y2560D01*
X9776Y2565D01*
X9775Y2566D01*
X9774Y2568D01*
X9772Y2572D01*
X9769Y2576D01*
X9767Y2577D01*
X9766Y2579D01*
X9763Y2582D01*
X9759Y2585D01*
X9757Y2586D01*
X9756Y2588D01*
X9751Y2590D01*
X9747Y2592D01*
X9745Y2593D01*
X9744Y2594D01*
X9739Y2595D01*
X9734Y2596D01*
X9732Y2597D01*
X9730Y2597D01*
X9725Y2597D01*
X9721Y2597D01*
X9719Y2597D01*
X9717Y2597D01*
X9712Y2596D01*
X9707Y2595D01*
X9705Y2594D01*
X9703Y2594D01*
X9699Y2592D01*
X9695Y2590D01*
X9693Y2589D01*
X9691Y2588D01*
X9687Y2585D01*
X9684Y2582D01*
X9682Y2581D01*
X9681Y2579D01*
X9678Y2575D01*
X9675Y2572D01*
X9674Y2570D01*
X9672Y2568D01*
X9669Y2561D01*
X9622Y2448D01*
X9331Y2158D01*
X9329Y2154D01*
X9326Y2152D01*
X9326Y2151D01*
X9324Y2149D01*
X9324Y2148D01*
X9323Y2147D01*
X9321Y2142D01*
X9319Y2140D01*
X9319Y2139D01*
X9318Y2137D01*
X9318Y2136D01*
X9317Y2135D01*
X9316Y2129D01*
X9315Y2127D01*
X9315Y2124D01*
X9314Y2122D01*
X9314Y2121D01*
X9314Y2120D01*
X9314Y2116D01*
X9314Y1225D01*
X9220Y1131D01*
X8220Y1131D01*
X8126Y1225D01*
X8126Y2775D01*
X8220Y2869D01*
X8221Y2870D01*
X8223Y2869D01*
X8228Y2870D01*
X8234Y2871D01*
X8235Y2871D01*
X8236Y2872D01*
X8241Y2874D01*
X8246Y2876D01*
X8247Y2876D01*
X8249Y2877D01*
X8253Y2880D01*
X8258Y2883D01*
X8259Y2884D01*
X8260Y2885D01*
X8263Y2889D01*
X8267Y2893D01*
X8268Y2894D01*
X8269Y2895D01*
X8271Y2900D01*
X8274Y2905D01*
X8275Y2906D01*
X8275Y2907D01*
X8277Y2912D01*
X8278Y2918D01*
X8278Y2919D01*
X8279Y2920D01*
X8279Y2929D01*
X8279Y3293D01*
X8279Y3298D01*
X8278Y3303D01*
X8278Y3305D01*
X8278Y3306D01*
X8276Y3311D01*
X8274Y3316D01*
X8274Y3318D01*
X8273Y3319D01*
X8270Y3323D01*
X8267Y3328D01*
X8266Y3330D01*
X8265Y3331D01*
X8262Y3334D01*
X7478Y4118D01*
X7429Y4236D01*
X7429Y5620D01*
X7429Y5621D01*
X7429Y5623D01*
X7428Y5628D01*
X7428Y5634D01*
X7427Y5635D01*
X7427Y5636D01*
X7425Y5641D01*
X7423Y5646D01*
X7422Y5647D01*
X7422Y5649D01*
X7419Y5653D01*
X7416Y5658D01*
X7415Y5659D01*
X7414Y5660D01*
X7410Y5663D01*
X7406Y5667D01*
X7405Y5668D01*
X7404Y5669D01*
X7399Y5671D01*
X7394Y5674D01*
X7393Y5675D01*
X7392Y5675D01*
X7386Y5677D01*
X7381Y5678D01*
X7380Y5678D01*
X7378Y5679D01*
X7370Y5679D01*
X5770Y5679D01*
X5769Y5679D01*
X5767Y5679D01*
X5762Y5678D01*
X5756Y5678D01*
X5755Y5677D01*
X5754Y5677D01*
X5749Y5675D01*
X5744Y5673D01*
X5743Y5672D01*
X5741Y5672D01*
X5737Y5669D01*
X5732Y5666D01*
X5731Y5665D01*
X5730Y5664D01*
X5727Y5660D01*
X5723Y5656D01*
X5722Y5655D01*
X5721Y5654D01*
X5719Y5649D01*
X5716Y5644D01*
X5715Y5643D01*
X5715Y5642D01*
X5713Y5636D01*
X5712Y5631D01*
X5712Y5630D01*
X5711Y5628D01*
X5711Y5620D01*
X5711Y5222D01*
X5711Y5221D01*
X5711Y5220D01*
X5712Y5214D01*
X5712Y5209D01*
X5713Y5207D01*
X5713Y5206D01*
X5715Y5201D01*
X5717Y5196D01*
X5718Y5195D01*
X5718Y5193D01*
X5721Y5189D01*
X5724Y5184D01*
X5725Y5183D01*
X5726Y5182D01*
X5730Y5179D01*
X5734Y5175D01*
X5735Y5174D01*
X5736Y5173D01*
X5741Y5171D01*
X5746Y5168D01*
X5747Y5168D01*
X5748Y5167D01*
X5754Y5166D01*
X5759Y5164D01*
X5760Y5164D01*
X5762Y5164D01*
X5766Y5163D01*
X5861Y5069D01*
X5861Y4331D01*
X5767Y4237D01*
X5620Y4237D01*
X5616Y4237D01*
X5612Y4237D01*
X5609Y4236D01*
X5606Y4236D01*
X5603Y4234D01*
X5599Y4233D01*
X5596Y4232D01*
X5594Y4231D01*
X5590Y4229D01*
X5587Y4227D01*
X5584Y4225D01*
X5582Y4223D01*
X5579Y4221D01*
X5576Y4218D01*
X5575Y4216D01*
X5573Y4214D01*
X5571Y4210D01*
X5568Y4207D01*
X5567Y4204D01*
X5566Y4202D01*
X5565Y4198D01*
X5563Y4194D01*
X5563Y4191D01*
X5562Y4189D01*
X5561Y4185D01*
X5561Y4181D01*
X5561Y4178D01*
X5561Y4175D01*
X5561Y4171D01*
X5562Y4167D01*
X5562Y4165D01*
X5563Y4162D01*
X5564Y4158D01*
X5566Y4154D01*
X5567Y4152D01*
X5568Y4149D01*
X5570Y4146D01*
X5572Y4142D01*
X5575Y4139D01*
X5576Y4138D01*
X5577Y4137D01*
X5578Y4136D01*
X5617Y4097D01*
X5617Y3780D01*
X5618Y3779D01*
X5617Y3777D01*
X5618Y3772D01*
X5619Y3766D01*
X5619Y3765D01*
X5620Y3764D01*
X5622Y3759D01*
X5624Y3754D01*
X5624Y3753D01*
X5625Y3751D01*
X5628Y3747D01*
X5631Y3742D01*
X5632Y3741D01*
X5633Y3740D01*
X5637Y3737D01*
X5641Y3733D01*
X5642Y3732D01*
X5643Y3731D01*
X5648Y3729D01*
X5653Y3726D01*
X5654Y3725D01*
X5655Y3725D01*
X5660Y3723D01*
X5666Y3722D01*
X5667Y3722D01*
X5668Y3721D01*
X5677Y3721D01*
X5854Y3721D01*
X5972Y3672D01*
X6316Y3328D01*
X6320Y3325D01*
X6324Y3321D01*
X6325Y3321D01*
X6326Y3320D01*
X6331Y3317D01*
X6336Y3315D01*
X6337Y3314D01*
X6339Y3314D01*
X6344Y3313D01*
X6349Y3311D01*
X6351Y3311D01*
X6352Y3311D01*
X6353Y3311D01*
X6357Y3311D01*
X6787Y3311D01*
X6849Y3248D01*
X6853Y3245D01*
X6857Y3241D01*
X6859Y3241D01*
X6860Y3240D01*
X6865Y3237D01*
X6870Y3235D01*
X6871Y3234D01*
X6872Y3234D01*
X6878Y3233D01*
X6883Y3231D01*
X6885Y3231D01*
X6886Y3231D01*
X6887Y3231D01*
X6891Y3231D01*
X7154Y3231D01*
X7272Y3182D01*
X7522Y2932D01*
X7571Y2814D01*
X7571Y1286D01*
X7522Y1168D01*
X7172Y818D01*
X7054Y769D01*
X6891Y769D01*
X6886Y769D01*
X6880Y768D01*
X6879Y768D01*
X6878Y768D01*
X6873Y766D01*
X6867Y764D01*
X6866Y764D01*
X6865Y763D01*
X6860Y760D01*
X6856Y757D01*
X6854Y756D01*
X6853Y756D01*
X6852Y755D01*
X6849Y752D01*
X6787Y689D01*
X5773Y689D01*
X5679Y783D01*
X5679Y1397D01*
X5786Y1503D01*
X5787Y1504D01*
X5788Y1505D01*
X5791Y1509D01*
X5794Y1514D01*
X5795Y1515D01*
X5796Y1516D01*
X5798Y1521D01*
X5800Y1526D01*
X5800Y1527D01*
X5801Y1529D01*
X5802Y1534D01*
X5803Y1539D01*
X5803Y1541D01*
X5803Y1542D01*
X5803Y1548D01*
X5803Y1553D01*
X5802Y1554D01*
X5802Y1556D01*
X5801Y1561D01*
X5799Y1566D01*
X5799Y1567D01*
X5798Y1569D01*
X5795Y1573D01*
X5793Y1578D01*
X5792Y1579D01*
X5791Y1581D01*
X5786Y1587D01*
X5677Y1696D01*
X5675Y1701D01*
X5673Y1706D01*
X5672Y1707D01*
X5672Y1709D01*
X5669Y1713D01*
X5666Y1718D01*
X5665Y1719D01*
X5664Y1720D01*
X5660Y1723D01*
X5656Y1727D01*
X5655Y1728D01*
X5654Y1729D01*
X5649Y1731D01*
X5644Y1734D01*
X5643Y1735D01*
X5642Y1735D01*
X5636Y1737D01*
X5631Y1738D01*
X5630Y1738D01*
X5628Y1739D01*
X5620Y1739D01*
X5595Y1739D01*
X5593Y1739D01*
X5592Y1739D01*
X5587Y1738D01*
X5581Y1738D01*
X5580Y1737D01*
X5579Y1737D01*
X5574Y1735D01*
X5568Y1733D01*
X5567Y1732D01*
X5566Y1732D01*
X5562Y1729D01*
X5557Y1726D01*
X5556Y1725D01*
X5555Y1724D01*
X5551Y1720D01*
X5548Y1716D01*
X5547Y1715D01*
X5546Y1714D01*
X5543Y1709D01*
X5541Y1704D01*
X5540Y1703D01*
X5540Y1702D01*
X5538Y1696D01*
X5537Y1691D01*
X5536Y1690D01*
X5536Y1688D01*
X5536Y1680D01*
X5536Y1578D01*
X5494Y1537D01*
X5494Y1536D01*
X5493Y1535D01*
X5489Y1531D01*
X5486Y1527D01*
X5485Y1525D01*
X5485Y1524D01*
X5482Y1519D01*
X5480Y1514D01*
X5480Y1513D01*
X5479Y1512D01*
X5478Y1506D01*
X5477Y1501D01*
X5477Y1500D01*
X5477Y1498D01*
X5477Y1493D01*
X5478Y1487D01*
X5478Y1486D01*
X5478Y1485D01*
X5480Y1479D01*
X5481Y1474D01*
X5482Y1473D01*
X5482Y1472D01*
X5485Y1467D01*
X5487Y1462D01*
X5488Y1461D01*
X5489Y1460D01*
X5494Y1453D01*
X5527Y1421D01*
X5527Y579D01*
X5433Y485D01*
X4670Y485D01*
X4575Y579D01*
X4575Y1421D01*
X4617Y1462D01*
X4618Y1463D01*
X4618Y1464D01*
X4622Y1469D01*
X4625Y1473D01*
X4626Y1474D01*
X4626Y1475D01*
X4629Y1480D01*
X4631Y1485D01*
X4631Y1486D01*
X4632Y1488D01*
X4633Y1493D01*
X4634Y1499D01*
X4634Y1500D01*
X4634Y1501D01*
X4634Y1507D01*
X4633Y1512D01*
X4633Y1513D01*
X4633Y1515D01*
X4631Y1520D01*
X4630Y1525D01*
X4629Y1527D01*
X4629Y1528D01*
X4626Y1533D01*
X4624Y1537D01*
X4623Y1538D01*
X4622Y1540D01*
X4617Y1546D01*
X4584Y1578D01*
X4584Y2422D01*
X4685Y2522D01*
X4686Y2523D01*
X4687Y2524D01*
X4690Y2529D01*
X4693Y2533D01*
X4694Y2534D01*
X4695Y2535D01*
X4697Y2540D01*
X4699Y2545D01*
X4699Y2546D01*
X4700Y2548D01*
X4701Y2553D01*
X4702Y2559D01*
X4702Y2560D01*
X4702Y2561D01*
X4702Y2567D01*
X4702Y2572D01*
X4701Y2573D01*
X4701Y2575D01*
X4700Y2580D01*
X4698Y2585D01*
X4698Y2587D01*
X4697Y2588D01*
X4694Y2593D01*
X4692Y2597D01*
X4691Y2598D01*
X4690Y2600D01*
X4685Y2606D01*
X4587Y2703D01*
X4587Y4097D01*
X4652Y4161D01*
X4654Y4164D01*
X4657Y4167D01*
X4658Y4169D01*
X4660Y4172D01*
X4662Y4175D01*
X4664Y4179D01*
X4665Y4181D01*
X4666Y4184D01*
X4667Y4188D01*
X4668Y4192D01*
X4668Y4195D01*
X4669Y4197D01*
X4669Y4201D01*
X4669Y4205D01*
X4669Y4208D01*
X4669Y4211D01*
X4667Y4215D01*
X4667Y4219D01*
X4666Y4221D01*
X4665Y4224D01*
X4663Y4228D01*
X4662Y4232D01*
X4660Y4234D01*
X4659Y4236D01*
X4656Y4239D01*
X4654Y4243D01*
X4652Y4244D01*
X4650Y4247D01*
X4647Y4249D01*
X4643Y4252D01*
X4641Y4253D01*
X4639Y4255D01*
X4635Y4256D01*
X4631Y4258D01*
X4629Y4259D01*
X4626Y4260D01*
X4622Y4260D01*
X4618Y4261D01*
X4614Y4262D01*
X4613Y4262D01*
X4612Y4262D01*
X4610Y4262D01*
X4355Y4262D01*
X4350Y4261D01*
X4345Y4261D01*
X4343Y4261D01*
X4342Y4261D01*
X4337Y4259D01*
X4332Y4257D01*
X4330Y4256D01*
X4329Y4256D01*
X4325Y4253D01*
X4320Y4250D01*
X4318Y4249D01*
X4318Y4248D01*
X4317Y4247D01*
X4313Y4245D01*
X4228Y4159D01*
X4225Y4155D01*
X4221Y4151D01*
X4221Y4150D01*
X4220Y4149D01*
X4217Y4144D01*
X4215Y4139D01*
X4214Y4138D01*
X4214Y4136D01*
X4213Y4131D01*
X4211Y4126D01*
X4211Y4124D01*
X4211Y4123D01*
X4211Y4122D01*
X4211Y4117D01*
X4211Y2575D01*
X4211Y2574D01*
X4211Y2572D01*
X4212Y2567D01*
X4212Y2561D01*
X4213Y2560D01*
X4213Y2559D01*
X4215Y2554D01*
X4217Y2549D01*
X4218Y2547D01*
X4218Y2546D01*
X4221Y2542D01*
X4224Y2537D01*
X4225Y2536D01*
X4226Y2535D01*
X4230Y2531D01*
X4234Y2528D01*
X4235Y2527D01*
X4236Y2526D01*
X4241Y2524D01*
X4246Y2521D01*
X4247Y2520D01*
X4248Y2520D01*
X4254Y2518D01*
X4259Y2517D01*
X4260Y2517D01*
X4262Y2516D01*
X4270Y2516D01*
X4322Y2516D01*
X4416Y2422D01*
X4416Y1578D01*
X4383Y1546D01*
X4382Y1545D01*
X4382Y1544D01*
X4378Y1540D01*
X4375Y1535D01*
X4374Y1534D01*
X4374Y1533D01*
X4371Y1528D01*
X4369Y1523D01*
X4369Y1522D01*
X4368Y1520D01*
X4367Y1515D01*
X4366Y1510D01*
X4366Y1508D01*
X4366Y1507D01*
X4366Y1501D01*
X4367Y1496D01*
X4367Y1495D01*
X4367Y1493D01*
X4369Y1488D01*
X4370Y1483D01*
X4371Y1482D01*
X4371Y1480D01*
X4374Y1476D01*
X4376Y1471D01*
X4377Y1470D01*
X4378Y1469D01*
X4383Y1462D01*
X4425Y1421D01*
X4425Y579D01*
X4330Y485D01*
X3827Y485D01*
X3822Y484D01*
X3816Y484D01*
X3815Y484D01*
X3813Y483D01*
X3808Y482D01*
X3803Y480D01*
X3802Y479D01*
X3801Y479D01*
X3796Y476D01*
X3792Y473D01*
X3790Y472D01*
X3789Y471D01*
X3788Y470D01*
X3785Y468D01*
X3647Y329D01*
X3551Y289D01*
X1698Y289D01*
G37*
%LPD*%
%LPC*%
G36*
X13113Y2469D02*
X13113Y2469D01*
X13118Y2510D01*
X13141Y2614D01*
X13177Y2714D01*
X13223Y2811D01*
X13280Y2901D01*
X13346Y2985D01*
X13422Y3060D01*
X13505Y3127D01*
X13580Y3174D01*
X13583Y3176D01*
X13586Y3178D01*
X13589Y3180D01*
X13591Y3182D01*
X13593Y3185D01*
X13596Y3188D01*
X13597Y3191D01*
X13599Y3193D01*
X13601Y3196D01*
X13603Y3200D01*
X13604Y3203D01*
X13605Y3205D01*
X13606Y3209D01*
X13607Y3213D01*
X13607Y3216D01*
X13608Y3219D01*
X13608Y3223D01*
X13608Y3226D01*
X13607Y3229D01*
X13607Y3232D01*
X13606Y3236D01*
X13606Y3240D01*
X13605Y3243D01*
X13604Y3246D01*
X13602Y3249D01*
X13600Y3253D01*
X13599Y3255D01*
X13597Y3258D01*
X13595Y3260D01*
X13593Y3264D01*
X13590Y3266D01*
X13588Y3268D01*
X13585Y3270D01*
X13582Y3273D01*
X13580Y3274D01*
X13577Y3276D01*
X13574Y3277D01*
X13570Y3279D01*
X13567Y3280D01*
X13565Y3281D01*
X13561Y3282D01*
X13557Y3283D01*
X13553Y3283D01*
X13551Y3283D01*
X13550Y3283D01*
X13549Y3283D01*
X13469Y3283D01*
X13469Y3580D01*
X13805Y3580D01*
X13805Y3371D01*
X13801Y3356D01*
X13801Y3354D01*
X13800Y3352D01*
X13800Y3347D01*
X13799Y3343D01*
X13799Y3341D01*
X13799Y3339D01*
X13800Y3334D01*
X13800Y3329D01*
X13801Y3327D01*
X13801Y3325D01*
X13803Y3321D01*
X13805Y3316D01*
X13806Y3314D01*
X13806Y3312D01*
X13809Y3309D01*
X13812Y3304D01*
X13813Y3303D01*
X13814Y3301D01*
X13818Y3298D01*
X13821Y3295D01*
X13823Y3294D01*
X13824Y3292D01*
X13829Y3290D01*
X13833Y3287D01*
X13835Y3287D01*
X13836Y3286D01*
X13841Y3285D01*
X13846Y3283D01*
X13848Y3283D01*
X13850Y3282D01*
X13854Y3282D01*
X13859Y3282D01*
X13861Y3282D01*
X13863Y3282D01*
X13872Y3283D01*
X13897Y3289D01*
X13937Y3293D01*
X13937Y2469D01*
X13113Y2469D01*
G37*
%LPD*%
%LPC*%
G36*
X14176Y2469D02*
X14176Y2469D01*
X14176Y3293D01*
X14216Y3289D01*
X14320Y3265D01*
X14421Y3230D01*
X14517Y3183D01*
X14607Y3127D01*
X14691Y3060D01*
X14766Y2985D01*
X14833Y2901D01*
X14890Y2811D01*
X14936Y2714D01*
X14971Y2614D01*
X14995Y2510D01*
X15000Y2469D01*
X14176Y2469D01*
G37*
%LPD*%
%LPC*%
G36*
X15977Y8439D02*
X15977Y8439D01*
X15961Y8444D01*
X15956Y8444D01*
X15951Y8445D01*
X15949Y8445D01*
X15947Y8446D01*
X15942Y8445D01*
X15937Y8445D01*
X15935Y8445D01*
X15934Y8448D01*
X15932Y8450D01*
X15931Y8453D01*
X15929Y8456D01*
X15927Y8460D01*
X15924Y8463D01*
X15923Y8464D01*
X15923Y8465D01*
X15921Y8466D01*
X15909Y8478D01*
X15896Y8501D01*
X15889Y8527D01*
X15889Y8871D01*
X16871Y8871D01*
X16871Y8439D01*
X15977Y8439D01*
G37*
%LPD*%
%LPC*%
G36*
X1129Y6859D02*
X1129Y6859D01*
X1129Y7291D01*
X2023Y7291D01*
X2049Y7284D01*
X2072Y7271D01*
X2091Y7252D01*
X2104Y7229D01*
X2111Y7203D01*
X2111Y6859D01*
X1129Y6859D01*
G37*
%LPD*%
%LPC*%
G36*
X1129Y3379D02*
X1129Y3379D01*
X1129Y3811D01*
X2023Y3811D01*
X2049Y3804D01*
X2072Y3791D01*
X2091Y3772D01*
X2104Y3749D01*
X2111Y3723D01*
X2111Y3379D01*
X1129Y3379D01*
G37*
%LPD*%
%LPC*%
G36*
X15889Y9109D02*
X15889Y9109D01*
X15889Y9453D01*
X15896Y9479D01*
X15909Y9502D01*
X15928Y9521D01*
X15951Y9534D01*
X15977Y9541D01*
X16871Y9541D01*
X16871Y9109D01*
X15889Y9109D01*
G37*
%LPD*%
%LPC*%
G36*
X1129Y6189D02*
X1129Y6189D01*
X1129Y6621D01*
X2111Y6621D01*
X2111Y6277D01*
X2104Y6251D01*
X2091Y6228D01*
X2072Y6209D01*
X2049Y6196D01*
X2023Y6189D01*
X1129Y6189D01*
G37*
%LPD*%
%LPC*%
G36*
X1129Y2709D02*
X1129Y2709D01*
X1129Y3141D01*
X2111Y3141D01*
X2111Y2797D01*
X2104Y2771D01*
X2091Y2748D01*
X2072Y2729D01*
X2049Y2716D01*
X2023Y2709D01*
X1129Y2709D01*
G37*
%LPD*%
%LPC*%
G36*
X11811Y2219D02*
X11811Y2219D01*
X11811Y2586D01*
X11818Y2611D01*
X11831Y2634D01*
X11850Y2653D01*
X11873Y2666D01*
X11899Y2673D01*
X12265Y2673D01*
X12265Y2219D01*
X11811Y2219D01*
G37*
%LPD*%
%LPC*%
G36*
X12503Y2219D02*
X12503Y2219D01*
X12503Y2673D01*
X12870Y2673D01*
X12896Y2666D01*
X12919Y2653D01*
X12937Y2634D01*
X12951Y2611D01*
X12957Y2586D01*
X12957Y2219D01*
X12503Y2219D01*
G37*
%LPD*%
%LPC*%
G36*
X12503Y1527D02*
X12503Y1527D01*
X12503Y1981D01*
X12957Y1981D01*
X12957Y1614D01*
X12951Y1589D01*
X12937Y1566D01*
X12919Y1547D01*
X12896Y1534D01*
X12870Y1527D01*
X12503Y1527D01*
G37*
%LPD*%
%LPC*%
G36*
X11899Y1527D02*
X11899Y1527D01*
X11873Y1534D01*
X11850Y1547D01*
X11831Y1566D01*
X11818Y1589D01*
X11811Y1614D01*
X11811Y1981D01*
X12265Y1981D01*
X12265Y1527D01*
X11899Y1527D01*
G37*
%LPD*%
%LPC*%
G36*
X15173Y5345D02*
X15173Y5345D01*
X15147Y5352D01*
X15124Y5365D01*
X15106Y5384D01*
X15092Y5407D01*
X15085Y5432D01*
X15085Y5681D01*
X15382Y5681D01*
X15382Y5345D01*
X15173Y5345D01*
G37*
%LPD*%
%LPC*%
G36*
X13469Y3818D02*
X13469Y3818D01*
X13469Y4115D01*
X13718Y4115D01*
X13743Y4108D01*
X13766Y4094D01*
X13785Y4076D01*
X13798Y4053D01*
X13805Y4027D01*
X13805Y3818D01*
X13469Y3818D01*
G37*
%LPD*%
%LPC*%
G36*
X15085Y5919D02*
X15085Y5919D01*
X15085Y6168D01*
X15092Y6193D01*
X15106Y6216D01*
X15124Y6235D01*
X15147Y6248D01*
X15173Y6255D01*
X15382Y6255D01*
X15382Y5919D01*
X15085Y5919D01*
G37*
%LPD*%
%LPC*%
G36*
X3027Y1164D02*
X3027Y1164D01*
X3027Y1354D01*
X3208Y1354D01*
X3234Y1347D01*
X3257Y1334D01*
X3275Y1315D01*
X3289Y1292D01*
X3296Y1266D01*
X3296Y1164D01*
X3027Y1164D01*
G37*
%LPD*%
%LPC*%
G36*
X2582Y1164D02*
X2582Y1164D01*
X2582Y1266D01*
X2589Y1292D01*
X2602Y1315D01*
X2621Y1334D01*
X2644Y1347D01*
X2670Y1354D01*
X2851Y1354D01*
X2851Y1164D01*
X2582Y1164D01*
G37*
%LPD*%
%LPC*%
G36*
X12383Y2099D02*
X12383Y2099D01*
X12383Y2101D01*
X12385Y2101D01*
X12385Y2099D01*
X12383Y2099D01*
G37*
%LPD*%
D10*
X1010Y5000D03*
X1010Y6740D03*
X1010Y3260D03*
D11*
X13350Y3699D03*
X13350Y4801D03*
D12*
X10416Y2100D03*
X12384Y2100D03*
D13*
X15501Y5800D03*
X14399Y5800D03*
X14399Y7850D03*
X15501Y7850D03*
X3949Y1000D03*
X5051Y1000D03*
D14*
X13450Y7098D03*
X13450Y5602D03*
D15*
X14056Y2350D03*
X16419Y2350D03*
X15237Y4200D03*
D16*
X11431Y7850D03*
X9469Y7850D03*
D17*
X3598Y7250D03*
X7102Y7250D03*
D18*
X6280Y2910D03*
X6280Y2000D03*
X6280Y1090D03*
D19*
X8720Y2000D03*
D20*
X9350Y4560D03*
X9350Y3440D03*
D21*
X1620Y1450D03*
D22*
X2939Y1076D03*
X2939Y1824D03*
D23*
X5060Y2000D03*
X3940Y2000D03*
D24*
X5102Y3400D03*
X2898Y3400D03*
D10*
X16990Y7250D03*
X16990Y5510D03*
X16990Y8990D03*
D25*
X5450Y4523D03*
X5450Y4877D03*
D26*
X11750Y3785D03*
X11750Y5715D03*
D27*
X16419Y2350D02*
X15069Y1000D01*
X11500Y1000D01*
X10416Y2084D01*
X10416Y2100D01*
X11800Y3684D01*
X11750Y3785D01*
D28*
X12649Y4435D01*
X13350Y4801D01*
D27*
X12313Y5602D02*
X11750Y5715D01*
X12313Y5602D02*
X13450Y5602D01*
X15501Y7850D02*
X16990Y7250D01*
D29*
X13550Y7850D03*
X7750Y6250D03*
D27*
X13550Y7850D02*
X14399Y7850D01*
X9350Y3440D02*
X9350Y2630D01*
X8720Y2000D01*
X7750Y4300D02*
X7750Y6250D01*
X7750Y4300D02*
X8600Y3450D01*
X8600Y2120D01*
X8720Y2000D01*
X7500Y6000D02*
X7750Y6250D01*
X7500Y6000D02*
X5450Y6000D01*
X4848Y6000D01*
X3598Y7250D01*
D28*
X5450Y5000D02*
X5450Y4877D01*
X5450Y5000D02*
X5450Y5102D01*
X5450Y6000D01*
D27*
X9469Y4679D02*
X9469Y7850D01*
X9469Y4679D02*
X9350Y4560D01*
X8869Y7250D02*
X7102Y7250D01*
X8869Y7250D02*
X9469Y7850D01*
D28*
X13450Y7098D02*
X14548Y5800D01*
X14399Y5800D01*
D27*
X13450Y7098D02*
X13448Y7098D01*
X12900Y6550D01*
X12000Y6550D01*
X11431Y7119D01*
X11431Y7850D01*
X6280Y2910D02*
X5790Y3400D01*
X5102Y3400D01*
X6280Y2910D02*
X7090Y2910D01*
X7250Y2750D01*
X7250Y1350D01*
X6990Y1090D02*
X6280Y1090D01*
X6990Y1090D02*
X7250Y1350D01*
D28*
X6280Y2000D02*
X5060Y2000D01*
X5060Y1009D01*
X5051Y1000D01*
X1620Y680D02*
X1620Y1450D01*
X1620Y680D02*
X1750Y550D01*
X3499Y550D01*
X3949Y1000D01*
D29*
X3000Y5000D03*
D27*
X1010Y5000D01*
X2898Y3400D02*
X3000Y3502D01*
X3000Y5000D01*
D28*
X3950Y2010D02*
X3940Y2000D01*
X3125Y2010D02*
X2939Y1824D01*
X3125Y2010D02*
X3950Y2010D01*
X4223Y4523D02*
X5450Y4523D01*
X4223Y4523D02*
X3950Y4250D01*
X3950Y2010D01*
M02*
