G04 EAGLE Gerber X2 export*
G75*
%MOIN*%
%FSLAX34Y34*%
%LPD*%
%AMOC8*
5,1,8,0,0,1.08239X$1,22.5*%
G01*
%ADD10R,0.204000X0.094000*%
%ADD11R,0.074866X0.066992*%
%ADD12R,0.098488X0.098488*%
%ADD13R,0.066992X0.074866*%
%ADD14R,0.059118X0.059118*%
%ADD15C,0.174000*%
%ADD16R,0.108331X0.291402*%
%ADD17R,0.066992X0.129984*%
%ADD18R,0.092000X0.052000*%
%ADD19R,0.090614X0.145732*%
%ADD20R,0.074984X0.066992*%
%ADD21R,0.059118X0.066992*%
%ADD22R,0.055181X0.039433*%
%ADD23R,0.066992X0.074984*%
%ADD24R,0.074866X0.129984*%
%ADD25R,0.054000X0.029000*%
%ADD26R,0.185102X0.063055*%


D10*
X1010Y5000D03*
X1010Y6740D03*
X1010Y3260D03*
D11*
X13350Y3699D03*
X13350Y4801D03*
D12*
X10416Y2100D03*
X12384Y2100D03*
D13*
X15501Y5800D03*
X14399Y5800D03*
X14399Y7850D03*
X15501Y7850D03*
X3949Y1000D03*
X5051Y1000D03*
D14*
X13450Y7098D03*
X13450Y5602D03*
D15*
X14056Y2350D03*
X16419Y2350D03*
X15237Y4200D03*
D16*
X11431Y7850D03*
X9469Y7850D03*
D17*
X3598Y7250D03*
X7102Y7250D03*
D18*
X6280Y2910D03*
X6280Y2000D03*
X6280Y1090D03*
D19*
X8720Y2000D03*
D20*
X9350Y4560D03*
X9350Y3440D03*
D21*
X1620Y1450D03*
D22*
X2939Y1076D03*
X2939Y1824D03*
D23*
X5060Y2000D03*
X3940Y2000D03*
D24*
X5102Y3400D03*
X2898Y3400D03*
D10*
X16990Y7250D03*
X16990Y5510D03*
X16990Y8990D03*
D25*
X5450Y4523D03*
X5450Y4877D03*
D26*
X11750Y3785D03*
X11750Y5715D03*
M02*
