G04 EAGLE Gerber X2 export*
G75*
%MOIN*%
%FSLAX34Y34*%
%LPD*%
%AMOC8*
5,1,8,0,0,1.08239X$1,22.5*%
G01*
%ADD10R,0.200000X0.090000*%
%ADD11C,0.170000*%
%ADD12R,0.025000X0.050000*%
%ADD13C,0.029717*%
%ADD14C,0.032000*%
%ADD15C,0.020000*%

G36*
X17781Y161D02*
X17781Y161D01*
X17783Y161D01*
X17788Y162D01*
X17794Y162D01*
X17795Y163D01*
X17796Y163D01*
X17801Y165D01*
X17806Y167D01*
X17807Y168D01*
X17809Y168D01*
X17813Y171D01*
X17818Y174D01*
X17819Y175D01*
X17820Y176D01*
X17823Y180D01*
X17827Y184D01*
X17828Y185D01*
X17829Y186D01*
X17831Y191D01*
X17834Y196D01*
X17835Y197D01*
X17835Y198D01*
X17837Y204D01*
X17838Y209D01*
X17838Y210D01*
X17839Y212D01*
X17839Y220D01*
X17839Y4900D01*
X17839Y4901D01*
X17839Y4903D01*
X17838Y4908D01*
X17838Y4914D01*
X17837Y4915D01*
X17837Y4916D01*
X17835Y4921D01*
X17833Y4926D01*
X17832Y4927D01*
X17832Y4929D01*
X17829Y4933D01*
X17826Y4938D01*
X17825Y4939D01*
X17824Y4940D01*
X17820Y4943D01*
X17816Y4947D01*
X17815Y4948D01*
X17814Y4949D01*
X17809Y4951D01*
X17804Y4954D01*
X17803Y4955D01*
X17802Y4955D01*
X17796Y4957D01*
X17791Y4958D01*
X17790Y4958D01*
X17788Y4959D01*
X17780Y4959D01*
X17109Y4959D01*
X17109Y5450D01*
X17109Y5451D01*
X17109Y5453D01*
X17108Y5458D01*
X17108Y5464D01*
X17107Y5465D01*
X17107Y5466D01*
X17105Y5471D01*
X17103Y5476D01*
X17102Y5477D01*
X17102Y5479D01*
X17099Y5483D01*
X17096Y5488D01*
X17095Y5489D01*
X17094Y5490D01*
X17090Y5493D01*
X17086Y5497D01*
X17085Y5498D01*
X17084Y5499D01*
X17079Y5501D01*
X17074Y5504D01*
X17073Y5505D01*
X17072Y5505D01*
X17066Y5507D01*
X17061Y5508D01*
X17060Y5508D01*
X17058Y5509D01*
X17050Y5509D01*
X16989Y5509D01*
X16989Y5511D01*
X17050Y5511D01*
X17051Y5511D01*
X17053Y5511D01*
X17058Y5512D01*
X17064Y5512D01*
X17065Y5513D01*
X17066Y5513D01*
X17071Y5515D01*
X17076Y5517D01*
X17077Y5518D01*
X17079Y5518D01*
X17083Y5521D01*
X17088Y5524D01*
X17089Y5525D01*
X17090Y5526D01*
X17093Y5530D01*
X17097Y5534D01*
X17098Y5535D01*
X17099Y5536D01*
X17101Y5541D01*
X17104Y5546D01*
X17105Y5547D01*
X17105Y5548D01*
X17107Y5554D01*
X17108Y5559D01*
X17108Y5560D01*
X17109Y5562D01*
X17109Y5570D01*
X17109Y6061D01*
X17780Y6061D01*
X17781Y6061D01*
X17783Y6061D01*
X17788Y6062D01*
X17794Y6062D01*
X17795Y6063D01*
X17796Y6063D01*
X17801Y6065D01*
X17806Y6067D01*
X17807Y6068D01*
X17809Y6068D01*
X17813Y6071D01*
X17818Y6074D01*
X17819Y6075D01*
X17820Y6076D01*
X17823Y6080D01*
X17827Y6084D01*
X17828Y6085D01*
X17829Y6086D01*
X17831Y6091D01*
X17834Y6096D01*
X17835Y6097D01*
X17835Y6098D01*
X17837Y6104D01*
X17838Y6109D01*
X17838Y6110D01*
X17839Y6112D01*
X17839Y6120D01*
X17839Y8380D01*
X17839Y8381D01*
X17839Y8383D01*
X17838Y8388D01*
X17838Y8394D01*
X17837Y8395D01*
X17837Y8396D01*
X17835Y8401D01*
X17833Y8406D01*
X17832Y8407D01*
X17832Y8409D01*
X17829Y8413D01*
X17826Y8418D01*
X17825Y8419D01*
X17824Y8420D01*
X17820Y8423D01*
X17816Y8427D01*
X17815Y8428D01*
X17814Y8429D01*
X17809Y8431D01*
X17804Y8434D01*
X17803Y8435D01*
X17802Y8435D01*
X17796Y8437D01*
X17791Y8438D01*
X17790Y8438D01*
X17788Y8439D01*
X17780Y8439D01*
X17109Y8439D01*
X17109Y8930D01*
X17109Y8931D01*
X17109Y8932D01*
X17109Y8933D01*
X17108Y8938D01*
X17108Y8944D01*
X17107Y8945D01*
X17107Y8946D01*
X17105Y8951D01*
X17103Y8956D01*
X17102Y8957D01*
X17102Y8959D01*
X17099Y8963D01*
X17096Y8968D01*
X17095Y8969D01*
X17094Y8970D01*
X17090Y8973D01*
X17086Y8977D01*
X17085Y8978D01*
X17084Y8979D01*
X17079Y8981D01*
X17074Y8984D01*
X17073Y8985D01*
X17072Y8985D01*
X17066Y8987D01*
X17061Y8988D01*
X17060Y8988D01*
X17058Y8989D01*
X17050Y8989D01*
X16989Y8989D01*
X16989Y8991D01*
X17050Y8991D01*
X17051Y8991D01*
X17053Y8991D01*
X17058Y8992D01*
X17064Y8992D01*
X17065Y8993D01*
X17066Y8993D01*
X17071Y8995D01*
X17076Y8997D01*
X17077Y8998D01*
X17079Y8998D01*
X17083Y9001D01*
X17088Y9004D01*
X17089Y9005D01*
X17090Y9006D01*
X17093Y9010D01*
X17097Y9014D01*
X17098Y9015D01*
X17099Y9016D01*
X17101Y9021D01*
X17104Y9026D01*
X17105Y9027D01*
X17105Y9028D01*
X17107Y9034D01*
X17108Y9039D01*
X17108Y9040D01*
X17109Y9042D01*
X17109Y9050D01*
X17109Y9541D01*
X17780Y9541D01*
X17781Y9541D01*
X17783Y9541D01*
X17788Y9542D01*
X17794Y9542D01*
X17795Y9543D01*
X17796Y9543D01*
X17801Y9545D01*
X17806Y9547D01*
X17807Y9548D01*
X17809Y9548D01*
X17813Y9551D01*
X17818Y9554D01*
X17819Y9555D01*
X17820Y9556D01*
X17823Y9560D01*
X17827Y9564D01*
X17828Y9565D01*
X17829Y9566D01*
X17831Y9571D01*
X17834Y9576D01*
X17835Y9577D01*
X17835Y9578D01*
X17837Y9584D01*
X17838Y9589D01*
X17838Y9590D01*
X17839Y9592D01*
X17839Y9600D01*
X17839Y9780D01*
X17839Y9781D01*
X17839Y9783D01*
X17838Y9788D01*
X17838Y9794D01*
X17837Y9795D01*
X17837Y9796D01*
X17835Y9801D01*
X17833Y9806D01*
X17832Y9807D01*
X17832Y9809D01*
X17829Y9813D01*
X17826Y9818D01*
X17825Y9819D01*
X17824Y9820D01*
X17820Y9823D01*
X17816Y9827D01*
X17815Y9828D01*
X17814Y9829D01*
X17809Y9831D01*
X17804Y9834D01*
X17803Y9835D01*
X17802Y9835D01*
X17796Y9837D01*
X17791Y9838D01*
X17790Y9838D01*
X17788Y9839D01*
X17780Y9839D01*
X220Y9839D01*
X219Y9839D01*
X217Y9839D01*
X212Y9838D01*
X206Y9838D01*
X205Y9837D01*
X204Y9837D01*
X199Y9835D01*
X194Y9833D01*
X193Y9832D01*
X191Y9832D01*
X187Y9829D01*
X182Y9826D01*
X181Y9825D01*
X180Y9824D01*
X177Y9820D01*
X173Y9816D01*
X172Y9815D01*
X171Y9814D01*
X169Y9809D01*
X166Y9804D01*
X165Y9803D01*
X165Y9802D01*
X163Y9796D01*
X162Y9791D01*
X162Y9790D01*
X161Y9788D01*
X161Y9780D01*
X161Y7350D01*
X161Y7349D01*
X161Y7347D01*
X162Y7342D01*
X162Y7336D01*
X163Y7335D01*
X163Y7334D01*
X165Y7329D01*
X167Y7324D01*
X168Y7323D01*
X168Y7321D01*
X171Y7317D01*
X174Y7312D01*
X175Y7311D01*
X176Y7310D01*
X180Y7307D01*
X184Y7303D01*
X185Y7302D01*
X186Y7301D01*
X191Y7299D01*
X196Y7296D01*
X197Y7295D01*
X198Y7295D01*
X204Y7293D01*
X209Y7292D01*
X210Y7292D01*
X212Y7291D01*
X220Y7291D01*
X891Y7291D01*
X891Y6800D01*
X891Y6799D01*
X891Y6797D01*
X892Y6792D01*
X892Y6786D01*
X893Y6785D01*
X893Y6784D01*
X895Y6779D01*
X897Y6774D01*
X898Y6773D01*
X898Y6771D01*
X901Y6767D01*
X904Y6762D01*
X905Y6761D01*
X906Y6760D01*
X910Y6757D01*
X914Y6753D01*
X915Y6752D01*
X916Y6751D01*
X921Y6749D01*
X926Y6746D01*
X927Y6745D01*
X928Y6745D01*
X934Y6743D01*
X939Y6742D01*
X940Y6742D01*
X942Y6741D01*
X950Y6741D01*
X1011Y6741D01*
X1011Y6739D01*
X950Y6739D01*
X949Y6739D01*
X947Y6739D01*
X942Y6738D01*
X936Y6738D01*
X935Y6737D01*
X934Y6737D01*
X929Y6735D01*
X924Y6733D01*
X923Y6732D01*
X921Y6732D01*
X917Y6729D01*
X912Y6726D01*
X911Y6725D01*
X910Y6724D01*
X907Y6720D01*
X903Y6716D01*
X902Y6715D01*
X901Y6714D01*
X899Y6709D01*
X896Y6704D01*
X895Y6703D01*
X895Y6702D01*
X893Y6696D01*
X892Y6691D01*
X892Y6690D01*
X891Y6688D01*
X891Y6680D01*
X891Y6189D01*
X220Y6189D01*
X219Y6189D01*
X217Y6189D01*
X212Y6188D01*
X206Y6188D01*
X205Y6187D01*
X204Y6187D01*
X199Y6185D01*
X194Y6183D01*
X193Y6182D01*
X191Y6182D01*
X187Y6179D01*
X182Y6176D01*
X181Y6175D01*
X180Y6174D01*
X177Y6170D01*
X173Y6166D01*
X172Y6165D01*
X171Y6164D01*
X169Y6159D01*
X166Y6154D01*
X165Y6153D01*
X165Y6152D01*
X163Y6146D01*
X162Y6141D01*
X162Y6140D01*
X161Y6138D01*
X161Y6130D01*
X161Y3870D01*
X161Y3869D01*
X161Y3867D01*
X162Y3862D01*
X162Y3856D01*
X163Y3855D01*
X163Y3854D01*
X165Y3849D01*
X167Y3844D01*
X168Y3843D01*
X168Y3841D01*
X171Y3837D01*
X174Y3832D01*
X175Y3831D01*
X176Y3830D01*
X180Y3827D01*
X184Y3823D01*
X185Y3822D01*
X186Y3821D01*
X191Y3819D01*
X196Y3816D01*
X197Y3815D01*
X198Y3815D01*
X204Y3813D01*
X209Y3812D01*
X210Y3812D01*
X212Y3811D01*
X220Y3811D01*
X891Y3811D01*
X891Y3320D01*
X891Y3319D01*
X891Y3317D01*
X892Y3312D01*
X892Y3306D01*
X893Y3305D01*
X893Y3304D01*
X895Y3299D01*
X897Y3294D01*
X898Y3293D01*
X898Y3291D01*
X901Y3287D01*
X904Y3282D01*
X905Y3281D01*
X906Y3280D01*
X910Y3277D01*
X914Y3273D01*
X915Y3272D01*
X916Y3271D01*
X921Y3269D01*
X926Y3266D01*
X927Y3265D01*
X928Y3265D01*
X934Y3263D01*
X939Y3262D01*
X940Y3262D01*
X942Y3261D01*
X950Y3261D01*
X1011Y3261D01*
X1011Y3259D01*
X950Y3259D01*
X949Y3259D01*
X947Y3259D01*
X942Y3258D01*
X936Y3258D01*
X935Y3257D01*
X934Y3257D01*
X929Y3255D01*
X924Y3253D01*
X923Y3252D01*
X921Y3252D01*
X917Y3249D01*
X912Y3246D01*
X911Y3245D01*
X910Y3244D01*
X907Y3240D01*
X903Y3236D01*
X902Y3235D01*
X901Y3234D01*
X899Y3229D01*
X896Y3224D01*
X895Y3223D01*
X895Y3222D01*
X893Y3216D01*
X892Y3211D01*
X892Y3210D01*
X891Y3208D01*
X891Y3200D01*
X891Y2709D01*
X220Y2709D01*
X219Y2709D01*
X217Y2709D01*
X212Y2708D01*
X206Y2708D01*
X205Y2707D01*
X204Y2707D01*
X199Y2705D01*
X194Y2703D01*
X193Y2702D01*
X191Y2702D01*
X187Y2699D01*
X182Y2696D01*
X181Y2695D01*
X180Y2694D01*
X177Y2690D01*
X173Y2686D01*
X172Y2685D01*
X171Y2684D01*
X169Y2679D01*
X166Y2674D01*
X165Y2673D01*
X165Y2672D01*
X163Y2666D01*
X162Y2661D01*
X162Y2660D01*
X161Y2658D01*
X161Y2650D01*
X161Y220D01*
X161Y219D01*
X161Y217D01*
X162Y212D01*
X162Y206D01*
X163Y205D01*
X163Y204D01*
X165Y199D01*
X167Y194D01*
X168Y193D01*
X168Y191D01*
X171Y187D01*
X174Y182D01*
X175Y181D01*
X176Y180D01*
X180Y177D01*
X184Y173D01*
X185Y172D01*
X186Y171D01*
X191Y169D01*
X196Y166D01*
X197Y165D01*
X198Y165D01*
X204Y163D01*
X209Y162D01*
X210Y162D01*
X212Y161D01*
X220Y161D01*
X17780Y161D01*
X17781Y161D01*
G37*
%LPC*%
G36*
X2936Y4679D02*
X2936Y4679D01*
X2818Y4728D01*
X2728Y4818D01*
X2679Y4936D01*
X2679Y5064D01*
X2728Y5182D01*
X4068Y6522D01*
X4186Y6571D01*
X6317Y6571D01*
X6322Y6571D01*
X6327Y6572D01*
X6329Y6572D01*
X6330Y6572D01*
X6335Y6574D01*
X6340Y6576D01*
X6342Y6576D01*
X6343Y6577D01*
X6348Y6580D01*
X6352Y6583D01*
X6354Y6584D01*
X6355Y6584D01*
X6356Y6585D01*
X6359Y6588D01*
X6431Y6661D01*
X7169Y6661D01*
X7241Y6588D01*
X7246Y6585D01*
X7250Y6581D01*
X7251Y6581D01*
X7252Y6580D01*
X7257Y6577D01*
X7262Y6575D01*
X7263Y6574D01*
X7264Y6574D01*
X7270Y6573D01*
X7275Y6571D01*
X7277Y6571D01*
X7278Y6571D01*
X7279Y6571D01*
X7283Y6571D01*
X9493Y6571D01*
X9498Y6571D01*
X9503Y6572D01*
X9505Y6572D01*
X9506Y6572D01*
X9511Y6574D01*
X9516Y6576D01*
X9518Y6576D01*
X9519Y6577D01*
X9523Y6580D01*
X9528Y6583D01*
X9530Y6584D01*
X9531Y6585D01*
X9534Y6588D01*
X11068Y8122D01*
X11186Y8171D01*
X13614Y8171D01*
X13732Y8122D01*
X13822Y8032D01*
X13871Y7914D01*
X13871Y7786D01*
X13822Y7668D01*
X13732Y7578D01*
X13614Y7529D01*
X11407Y7529D01*
X11402Y7529D01*
X11397Y7528D01*
X11395Y7528D01*
X11394Y7528D01*
X11389Y7526D01*
X11384Y7524D01*
X11382Y7524D01*
X11381Y7523D01*
X11377Y7520D01*
X11372Y7517D01*
X11370Y7516D01*
X11369Y7515D01*
X11366Y7512D01*
X9930Y6077D01*
X9832Y5978D01*
X9714Y5929D01*
X7283Y5929D01*
X7278Y5929D01*
X7273Y5928D01*
X7271Y5928D01*
X7270Y5928D01*
X7265Y5926D01*
X7260Y5924D01*
X7258Y5924D01*
X7257Y5923D01*
X7252Y5920D01*
X7248Y5917D01*
X7246Y5916D01*
X7245Y5916D01*
X7244Y5915D01*
X7241Y5912D01*
X7169Y5839D01*
X6431Y5839D01*
X6359Y5912D01*
X6354Y5915D01*
X6350Y5919D01*
X6349Y5919D01*
X6348Y5920D01*
X6343Y5923D01*
X6338Y5925D01*
X6337Y5926D01*
X6336Y5926D01*
X6330Y5927D01*
X6325Y5929D01*
X6323Y5929D01*
X6322Y5929D01*
X6321Y5929D01*
X6317Y5929D01*
X4407Y5929D01*
X4402Y5929D01*
X4397Y5928D01*
X4395Y5928D01*
X4394Y5928D01*
X4389Y5926D01*
X4384Y5924D01*
X4382Y5924D01*
X4381Y5923D01*
X4377Y5920D01*
X4372Y5917D01*
X4370Y5916D01*
X4369Y5915D01*
X4366Y5912D01*
X3182Y4728D01*
X3064Y4679D01*
X2936Y4679D01*
G37*
%LPD*%
%LPC*%
G36*
X15104Y3190D02*
X15104Y3190D01*
X14847Y3259D01*
X14617Y3392D01*
X14429Y3580D01*
X14296Y3810D01*
X14227Y4067D01*
X14227Y4333D01*
X14296Y4591D01*
X14429Y4821D01*
X14617Y5009D01*
X14847Y5142D01*
X15104Y5211D01*
X15370Y5211D01*
X15628Y5142D01*
X15800Y5042D01*
X15803Y5041D01*
X15806Y5040D01*
X15810Y5039D01*
X15813Y5037D01*
X15816Y5037D01*
X15819Y5036D01*
X15823Y5035D01*
X15826Y5035D01*
X15829Y5035D01*
X15833Y5035D01*
X15836Y5035D01*
X15840Y5035D01*
X15843Y5036D01*
X15846Y5037D01*
X15849Y5038D01*
X15853Y5039D01*
X15856Y5041D01*
X15859Y5042D01*
X15862Y5044D01*
X15865Y5046D01*
X15867Y5048D01*
X15870Y5050D01*
X15872Y5053D01*
X15875Y5055D01*
X15877Y5058D01*
X15879Y5060D01*
X15880Y5063D01*
X15883Y5066D01*
X15884Y5069D01*
X15885Y5072D01*
X15886Y5076D01*
X15887Y5079D01*
X15888Y5082D01*
X15889Y5085D01*
X15889Y5092D01*
X15889Y5093D01*
X15889Y5094D01*
X15889Y5391D01*
X16871Y5391D01*
X16871Y4959D01*
X16051Y4959D01*
X16047Y4959D01*
X16043Y4959D01*
X16040Y4958D01*
X16037Y4958D01*
X16034Y4956D01*
X16030Y4955D01*
X16027Y4954D01*
X16025Y4953D01*
X16021Y4951D01*
X16018Y4949D01*
X16016Y4947D01*
X16013Y4946D01*
X16010Y4943D01*
X16007Y4940D01*
X16006Y4938D01*
X16004Y4936D01*
X16002Y4932D01*
X15999Y4929D01*
X15998Y4926D01*
X15997Y4924D01*
X15996Y4920D01*
X15994Y4916D01*
X15994Y4914D01*
X15993Y4911D01*
X15992Y4907D01*
X15992Y4903D01*
X15992Y4900D01*
X15992Y4897D01*
X15992Y4893D01*
X15993Y4889D01*
X15994Y4887D01*
X15994Y4884D01*
X15996Y4880D01*
X15997Y4876D01*
X15998Y4874D01*
X15999Y4871D01*
X16002Y4868D01*
X16004Y4864D01*
X16006Y4861D01*
X16007Y4860D01*
X16008Y4860D01*
X16009Y4858D01*
X16046Y4821D01*
X16179Y4591D01*
X16248Y4333D01*
X16248Y4067D01*
X16179Y3810D01*
X16046Y3580D01*
X15858Y3392D01*
X15628Y3259D01*
X15370Y3190D01*
X15104Y3190D01*
G37*
%LPD*%
%LPC*%
G36*
X16285Y1339D02*
X16285Y1339D01*
X16028Y1408D01*
X15798Y1541D01*
X15610Y1729D01*
X15477Y1960D01*
X15408Y2217D01*
X15408Y2483D01*
X15477Y2740D01*
X15610Y2971D01*
X15798Y3159D01*
X16028Y3292D01*
X16285Y3361D01*
X16552Y3361D01*
X16809Y3292D01*
X17039Y3159D01*
X17227Y2971D01*
X17360Y2740D01*
X17429Y2483D01*
X17429Y2217D01*
X17360Y1960D01*
X17227Y1729D01*
X17039Y1541D01*
X16809Y1408D01*
X16552Y1339D01*
X16285Y1339D01*
G37*
%LPD*%
%LPC*%
G36*
X14176Y2469D02*
X14176Y2469D01*
X14176Y3293D01*
X14216Y3289D01*
X14320Y3265D01*
X14421Y3230D01*
X14517Y3183D01*
X14607Y3127D01*
X14691Y3060D01*
X14766Y2985D01*
X14833Y2901D01*
X14890Y2811D01*
X14936Y2714D01*
X14971Y2614D01*
X14995Y2510D01*
X15000Y2469D01*
X14176Y2469D01*
G37*
%LPD*%
%LPC*%
G36*
X13113Y2469D02*
X13113Y2469D01*
X13118Y2510D01*
X13141Y2614D01*
X13177Y2714D01*
X13223Y2811D01*
X13280Y2901D01*
X13346Y2985D01*
X13422Y3060D01*
X13505Y3127D01*
X13596Y3183D01*
X13692Y3230D01*
X13793Y3265D01*
X13897Y3289D01*
X13937Y3293D01*
X13937Y2469D01*
X13113Y2469D01*
G37*
%LPD*%
%LPC*%
G36*
X14176Y2231D02*
X14176Y2231D01*
X15000Y2231D01*
X14995Y2190D01*
X14971Y2086D01*
X14936Y1986D01*
X14890Y1889D01*
X14833Y1799D01*
X14766Y1715D01*
X14691Y1640D01*
X14607Y1573D01*
X14517Y1517D01*
X14421Y1470D01*
X14320Y1435D01*
X14216Y1411D01*
X14176Y1407D01*
X14176Y2231D01*
G37*
%LPD*%
%LPC*%
G36*
X13897Y1411D02*
X13897Y1411D01*
X13793Y1435D01*
X13692Y1470D01*
X13596Y1517D01*
X13505Y1573D01*
X13422Y1640D01*
X13346Y1715D01*
X13280Y1799D01*
X13223Y1889D01*
X13177Y1986D01*
X13141Y2086D01*
X13118Y2190D01*
X13113Y2231D01*
X13937Y2231D01*
X13937Y1407D01*
X13897Y1411D01*
G37*
%LPD*%
%LPC*%
G36*
X15977Y8439D02*
X15977Y8439D01*
X15951Y8446D01*
X15928Y8459D01*
X15909Y8478D01*
X15896Y8501D01*
X15889Y8527D01*
X15889Y8871D01*
X16871Y8871D01*
X16871Y8439D01*
X15977Y8439D01*
G37*
%LPD*%
%LPC*%
G36*
X1129Y6859D02*
X1129Y6859D01*
X1129Y7291D01*
X2023Y7291D01*
X2049Y7284D01*
X2072Y7271D01*
X2091Y7252D01*
X2104Y7229D01*
X2111Y7203D01*
X2111Y6859D01*
X1129Y6859D01*
G37*
%LPD*%
%LPC*%
G36*
X1129Y3379D02*
X1129Y3379D01*
X1129Y3811D01*
X2023Y3811D01*
X2049Y3804D01*
X2072Y3791D01*
X2091Y3772D01*
X2104Y3749D01*
X2111Y3723D01*
X2111Y3379D01*
X1129Y3379D01*
G37*
%LPD*%
%LPC*%
G36*
X15889Y9109D02*
X15889Y9109D01*
X15889Y9453D01*
X15896Y9479D01*
X15909Y9502D01*
X15928Y9521D01*
X15951Y9534D01*
X15977Y9541D01*
X16871Y9541D01*
X16871Y9109D01*
X15889Y9109D01*
G37*
%LPD*%
%LPC*%
G36*
X15889Y5629D02*
X15889Y5629D01*
X15889Y5973D01*
X15896Y5999D01*
X15909Y6022D01*
X15928Y6041D01*
X15951Y6054D01*
X15977Y6061D01*
X16871Y6061D01*
X16871Y5629D01*
X15889Y5629D01*
G37*
%LPD*%
%LPC*%
G36*
X1129Y6189D02*
X1129Y6189D01*
X1129Y6621D01*
X2111Y6621D01*
X2111Y6277D01*
X2104Y6251D01*
X2091Y6228D01*
X2072Y6209D01*
X2049Y6196D01*
X2023Y6189D01*
X1129Y6189D01*
G37*
%LPD*%
%LPC*%
G36*
X1129Y2709D02*
X1129Y2709D01*
X1129Y3141D01*
X2111Y3141D01*
X2111Y2797D01*
X2104Y2771D01*
X2091Y2748D01*
X2072Y2729D01*
X2049Y2716D01*
X2023Y2709D01*
X1129Y2709D01*
G37*
%LPD*%
%LPC*%
G36*
X14056Y2349D02*
X14056Y2349D01*
X14056Y2351D01*
X14057Y2351D01*
X14057Y2349D01*
X14056Y2349D01*
G37*
%LPD*%
D10*
X1010Y3260D03*
X1010Y6740D03*
D11*
X14056Y2350D03*
X16419Y2350D03*
X15237Y4200D03*
D10*
X16990Y8990D03*
X16990Y5510D03*
D12*
X6977Y6250D03*
X6623Y6250D03*
D13*
X13550Y7850D03*
X7750Y6250D03*
D14*
X11250Y7850D02*
X13550Y7850D01*
X11250Y7850D02*
X9650Y6250D01*
X7750Y6250D01*
X7200Y6250D01*
D15*
X6977Y6250D01*
D13*
X3000Y5000D03*
D14*
X4250Y6250D01*
X6400Y6250D01*
D15*
X6623Y6250D01*
M02*
