G04 EAGLE Gerber X2 export*
G75*
%MOIN*%
%FSLAX34Y34*%
%LPD*%
%AMOC8*
5,1,8,0,0,1.08239X$1,22.5*%
G01*
%ADD10C,0.000000*%
%ADD11C,0.006000*%
%ADD12C,0.003000*%
%ADD13C,0.004000*%
%ADD14C,0.007000*%


D10*
X0Y0D02*
X18000Y0D01*
X18000Y10000D01*
X0Y10000D01*
X0Y0D01*
X0Y2800D02*
X0Y7200D01*
D11*
X1180Y7680D02*
X1393Y8320D01*
X1607Y7680D01*
X1553Y7840D02*
X1233Y7840D01*
X1795Y7680D02*
X2009Y8320D01*
X2222Y7680D01*
X2169Y7840D02*
X1849Y7840D01*
D12*
X14047Y4845D02*
X14112Y4845D01*
X14047Y4845D02*
X14033Y4847D01*
X14019Y4851D01*
X14007Y4859D01*
X13997Y4869D01*
X13989Y4881D01*
X13985Y4895D01*
X13983Y4909D01*
X13983Y5071D01*
X13985Y5085D01*
X13989Y5099D01*
X13997Y5111D01*
X14007Y5121D01*
X14019Y5129D01*
X14033Y5133D01*
X14047Y5135D01*
X14112Y5135D01*
X14224Y5071D02*
X14304Y5135D01*
X14304Y4845D01*
X14224Y4845D02*
X14385Y4845D01*
X11194Y1015D02*
X11129Y1015D01*
X11115Y1017D01*
X11101Y1021D01*
X11089Y1029D01*
X11079Y1039D01*
X11071Y1051D01*
X11067Y1065D01*
X11065Y1079D01*
X11065Y1241D01*
X11067Y1255D01*
X11071Y1269D01*
X11079Y1281D01*
X11089Y1291D01*
X11101Y1299D01*
X11115Y1303D01*
X11129Y1305D01*
X11194Y1305D01*
X11395Y1306D02*
X11411Y1304D01*
X11427Y1299D01*
X11441Y1290D01*
X11452Y1279D01*
X11461Y1265D01*
X11466Y1249D01*
X11468Y1233D01*
X11395Y1305D02*
X11378Y1304D01*
X11362Y1299D01*
X11347Y1292D01*
X11334Y1282D01*
X11322Y1270D01*
X11313Y1256D01*
X11307Y1241D01*
X11443Y1177D02*
X11453Y1188D01*
X11461Y1202D01*
X11465Y1217D01*
X11467Y1233D01*
X11443Y1176D02*
X11306Y1015D01*
X11467Y1015D01*
X14847Y6395D02*
X14912Y6395D01*
X14847Y6395D02*
X14833Y6397D01*
X14819Y6401D01*
X14807Y6409D01*
X14797Y6419D01*
X14789Y6431D01*
X14785Y6445D01*
X14783Y6459D01*
X14783Y6621D01*
X14785Y6635D01*
X14789Y6649D01*
X14797Y6661D01*
X14807Y6671D01*
X14819Y6679D01*
X14833Y6683D01*
X14847Y6685D01*
X14912Y6685D01*
X15024Y6395D02*
X15104Y6395D01*
X15121Y6397D01*
X15137Y6402D01*
X15152Y6410D01*
X15164Y6422D01*
X15174Y6436D01*
X15181Y6451D01*
X15185Y6468D01*
X15185Y6484D01*
X15181Y6501D01*
X15174Y6517D01*
X15164Y6530D01*
X15152Y6542D01*
X15137Y6550D01*
X15121Y6555D01*
X15104Y6557D01*
X15121Y6685D02*
X15024Y6685D01*
X15121Y6685D02*
X15135Y6683D01*
X15149Y6679D01*
X15161Y6671D01*
X15171Y6661D01*
X15179Y6649D01*
X15183Y6635D01*
X15185Y6621D01*
X15183Y6607D01*
X15179Y6593D01*
X15171Y6581D01*
X15161Y6571D01*
X15149Y6563D01*
X15135Y6559D01*
X15121Y6557D01*
X15121Y6556D02*
X15056Y6556D01*
X14794Y7015D02*
X14729Y7015D01*
X14715Y7017D01*
X14701Y7021D01*
X14689Y7029D01*
X14679Y7039D01*
X14671Y7051D01*
X14667Y7065D01*
X14665Y7079D01*
X14665Y7241D01*
X14667Y7255D01*
X14671Y7269D01*
X14679Y7281D01*
X14689Y7291D01*
X14701Y7299D01*
X14715Y7303D01*
X14729Y7305D01*
X14794Y7305D01*
X14970Y7305D02*
X14906Y7079D01*
X15067Y7079D01*
X15019Y7144D02*
X15019Y7015D01*
X4344Y215D02*
X4279Y215D01*
X4265Y217D01*
X4251Y221D01*
X4239Y229D01*
X4229Y239D01*
X4221Y251D01*
X4217Y265D01*
X4215Y279D01*
X4215Y441D01*
X4217Y455D01*
X4221Y469D01*
X4229Y481D01*
X4239Y491D01*
X4251Y499D01*
X4265Y503D01*
X4279Y505D01*
X4344Y505D01*
X4456Y215D02*
X4553Y215D01*
X4567Y217D01*
X4581Y221D01*
X4593Y229D01*
X4603Y239D01*
X4611Y251D01*
X4615Y265D01*
X4617Y279D01*
X4617Y312D01*
X4615Y326D01*
X4611Y340D01*
X4603Y352D01*
X4593Y362D01*
X4581Y370D01*
X4567Y374D01*
X4553Y376D01*
X4456Y376D01*
X4456Y505D01*
X4617Y505D01*
X13182Y6259D02*
X13182Y6549D01*
X13262Y6549D01*
X13278Y6547D01*
X13293Y6543D01*
X13307Y6535D01*
X13319Y6525D01*
X13329Y6513D01*
X13337Y6499D01*
X13341Y6484D01*
X13343Y6468D01*
X13343Y6339D01*
X13341Y6323D01*
X13337Y6308D01*
X13329Y6294D01*
X13319Y6282D01*
X13307Y6272D01*
X13293Y6264D01*
X13278Y6260D01*
X13262Y6258D01*
X13262Y6259D02*
X13182Y6259D01*
X13480Y6484D02*
X13560Y6549D01*
X13560Y6259D01*
X13480Y6259D02*
X13641Y6259D01*
D13*
X14808Y980D02*
X14808Y520D01*
X14808Y980D02*
X14936Y980D01*
X14957Y978D01*
X14978Y973D01*
X14997Y965D01*
X15015Y953D01*
X15030Y939D01*
X15043Y922D01*
X15053Y903D01*
X15060Y883D01*
X15064Y863D01*
X15064Y841D01*
X15060Y821D01*
X15053Y801D01*
X15043Y782D01*
X15030Y765D01*
X15015Y751D01*
X14997Y739D01*
X14978Y731D01*
X14957Y726D01*
X14936Y724D01*
X14808Y724D01*
X15220Y980D02*
X15322Y520D01*
X15424Y827D01*
X15527Y520D01*
X15629Y980D01*
X15824Y980D02*
X15824Y520D01*
X15824Y980D02*
X15952Y980D01*
X15973Y978D01*
X15994Y973D01*
X16013Y965D01*
X16031Y953D01*
X16046Y939D01*
X16059Y922D01*
X16069Y903D01*
X16076Y883D01*
X16080Y863D01*
X16080Y841D01*
X16076Y821D01*
X16069Y801D01*
X16059Y782D01*
X16046Y765D01*
X16031Y751D01*
X16013Y739D01*
X15994Y731D01*
X15973Y726D01*
X15952Y724D01*
X15824Y724D01*
X15978Y724D02*
X16080Y520D01*
D14*
X10210Y7710D02*
X10210Y8040D01*
X10210Y7710D02*
X10357Y7710D01*
X10509Y7967D02*
X10601Y8040D01*
X10601Y7710D01*
X10692Y7710D02*
X10509Y7710D01*
X5133Y7415D02*
X5133Y7085D01*
X5279Y7085D01*
X5533Y7416D02*
X5549Y7414D01*
X5565Y7410D01*
X5579Y7402D01*
X5592Y7392D01*
X5602Y7379D01*
X5610Y7365D01*
X5614Y7349D01*
X5616Y7333D01*
X5533Y7415D02*
X5514Y7413D01*
X5496Y7408D01*
X5479Y7400D01*
X5463Y7389D01*
X5450Y7375D01*
X5440Y7359D01*
X5432Y7342D01*
X5587Y7269D02*
X5599Y7282D01*
X5608Y7298D01*
X5613Y7315D01*
X5615Y7333D01*
X5588Y7268D02*
X5432Y7085D01*
X5615Y7085D01*
D12*
X7265Y2094D02*
X7265Y1966D01*
X7265Y2094D02*
X7267Y2111D01*
X7272Y2127D01*
X7280Y2142D01*
X7292Y2154D01*
X7306Y2164D01*
X7321Y2171D01*
X7338Y2175D01*
X7354Y2175D01*
X7371Y2171D01*
X7387Y2164D01*
X7400Y2154D01*
X7412Y2142D01*
X7420Y2127D01*
X7425Y2111D01*
X7427Y2094D01*
X7426Y2094D02*
X7426Y1966D01*
X7427Y1966D02*
X7425Y1949D01*
X7420Y1933D01*
X7412Y1918D01*
X7400Y1906D01*
X7387Y1896D01*
X7371Y1889D01*
X7354Y1885D01*
X7338Y1885D01*
X7321Y1889D01*
X7306Y1896D01*
X7292Y1906D01*
X7280Y1918D01*
X7272Y1933D01*
X7267Y1949D01*
X7265Y1966D01*
X7394Y1949D02*
X7458Y1885D01*
X7544Y2111D02*
X7625Y2175D01*
X7625Y1885D01*
X7705Y1885D02*
X7544Y1885D01*
X8388Y3845D02*
X8388Y4135D01*
X8468Y4135D01*
X8485Y4133D01*
X8501Y4128D01*
X8516Y4120D01*
X8528Y4108D01*
X8538Y4095D01*
X8545Y4079D01*
X8549Y4062D01*
X8549Y4046D01*
X8545Y4029D01*
X8538Y4014D01*
X8528Y4000D01*
X8516Y3988D01*
X8501Y3980D01*
X8485Y3975D01*
X8468Y3973D01*
X8468Y3974D02*
X8388Y3974D01*
X8485Y3974D02*
X8549Y3845D01*
X8674Y4071D02*
X8754Y4135D01*
X8754Y3845D01*
X8674Y3845D02*
X8835Y3845D01*
X1079Y2352D02*
X1079Y2062D01*
X1079Y2352D02*
X1159Y2352D01*
X1176Y2350D01*
X1192Y2345D01*
X1207Y2337D01*
X1219Y2325D01*
X1229Y2312D01*
X1236Y2296D01*
X1240Y2279D01*
X1240Y2263D01*
X1236Y2246D01*
X1229Y2231D01*
X1219Y2217D01*
X1207Y2205D01*
X1192Y2197D01*
X1176Y2192D01*
X1159Y2190D01*
X1079Y2190D01*
X1176Y2190D02*
X1240Y2062D01*
X1526Y2279D02*
X1524Y2295D01*
X1519Y2311D01*
X1510Y2325D01*
X1499Y2336D01*
X1485Y2345D01*
X1469Y2350D01*
X1453Y2352D01*
X1453Y2351D02*
X1436Y2350D01*
X1420Y2345D01*
X1405Y2338D01*
X1392Y2328D01*
X1380Y2316D01*
X1371Y2302D01*
X1365Y2287D01*
X1502Y2223D02*
X1512Y2234D01*
X1520Y2248D01*
X1524Y2263D01*
X1526Y2279D01*
X1502Y2223D02*
X1365Y2062D01*
X1526Y2062D01*
X2865Y2265D02*
X2865Y2555D01*
X2946Y2555D01*
X2963Y2553D01*
X2979Y2548D01*
X2994Y2540D01*
X3006Y2528D01*
X3016Y2515D01*
X3023Y2499D01*
X3027Y2482D01*
X3027Y2466D01*
X3023Y2449D01*
X3016Y2434D01*
X3006Y2420D01*
X2994Y2408D01*
X2979Y2400D01*
X2963Y2395D01*
X2946Y2393D01*
X2946Y2394D02*
X2865Y2394D01*
X2962Y2394D02*
X3026Y2265D01*
X3151Y2265D02*
X3232Y2265D01*
X3249Y2267D01*
X3265Y2272D01*
X3280Y2280D01*
X3292Y2292D01*
X3302Y2306D01*
X3309Y2321D01*
X3313Y2338D01*
X3313Y2354D01*
X3309Y2371D01*
X3302Y2387D01*
X3292Y2400D01*
X3280Y2412D01*
X3265Y2420D01*
X3249Y2425D01*
X3232Y2427D01*
X3248Y2555D02*
X3151Y2555D01*
X3248Y2555D02*
X3262Y2553D01*
X3276Y2549D01*
X3288Y2541D01*
X3298Y2531D01*
X3306Y2519D01*
X3310Y2505D01*
X3312Y2491D01*
X3310Y2477D01*
X3306Y2463D01*
X3298Y2451D01*
X3288Y2441D01*
X3276Y2433D01*
X3262Y2429D01*
X3248Y2427D01*
X3248Y2426D02*
X3183Y2426D01*
X3788Y3245D02*
X3788Y3535D01*
X3868Y3535D01*
X3885Y3533D01*
X3901Y3528D01*
X3916Y3520D01*
X3928Y3508D01*
X3938Y3495D01*
X3945Y3479D01*
X3949Y3462D01*
X3949Y3446D01*
X3945Y3429D01*
X3938Y3414D01*
X3928Y3400D01*
X3916Y3388D01*
X3901Y3380D01*
X3885Y3375D01*
X3868Y3373D01*
X3868Y3374D02*
X3788Y3374D01*
X3885Y3374D02*
X3949Y3245D01*
X4074Y3309D02*
X4138Y3535D01*
X4074Y3309D02*
X4235Y3309D01*
X4187Y3374D02*
X4187Y3245D01*
D10*
X18000Y5050D02*
X18000Y9450D01*
D11*
X14367Y9420D02*
X14367Y8780D01*
X14367Y9420D02*
X14545Y9420D01*
X14570Y9418D01*
X14595Y9413D01*
X14619Y9404D01*
X14641Y9392D01*
X14662Y9377D01*
X14680Y9359D01*
X14695Y9338D01*
X14707Y9316D01*
X14716Y9292D01*
X14721Y9267D01*
X14723Y9242D01*
X14721Y9217D01*
X14716Y9192D01*
X14707Y9168D01*
X14695Y9146D01*
X14680Y9125D01*
X14662Y9107D01*
X14641Y9092D01*
X14619Y9080D01*
X14595Y9071D01*
X14570Y9066D01*
X14545Y9064D01*
X14367Y9064D01*
X14580Y9064D02*
X14723Y8780D01*
X14943Y8780D02*
X15370Y9420D01*
X14943Y9420D02*
X15370Y8780D01*
D12*
X6312Y4609D02*
X6310Y4595D01*
X6306Y4581D01*
X6298Y4569D01*
X6288Y4559D01*
X6276Y4551D01*
X6262Y4547D01*
X6248Y4545D01*
X6227Y4547D01*
X6206Y4552D01*
X6186Y4560D01*
X6168Y4571D01*
X6151Y4585D01*
X6160Y4771D02*
X6162Y4785D01*
X6166Y4799D01*
X6174Y4811D01*
X6184Y4821D01*
X6196Y4829D01*
X6210Y4833D01*
X6224Y4835D01*
X6243Y4833D01*
X6262Y4829D01*
X6280Y4821D01*
X6297Y4811D01*
X6160Y4771D02*
X6161Y4758D01*
X6166Y4745D01*
X6172Y4733D01*
X6181Y4723D01*
X6192Y4715D01*
X6280Y4665D02*
X6291Y4657D01*
X6300Y4647D01*
X6306Y4635D01*
X6311Y4622D01*
X6312Y4609D01*
X6280Y4666D02*
X6192Y4714D01*
X6496Y4609D02*
X6496Y4835D01*
X6496Y4609D02*
X6494Y4595D01*
X6490Y4581D01*
X6482Y4569D01*
X6472Y4559D01*
X6460Y4551D01*
X6446Y4547D01*
X6432Y4545D01*
X6399Y4545D01*
X6720Y4836D02*
X6736Y4834D01*
X6752Y4829D01*
X6766Y4820D01*
X6777Y4809D01*
X6786Y4795D01*
X6791Y4779D01*
X6793Y4763D01*
X6720Y4835D02*
X6703Y4834D01*
X6687Y4829D01*
X6672Y4822D01*
X6659Y4812D01*
X6647Y4800D01*
X6638Y4786D01*
X6632Y4771D01*
X6769Y4707D02*
X6779Y4718D01*
X6787Y4732D01*
X6791Y4747D01*
X6793Y4763D01*
X6768Y4706D02*
X6631Y4545D01*
X6792Y4545D01*
X11301Y4582D02*
X11301Y4872D01*
X11430Y4872D01*
X11430Y4743D02*
X11301Y4743D01*
X11550Y4663D02*
X11550Y4872D01*
X11550Y4663D02*
X11552Y4646D01*
X11557Y4630D01*
X11565Y4615D01*
X11577Y4603D01*
X11591Y4593D01*
X11606Y4586D01*
X11623Y4582D01*
X11639Y4582D01*
X11656Y4586D01*
X11672Y4593D01*
X11685Y4603D01*
X11697Y4615D01*
X11705Y4630D01*
X11710Y4646D01*
X11712Y4663D01*
X11711Y4663D02*
X11711Y4872D01*
X11935Y4582D02*
X11949Y4584D01*
X11963Y4588D01*
X11975Y4596D01*
X11985Y4606D01*
X11993Y4618D01*
X11997Y4632D01*
X11999Y4646D01*
X11935Y4582D02*
X11914Y4584D01*
X11893Y4589D01*
X11873Y4597D01*
X11855Y4608D01*
X11838Y4622D01*
X11846Y4808D02*
X11848Y4822D01*
X11852Y4836D01*
X11860Y4848D01*
X11870Y4858D01*
X11882Y4866D01*
X11896Y4870D01*
X11910Y4872D01*
X11929Y4870D01*
X11948Y4866D01*
X11966Y4858D01*
X11983Y4848D01*
X11846Y4808D02*
X11847Y4795D01*
X11852Y4782D01*
X11858Y4770D01*
X11867Y4760D01*
X11878Y4752D01*
X11967Y4702D02*
X11978Y4694D01*
X11987Y4684D01*
X11993Y4672D01*
X11998Y4659D01*
X11999Y4646D01*
X11967Y4703D02*
X11878Y4751D01*
X12127Y4582D02*
X12255Y4582D01*
X12127Y4582D02*
X12127Y4872D01*
X12255Y4872D01*
X12223Y4743D02*
X12127Y4743D01*
M02*
