G04 EAGLE Gerber X2 export*
G75*
%MOIN*%
%FSLAX34Y34*%
%LPD*%
%AMOC8*
5,1,8,0,0,1.08239X$1,22.5*%
G01*
%ADD10C,0.000000*%
%ADD11C,0.002000*%
%ADD12C,0.003000*%


D10*
X0Y0D02*
X14000Y0D01*
X14000Y7000D01*
X0Y7000D01*
X0Y0D01*
D11*
X3909Y4610D02*
X3958Y4610D01*
X3909Y4610D02*
X3896Y4612D01*
X3885Y4617D01*
X3874Y4624D01*
X3867Y4635D01*
X3862Y4646D01*
X3860Y4659D01*
X3860Y4781D01*
X3862Y4794D01*
X3867Y4805D01*
X3874Y4816D01*
X3884Y4823D01*
X3896Y4828D01*
X3909Y4830D01*
X3958Y4830D01*
X4041Y4781D02*
X4102Y4830D01*
X4102Y4610D01*
X4041Y4610D02*
X4163Y4610D01*
X2335Y4620D02*
X2286Y4620D01*
X2273Y4622D01*
X2262Y4627D01*
X2251Y4634D01*
X2244Y4645D01*
X2239Y4656D01*
X2237Y4669D01*
X2237Y4791D01*
X2239Y4804D01*
X2244Y4815D01*
X2251Y4826D01*
X2261Y4833D01*
X2273Y4838D01*
X2286Y4840D01*
X2335Y4840D01*
X2485Y4840D02*
X2497Y4839D01*
X2509Y4835D01*
X2519Y4828D01*
X2528Y4819D01*
X2535Y4809D01*
X2539Y4797D01*
X2540Y4785D01*
X2485Y4840D02*
X2470Y4838D01*
X2456Y4834D01*
X2443Y4826D01*
X2432Y4816D01*
X2423Y4804D01*
X2417Y4791D01*
X2522Y4742D02*
X2529Y4751D01*
X2535Y4762D01*
X2539Y4773D01*
X2540Y4785D01*
X2522Y4742D02*
X2418Y4620D01*
X2540Y4620D01*
X6409Y4360D02*
X6458Y4360D01*
X6409Y4360D02*
X6396Y4362D01*
X6385Y4367D01*
X6374Y4374D01*
X6367Y4385D01*
X6362Y4396D01*
X6360Y4409D01*
X6360Y4531D01*
X6362Y4544D01*
X6367Y4555D01*
X6374Y4566D01*
X6384Y4573D01*
X6396Y4578D01*
X6409Y4580D01*
X6458Y4580D01*
X6541Y4360D02*
X6602Y4360D01*
X6617Y4362D01*
X6630Y4367D01*
X6642Y4375D01*
X6652Y4386D01*
X6659Y4399D01*
X6663Y4414D01*
X6663Y4428D01*
X6659Y4443D01*
X6652Y4456D01*
X6642Y4467D01*
X6630Y4475D01*
X6617Y4480D01*
X6602Y4482D01*
X6614Y4580D02*
X6541Y4580D01*
X6614Y4580D02*
X6627Y4578D01*
X6639Y4573D01*
X6649Y4566D01*
X6656Y4556D01*
X6661Y4544D01*
X6663Y4531D01*
X6661Y4518D01*
X6656Y4507D01*
X6649Y4496D01*
X6639Y4489D01*
X6627Y4484D01*
X6614Y4482D01*
X6565Y4482D01*
X9409Y1660D02*
X9458Y1660D01*
X9409Y1660D02*
X9396Y1662D01*
X9385Y1667D01*
X9374Y1674D01*
X9367Y1685D01*
X9362Y1696D01*
X9360Y1709D01*
X9360Y1831D01*
X9362Y1844D01*
X9367Y1855D01*
X9374Y1866D01*
X9384Y1873D01*
X9396Y1878D01*
X9409Y1880D01*
X9458Y1880D01*
X9590Y1880D02*
X9541Y1709D01*
X9663Y1709D01*
X9626Y1758D02*
X9626Y1660D01*
X4658Y4160D02*
X4609Y4160D01*
X4596Y4162D01*
X4585Y4167D01*
X4574Y4174D01*
X4567Y4185D01*
X4562Y4196D01*
X4560Y4209D01*
X4560Y4331D01*
X4562Y4344D01*
X4567Y4355D01*
X4574Y4366D01*
X4584Y4373D01*
X4596Y4378D01*
X4609Y4380D01*
X4658Y4380D01*
X4741Y4160D02*
X4814Y4160D01*
X4827Y4162D01*
X4838Y4167D01*
X4849Y4174D01*
X4856Y4184D01*
X4861Y4196D01*
X4863Y4209D01*
X4863Y4233D01*
X4861Y4246D01*
X4856Y4258D01*
X4849Y4268D01*
X4839Y4275D01*
X4827Y4280D01*
X4814Y4282D01*
X4741Y4282D01*
X4741Y4380D01*
X4863Y4380D01*
X10209Y5810D02*
X10258Y5810D01*
X10209Y5810D02*
X10196Y5812D01*
X10185Y5817D01*
X10174Y5824D01*
X10167Y5835D01*
X10162Y5846D01*
X10160Y5859D01*
X10160Y5981D01*
X10162Y5994D01*
X10167Y6005D01*
X10174Y6016D01*
X10184Y6023D01*
X10196Y6028D01*
X10209Y6030D01*
X10258Y6030D01*
X10341Y5932D02*
X10414Y5932D01*
X10427Y5930D01*
X10439Y5925D01*
X10449Y5918D01*
X10456Y5908D01*
X10461Y5896D01*
X10463Y5883D01*
X10463Y5871D01*
X10461Y5856D01*
X10456Y5843D01*
X10448Y5831D01*
X10437Y5821D01*
X10424Y5814D01*
X10409Y5810D01*
X10395Y5810D01*
X10380Y5814D01*
X10367Y5821D01*
X10356Y5831D01*
X10348Y5843D01*
X10343Y5856D01*
X10341Y5871D01*
X10341Y5932D01*
X10340Y5932D02*
X10342Y5951D01*
X10347Y5970D01*
X10357Y5986D01*
X10369Y6001D01*
X10384Y6013D01*
X10400Y6023D01*
X10419Y6028D01*
X10438Y6030D01*
X9308Y3360D02*
X9259Y3360D01*
X9246Y3362D01*
X9235Y3367D01*
X9224Y3374D01*
X9217Y3385D01*
X9212Y3396D01*
X9210Y3409D01*
X9210Y3531D01*
X9212Y3544D01*
X9217Y3555D01*
X9224Y3566D01*
X9234Y3573D01*
X9246Y3578D01*
X9259Y3580D01*
X9308Y3580D01*
X9391Y3580D02*
X9391Y3556D01*
X9391Y3580D02*
X9513Y3580D01*
X9452Y3360D01*
X4710Y6010D02*
X4710Y6230D01*
X4771Y6230D01*
X4786Y6228D01*
X4799Y6223D01*
X4811Y6215D01*
X4821Y6204D01*
X4828Y6191D01*
X4832Y6176D01*
X4832Y6162D01*
X4828Y6147D01*
X4821Y6134D01*
X4811Y6123D01*
X4799Y6115D01*
X4786Y6110D01*
X4771Y6108D01*
X4710Y6108D01*
X4783Y6108D02*
X4832Y6010D01*
X4925Y6181D02*
X4986Y6230D01*
X4986Y6010D01*
X4925Y6010D02*
X5047Y6010D01*
X7887Y1840D02*
X7887Y1620D01*
X7887Y1840D02*
X7948Y1840D01*
X7963Y1838D01*
X7976Y1833D01*
X7988Y1825D01*
X7998Y1814D01*
X8005Y1801D01*
X8009Y1786D01*
X8009Y1772D01*
X8005Y1757D01*
X7998Y1744D01*
X7988Y1733D01*
X7976Y1725D01*
X7963Y1720D01*
X7948Y1718D01*
X7887Y1718D01*
X7961Y1718D02*
X8009Y1620D01*
X8102Y1791D02*
X8163Y1840D01*
X8163Y1620D01*
X8102Y1620D02*
X8224Y1620D01*
X8318Y1730D02*
X8319Y1750D01*
X8323Y1771D01*
X8328Y1790D01*
X8336Y1809D01*
X8336Y1810D02*
X8341Y1820D01*
X8349Y1828D01*
X8358Y1835D01*
X8368Y1839D01*
X8379Y1840D01*
X8390Y1839D01*
X8400Y1835D01*
X8409Y1828D01*
X8417Y1820D01*
X8422Y1810D01*
X8422Y1809D02*
X8430Y1790D01*
X8435Y1771D01*
X8439Y1750D01*
X8440Y1730D01*
X8318Y1730D02*
X8319Y1710D01*
X8323Y1689D01*
X8328Y1670D01*
X8336Y1651D01*
X8336Y1650D02*
X8341Y1640D01*
X8349Y1632D01*
X8358Y1625D01*
X8368Y1621D01*
X8379Y1620D01*
X8422Y1651D02*
X8430Y1670D01*
X8435Y1689D01*
X8439Y1710D01*
X8440Y1730D01*
X8422Y1650D02*
X8417Y1640D01*
X8409Y1632D01*
X8400Y1625D01*
X8390Y1621D01*
X8379Y1620D01*
X8330Y1669D02*
X8428Y1791D01*
X10287Y2420D02*
X10287Y2640D01*
X10348Y2640D01*
X10363Y2638D01*
X10376Y2633D01*
X10388Y2625D01*
X10398Y2614D01*
X10405Y2601D01*
X10409Y2586D01*
X10409Y2572D01*
X10405Y2557D01*
X10398Y2544D01*
X10388Y2533D01*
X10376Y2525D01*
X10363Y2520D01*
X10348Y2518D01*
X10287Y2518D01*
X10361Y2518D02*
X10409Y2420D01*
X10502Y2591D02*
X10563Y2640D01*
X10563Y2420D01*
X10502Y2420D02*
X10624Y2420D01*
X10718Y2591D02*
X10779Y2640D01*
X10779Y2420D01*
X10718Y2420D02*
X10840Y2420D01*
X8360Y4960D02*
X8360Y5180D01*
X8421Y5180D01*
X8436Y5178D01*
X8449Y5173D01*
X8461Y5165D01*
X8471Y5154D01*
X8478Y5141D01*
X8482Y5126D01*
X8482Y5112D01*
X8478Y5097D01*
X8471Y5084D01*
X8461Y5073D01*
X8449Y5065D01*
X8436Y5060D01*
X8421Y5058D01*
X8360Y5058D01*
X8433Y5058D02*
X8482Y4960D01*
X8575Y5131D02*
X8636Y5180D01*
X8636Y4960D01*
X8575Y4960D02*
X8697Y4960D01*
X8913Y5125D02*
X8912Y5137D01*
X8908Y5149D01*
X8901Y5159D01*
X8892Y5168D01*
X8882Y5175D01*
X8870Y5179D01*
X8858Y5180D01*
X8843Y5178D01*
X8829Y5174D01*
X8816Y5166D01*
X8805Y5156D01*
X8796Y5144D01*
X8790Y5131D01*
X8895Y5082D02*
X8902Y5091D01*
X8908Y5102D01*
X8912Y5113D01*
X8913Y5125D01*
X8894Y5082D02*
X8791Y4960D01*
X8913Y4960D01*
X9087Y4340D02*
X9087Y4120D01*
X9087Y4340D02*
X9148Y4340D01*
X9163Y4338D01*
X9176Y4333D01*
X9188Y4325D01*
X9198Y4314D01*
X9205Y4301D01*
X9209Y4286D01*
X9209Y4272D01*
X9205Y4257D01*
X9198Y4244D01*
X9188Y4233D01*
X9176Y4225D01*
X9163Y4220D01*
X9148Y4218D01*
X9087Y4218D01*
X9161Y4218D02*
X9209Y4120D01*
X9302Y4291D02*
X9363Y4340D01*
X9363Y4120D01*
X9302Y4120D02*
X9424Y4120D01*
X9518Y4120D02*
X9579Y4120D01*
X9594Y4122D01*
X9607Y4127D01*
X9619Y4135D01*
X9629Y4146D01*
X9636Y4159D01*
X9640Y4174D01*
X9640Y4188D01*
X9636Y4203D01*
X9629Y4216D01*
X9619Y4227D01*
X9607Y4235D01*
X9594Y4240D01*
X9579Y4242D01*
X9591Y4340D02*
X9518Y4340D01*
X9591Y4340D02*
X9604Y4338D01*
X9616Y4333D01*
X9626Y4326D01*
X9633Y4316D01*
X9638Y4304D01*
X9640Y4291D01*
X9638Y4278D01*
X9633Y4267D01*
X9626Y4256D01*
X9616Y4249D01*
X9604Y4244D01*
X9591Y4242D01*
X9542Y4242D01*
X11060Y4910D02*
X11060Y5130D01*
X11121Y5130D01*
X11136Y5128D01*
X11149Y5123D01*
X11161Y5115D01*
X11171Y5104D01*
X11178Y5091D01*
X11182Y5076D01*
X11182Y5062D01*
X11178Y5047D01*
X11171Y5034D01*
X11161Y5023D01*
X11149Y5015D01*
X11136Y5010D01*
X11121Y5008D01*
X11060Y5008D01*
X11133Y5008D02*
X11182Y4910D01*
X11275Y5081D02*
X11336Y5130D01*
X11336Y4910D01*
X11275Y4910D02*
X11397Y4910D01*
X11491Y4959D02*
X11539Y5130D01*
X11491Y4959D02*
X11613Y4959D01*
X11576Y5008D02*
X11576Y4910D01*
X4060Y4180D02*
X4060Y3960D01*
X4060Y4180D02*
X4121Y4180D01*
X4136Y4178D01*
X4149Y4173D01*
X4161Y4165D01*
X4171Y4154D01*
X4178Y4141D01*
X4182Y4126D01*
X4182Y4112D01*
X4178Y4097D01*
X4171Y4084D01*
X4161Y4073D01*
X4149Y4065D01*
X4136Y4060D01*
X4121Y4058D01*
X4060Y4058D01*
X4133Y4058D02*
X4182Y3960D01*
X4397Y4125D02*
X4396Y4137D01*
X4392Y4149D01*
X4385Y4159D01*
X4376Y4168D01*
X4366Y4175D01*
X4354Y4179D01*
X4342Y4180D01*
X4327Y4178D01*
X4313Y4174D01*
X4300Y4166D01*
X4289Y4156D01*
X4280Y4144D01*
X4274Y4131D01*
X4379Y4082D02*
X4386Y4091D01*
X4392Y4102D01*
X4396Y4113D01*
X4397Y4125D01*
X4378Y4082D02*
X4275Y3960D01*
X4397Y3960D01*
X3110Y5910D02*
X3110Y6130D01*
X3171Y6130D01*
X3186Y6128D01*
X3199Y6123D01*
X3211Y6115D01*
X3221Y6104D01*
X3228Y6091D01*
X3232Y6076D01*
X3232Y6062D01*
X3228Y6047D01*
X3221Y6034D01*
X3211Y6023D01*
X3199Y6015D01*
X3186Y6010D01*
X3171Y6008D01*
X3110Y6008D01*
X3183Y6008D02*
X3232Y5910D01*
X3325Y5910D02*
X3386Y5910D01*
X3401Y5912D01*
X3414Y5917D01*
X3426Y5925D01*
X3436Y5936D01*
X3443Y5949D01*
X3447Y5964D01*
X3447Y5978D01*
X3443Y5993D01*
X3436Y6006D01*
X3426Y6017D01*
X3414Y6025D01*
X3401Y6030D01*
X3386Y6032D01*
X3398Y6130D02*
X3325Y6130D01*
X3398Y6130D02*
X3411Y6128D01*
X3423Y6123D01*
X3433Y6116D01*
X3440Y6106D01*
X3445Y6094D01*
X3447Y6081D01*
X3445Y6068D01*
X3440Y6057D01*
X3433Y6046D01*
X3423Y6039D01*
X3411Y6034D01*
X3398Y6032D01*
X3349Y6032D01*
X2410Y4180D02*
X2410Y3960D01*
X2410Y4180D02*
X2471Y4180D01*
X2486Y4178D01*
X2499Y4173D01*
X2511Y4165D01*
X2521Y4154D01*
X2528Y4141D01*
X2532Y4126D01*
X2532Y4112D01*
X2528Y4097D01*
X2521Y4084D01*
X2511Y4073D01*
X2499Y4065D01*
X2486Y4060D01*
X2471Y4058D01*
X2410Y4058D01*
X2483Y4058D02*
X2532Y3960D01*
X2625Y3960D02*
X2698Y3960D01*
X2711Y3962D01*
X2722Y3967D01*
X2733Y3974D01*
X2740Y3984D01*
X2745Y3996D01*
X2747Y4009D01*
X2747Y4033D01*
X2745Y4046D01*
X2740Y4058D01*
X2733Y4068D01*
X2723Y4075D01*
X2711Y4080D01*
X2698Y4082D01*
X2625Y4082D01*
X2625Y4180D01*
X2747Y4180D01*
X2510Y580D02*
X2510Y360D01*
X2510Y580D02*
X2571Y580D01*
X2586Y578D01*
X2599Y573D01*
X2611Y565D01*
X2621Y554D01*
X2628Y541D01*
X2632Y526D01*
X2632Y512D01*
X2628Y497D01*
X2621Y484D01*
X2611Y473D01*
X2599Y465D01*
X2586Y460D01*
X2571Y458D01*
X2510Y458D01*
X2583Y458D02*
X2632Y360D01*
X2725Y482D02*
X2798Y482D01*
X2811Y480D01*
X2823Y475D01*
X2833Y468D01*
X2840Y458D01*
X2845Y446D01*
X2847Y433D01*
X2847Y421D01*
X2845Y406D01*
X2840Y393D01*
X2832Y381D01*
X2821Y371D01*
X2808Y364D01*
X2793Y360D01*
X2779Y360D01*
X2764Y364D01*
X2751Y371D01*
X2740Y381D01*
X2732Y393D01*
X2727Y406D01*
X2725Y421D01*
X2725Y482D01*
X2724Y482D02*
X2726Y501D01*
X2731Y520D01*
X2741Y536D01*
X2753Y551D01*
X2768Y563D01*
X2784Y573D01*
X2803Y578D01*
X2822Y580D01*
X3253Y3920D02*
X3253Y4140D01*
X3314Y4140D01*
X3329Y4138D01*
X3342Y4133D01*
X3354Y4125D01*
X3364Y4114D01*
X3371Y4101D01*
X3375Y4086D01*
X3375Y4072D01*
X3371Y4057D01*
X3364Y4044D01*
X3354Y4033D01*
X3342Y4025D01*
X3329Y4020D01*
X3314Y4018D01*
X3253Y4018D01*
X3327Y4018D02*
X3375Y3920D01*
X3468Y4116D02*
X3468Y4140D01*
X3590Y4140D01*
X3529Y3920D01*
X7560Y3030D02*
X7560Y2810D01*
X7560Y3030D02*
X7621Y3030D01*
X7636Y3028D01*
X7649Y3023D01*
X7661Y3015D01*
X7671Y3004D01*
X7678Y2991D01*
X7682Y2976D01*
X7682Y2962D01*
X7678Y2947D01*
X7671Y2934D01*
X7661Y2923D01*
X7649Y2915D01*
X7636Y2910D01*
X7621Y2908D01*
X7560Y2908D01*
X7633Y2908D02*
X7682Y2810D01*
X7775Y2871D02*
X7777Y2886D01*
X7782Y2899D01*
X7790Y2911D01*
X7801Y2921D01*
X7814Y2928D01*
X7829Y2932D01*
X7843Y2932D01*
X7858Y2928D01*
X7871Y2921D01*
X7882Y2911D01*
X7890Y2899D01*
X7895Y2886D01*
X7897Y2871D01*
X7895Y2856D01*
X7890Y2843D01*
X7882Y2831D01*
X7871Y2821D01*
X7858Y2814D01*
X7843Y2810D01*
X7829Y2810D01*
X7814Y2814D01*
X7801Y2821D01*
X7790Y2831D01*
X7782Y2843D01*
X7777Y2856D01*
X7775Y2871D01*
X7787Y2981D02*
X7789Y2994D01*
X7794Y3006D01*
X7801Y3016D01*
X7812Y3023D01*
X7823Y3028D01*
X7836Y3030D01*
X7849Y3028D01*
X7861Y3023D01*
X7871Y3016D01*
X7878Y3006D01*
X7883Y2994D01*
X7885Y2981D01*
X7883Y2968D01*
X7878Y2957D01*
X7871Y2946D01*
X7861Y2939D01*
X7849Y2934D01*
X7836Y2932D01*
X7823Y2934D01*
X7812Y2939D01*
X7801Y2946D01*
X7794Y2957D01*
X7789Y2968D01*
X7787Y2981D01*
X10060Y1880D02*
X10060Y1660D01*
X10060Y1880D02*
X10121Y1880D01*
X10136Y1878D01*
X10149Y1873D01*
X10161Y1865D01*
X10171Y1854D01*
X10178Y1841D01*
X10182Y1826D01*
X10182Y1812D01*
X10178Y1797D01*
X10171Y1784D01*
X10161Y1773D01*
X10149Y1765D01*
X10136Y1760D01*
X10121Y1758D01*
X10060Y1758D01*
X10133Y1758D02*
X10182Y1660D01*
X10323Y1758D02*
X10397Y1758D01*
X10323Y1758D02*
X10310Y1760D01*
X10298Y1765D01*
X10288Y1772D01*
X10281Y1783D01*
X10276Y1794D01*
X10274Y1807D01*
X10275Y1807D02*
X10275Y1819D01*
X10277Y1834D01*
X10282Y1847D01*
X10290Y1859D01*
X10301Y1869D01*
X10314Y1876D01*
X10329Y1880D01*
X10343Y1880D01*
X10358Y1876D01*
X10371Y1869D01*
X10382Y1859D01*
X10390Y1847D01*
X10395Y1834D01*
X10397Y1819D01*
X10397Y1758D01*
X10396Y1741D01*
X10391Y1724D01*
X10384Y1709D01*
X10374Y1695D01*
X10362Y1683D01*
X10348Y1673D01*
X10333Y1666D01*
X10316Y1661D01*
X10299Y1660D01*
X3983Y410D02*
X3910Y630D01*
X4057Y630D02*
X3983Y410D01*
X4145Y410D02*
X4145Y630D01*
X4207Y630D01*
X4221Y628D01*
X4233Y624D01*
X4245Y617D01*
X4255Y607D01*
X4262Y595D01*
X4266Y583D01*
X4268Y569D01*
X4268Y471D01*
X4266Y457D01*
X4262Y445D01*
X4255Y433D01*
X4245Y423D01*
X4233Y416D01*
X4221Y412D01*
X4207Y410D01*
X4145Y410D01*
X4369Y581D02*
X4430Y630D01*
X4430Y410D01*
X4369Y410D02*
X4491Y410D01*
X11060Y1680D02*
X11133Y1460D01*
X11207Y1680D01*
X11295Y1680D02*
X11295Y1460D01*
X11295Y1680D02*
X11357Y1680D01*
X11371Y1678D01*
X11383Y1674D01*
X11395Y1667D01*
X11405Y1657D01*
X11412Y1645D01*
X11416Y1633D01*
X11418Y1619D01*
X11418Y1521D01*
X11416Y1507D01*
X11412Y1495D01*
X11405Y1483D01*
X11395Y1473D01*
X11383Y1466D01*
X11371Y1462D01*
X11357Y1460D01*
X11295Y1460D01*
X11586Y1680D02*
X11598Y1679D01*
X11610Y1675D01*
X11620Y1668D01*
X11629Y1659D01*
X11636Y1649D01*
X11640Y1637D01*
X11641Y1625D01*
X11586Y1680D02*
X11571Y1678D01*
X11557Y1674D01*
X11544Y1666D01*
X11533Y1656D01*
X11524Y1644D01*
X11518Y1631D01*
X11623Y1582D02*
X11630Y1591D01*
X11636Y1602D01*
X11640Y1613D01*
X11641Y1625D01*
X11623Y1582D02*
X11519Y1460D01*
X11641Y1460D01*
X6632Y1020D02*
X6559Y1240D01*
X6706Y1240D02*
X6632Y1020D01*
X6795Y1020D02*
X6795Y1240D01*
X6856Y1240D01*
X6870Y1238D01*
X6882Y1234D01*
X6894Y1227D01*
X6904Y1217D01*
X6911Y1205D01*
X6915Y1193D01*
X6917Y1179D01*
X6917Y1081D01*
X6915Y1067D01*
X6911Y1055D01*
X6904Y1043D01*
X6894Y1033D01*
X6882Y1026D01*
X6870Y1022D01*
X6856Y1020D01*
X6795Y1020D01*
X7018Y1020D02*
X7079Y1020D01*
X7094Y1022D01*
X7107Y1027D01*
X7119Y1035D01*
X7129Y1046D01*
X7136Y1059D01*
X7140Y1074D01*
X7140Y1088D01*
X7136Y1103D01*
X7129Y1116D01*
X7119Y1127D01*
X7107Y1135D01*
X7094Y1140D01*
X7079Y1142D01*
X7091Y1240D02*
X7018Y1240D01*
X7091Y1240D02*
X7104Y1238D01*
X7116Y1233D01*
X7126Y1226D01*
X7133Y1216D01*
X7138Y1204D01*
X7140Y1191D01*
X7138Y1178D01*
X7133Y1167D01*
X7126Y1156D01*
X7116Y1149D01*
X7104Y1144D01*
X7091Y1142D01*
X7042Y1142D01*
X5783Y1810D02*
X5710Y2030D01*
X5857Y2030D02*
X5783Y1810D01*
X5985Y1810D02*
X5985Y2030D01*
X5924Y2030D02*
X6046Y2030D01*
X6125Y1981D02*
X6187Y2030D01*
X6187Y1810D01*
X6248Y1810D02*
X6125Y1810D01*
X9310Y2880D02*
X9383Y2660D01*
X9457Y2880D01*
X9585Y2880D02*
X9585Y2660D01*
X9524Y2880D02*
X9646Y2880D01*
X9793Y2880D02*
X9805Y2879D01*
X9817Y2875D01*
X9827Y2868D01*
X9836Y2859D01*
X9843Y2849D01*
X9847Y2837D01*
X9848Y2825D01*
X9793Y2880D02*
X9778Y2878D01*
X9764Y2874D01*
X9751Y2866D01*
X9740Y2856D01*
X9731Y2844D01*
X9725Y2831D01*
X9830Y2782D02*
X9837Y2791D01*
X9843Y2802D01*
X9847Y2813D01*
X9848Y2825D01*
X9829Y2782D02*
X9725Y2660D01*
X9848Y2660D01*
X7383Y4630D02*
X7310Y4850D01*
X7457Y4850D02*
X7383Y4630D01*
X7585Y4630D02*
X7585Y4850D01*
X7524Y4850D02*
X7646Y4850D01*
X7725Y4630D02*
X7787Y4630D01*
X7802Y4632D01*
X7815Y4637D01*
X7827Y4645D01*
X7837Y4656D01*
X7844Y4669D01*
X7848Y4684D01*
X7848Y4698D01*
X7844Y4713D01*
X7837Y4726D01*
X7827Y4737D01*
X7815Y4745D01*
X7802Y4750D01*
X7787Y4752D01*
X7799Y4850D02*
X7725Y4850D01*
X7799Y4850D02*
X7812Y4848D01*
X7824Y4843D01*
X7834Y4836D01*
X7841Y4826D01*
X7846Y4814D01*
X7848Y4801D01*
X7846Y4788D01*
X7841Y4777D01*
X7834Y4766D01*
X7824Y4759D01*
X7812Y4754D01*
X7799Y4752D01*
X7750Y4752D01*
D10*
X14000Y5700D02*
X14000Y1300D01*
D12*
X13063Y935D02*
X12870Y645D01*
X13063Y645D02*
X12870Y935D01*
X13174Y871D02*
X13254Y935D01*
X13254Y645D01*
X13174Y645D02*
X13335Y645D01*
D10*
X50Y1300D02*
X50Y5700D01*
D12*
X1058Y1005D02*
X865Y715D01*
X1058Y715D02*
X865Y1005D01*
X1258Y1006D02*
X1274Y1004D01*
X1290Y999D01*
X1304Y990D01*
X1315Y979D01*
X1324Y965D01*
X1329Y949D01*
X1331Y933D01*
X1258Y1005D02*
X1241Y1004D01*
X1225Y999D01*
X1210Y992D01*
X1197Y982D01*
X1185Y970D01*
X1176Y956D01*
X1170Y941D01*
X1306Y877D02*
X1316Y888D01*
X1324Y902D01*
X1328Y917D01*
X1330Y933D01*
X1306Y876D02*
X1169Y715D01*
X1330Y715D01*
D11*
X6260Y5010D02*
X6260Y5230D01*
X6321Y5230D01*
X6336Y5228D01*
X6349Y5223D01*
X6361Y5215D01*
X6371Y5204D01*
X6378Y5191D01*
X6382Y5176D01*
X6382Y5162D01*
X6378Y5147D01*
X6371Y5134D01*
X6361Y5123D01*
X6349Y5115D01*
X6336Y5110D01*
X6321Y5108D01*
X6260Y5108D01*
X6333Y5108D02*
X6382Y5010D01*
X6475Y5059D02*
X6523Y5230D01*
X6475Y5059D02*
X6597Y5059D01*
X6560Y5108D02*
X6560Y5010D01*
M02*
