G04 EAGLE Gerber X2 export*
G75*
%MOIN*%
%FSLAX34Y34*%
%LPD*%
%AMOC8*
5,1,8,0,0,1.08239X$1,22.5*%
G01*
%ADD10C,0.021685*%
%ADD11C,0.025935*%
%ADD12C,0.026012*%
%ADD13C,0.025187*%
%ADD14C,0.026000*%
%ADD15C,0.025372*%
%ADD16C,0.025380*%


D10*
X5057Y4809D02*
X5313Y4809D01*
X5313Y4591D01*
X5057Y4591D01*
X5057Y4809D01*
X5057Y4807D02*
X5313Y4807D01*
X4643Y4809D02*
X4387Y4809D01*
X4643Y4809D02*
X4643Y4591D01*
X4387Y4591D01*
X4387Y4809D01*
X4387Y4807D02*
X4643Y4807D01*
X3613Y4809D02*
X3357Y4809D01*
X3613Y4809D02*
X3613Y4591D01*
X3357Y4591D01*
X3357Y4809D01*
X3357Y4807D02*
X3613Y4807D01*
X2943Y4809D02*
X2687Y4809D01*
X2943Y4809D02*
X2943Y4591D01*
X2687Y4591D01*
X2687Y4809D01*
X2687Y4807D02*
X2943Y4807D01*
X5891Y4113D02*
X5891Y3857D01*
X5891Y4113D02*
X6109Y4113D01*
X6109Y3857D01*
X5891Y3857D01*
X5891Y4073D02*
X6109Y4073D01*
X5891Y3443D02*
X5891Y3187D01*
X5891Y3443D02*
X6109Y3443D01*
X6109Y3187D01*
X5891Y3187D01*
X5891Y3403D02*
X6109Y3403D01*
X9091Y1413D02*
X9091Y1157D01*
X9091Y1413D02*
X9309Y1413D01*
X9309Y1157D01*
X9091Y1157D01*
X9091Y1373D02*
X9309Y1373D01*
X9091Y743D02*
X9091Y487D01*
X9091Y743D02*
X9309Y743D01*
X9309Y487D01*
X9091Y487D01*
X9091Y703D02*
X9309Y703D01*
X5091Y3857D02*
X5091Y4113D01*
X5309Y4113D01*
X5309Y3857D01*
X5091Y3857D01*
X5091Y4073D02*
X5309Y4073D01*
X5091Y3443D02*
X5091Y3187D01*
X5091Y3443D02*
X5309Y3443D01*
X5309Y3187D01*
X5091Y3187D01*
X5091Y3403D02*
X5309Y3403D01*
X9837Y5291D02*
X10093Y5291D01*
X9837Y5291D02*
X9837Y5509D01*
X10093Y5509D01*
X10093Y5291D01*
X10093Y5507D02*
X9837Y5507D01*
X10507Y5291D02*
X10763Y5291D01*
X10507Y5291D02*
X10507Y5509D01*
X10763Y5509D01*
X10763Y5291D01*
X10763Y5507D02*
X10507Y5507D01*
X10093Y3691D02*
X9837Y3691D01*
X9837Y3909D01*
X10093Y3909D01*
X10093Y3691D01*
X10093Y3907D02*
X9837Y3907D01*
X10507Y3691D02*
X10763Y3691D01*
X10507Y3691D02*
X10507Y3909D01*
X10763Y3909D01*
X10763Y3691D01*
X10763Y3907D02*
X10507Y3907D01*
X4624Y5372D02*
X4406Y5372D01*
X4406Y5628D01*
X4624Y5628D01*
X4624Y5372D01*
X4624Y5588D02*
X4406Y5588D01*
X5076Y5372D02*
X5294Y5372D01*
X5076Y5372D02*
X5076Y5628D01*
X5294Y5628D01*
X5294Y5372D01*
X5294Y5588D02*
X5076Y5588D01*
X8528Y724D02*
X8528Y506D01*
X8272Y506D01*
X8272Y724D01*
X8528Y724D01*
X8528Y722D02*
X8272Y722D01*
X8528Y1176D02*
X8528Y1394D01*
X8528Y1176D02*
X8272Y1176D01*
X8272Y1394D01*
X8528Y1394D01*
X8528Y1392D02*
X8272Y1392D01*
X10556Y2872D02*
X10774Y2872D01*
X10556Y2872D02*
X10556Y3128D01*
X10774Y3128D01*
X10774Y2872D01*
X10774Y3088D02*
X10556Y3088D01*
X11226Y2872D02*
X11444Y2872D01*
X11226Y2872D02*
X11226Y3128D01*
X11444Y3128D01*
X11444Y2872D01*
X11444Y3088D02*
X11226Y3088D01*
X9122Y5276D02*
X9122Y5494D01*
X9378Y5494D01*
X9378Y5276D01*
X9122Y5276D01*
X9122Y5492D02*
X9378Y5492D01*
X9122Y4824D02*
X9122Y4606D01*
X9122Y4824D02*
X9378Y4824D01*
X9378Y4606D01*
X9122Y4606D01*
X9122Y4822D02*
X9378Y4822D01*
X10526Y4728D02*
X10744Y4728D01*
X10744Y4472D01*
X10526Y4472D01*
X10526Y4728D01*
X10526Y4688D02*
X10744Y4688D01*
X10074Y4728D02*
X9856Y4728D01*
X10074Y4728D02*
X10074Y4472D01*
X9856Y4472D01*
X9856Y4728D01*
X9856Y4688D02*
X10074Y4688D01*
X11478Y3974D02*
X11478Y3756D01*
X11222Y3756D01*
X11222Y3974D01*
X11478Y3974D01*
X11478Y3972D02*
X11222Y3972D01*
X11478Y4426D02*
X11478Y4644D01*
X11478Y4426D02*
X11222Y4426D01*
X11222Y4644D01*
X11478Y4644D01*
X11478Y4642D02*
X11222Y4642D01*
D11*
X4214Y3721D02*
X4214Y3427D01*
X4214Y3721D02*
X4586Y3721D01*
X4586Y3427D01*
X4214Y3427D01*
X4214Y3685D02*
X4586Y3685D01*
X4214Y2973D02*
X4214Y2679D01*
X4214Y2973D02*
X4586Y2973D01*
X4586Y2679D01*
X4214Y2679D01*
X4214Y2937D02*
X4586Y2937D01*
D10*
X3594Y5628D02*
X3376Y5628D01*
X3594Y5628D02*
X3594Y5372D01*
X3376Y5372D01*
X3376Y5628D01*
X3376Y5588D02*
X3594Y5588D01*
X2924Y5628D02*
X2706Y5628D01*
X2924Y5628D02*
X2924Y5372D01*
X2706Y5372D01*
X2706Y5628D01*
X2706Y5588D02*
X2924Y5588D01*
D11*
X2564Y3721D02*
X2564Y3427D01*
X2564Y3721D02*
X2936Y3721D01*
X2936Y3427D01*
X2564Y3427D01*
X2564Y3685D02*
X2936Y3685D01*
X2564Y2973D02*
X2564Y2679D01*
X2564Y2973D02*
X2936Y2973D01*
X2936Y2679D01*
X2564Y2679D01*
X2564Y2937D02*
X2936Y2937D01*
X2564Y1971D02*
X2564Y1677D01*
X2564Y1971D02*
X2936Y1971D01*
X2936Y1677D01*
X2564Y1677D01*
X2564Y1935D02*
X2936Y1935D01*
X2564Y1223D02*
X2564Y929D01*
X2564Y1223D02*
X2936Y1223D01*
X2936Y929D01*
X2564Y929D01*
X2564Y1187D02*
X2936Y1187D01*
X3736Y2679D02*
X3736Y2973D01*
X3736Y2679D02*
X3364Y2679D01*
X3364Y2973D01*
X3736Y2973D01*
X3736Y2937D02*
X3364Y2937D01*
X3736Y3427D02*
X3736Y3721D01*
X3736Y3427D02*
X3364Y3427D01*
X3364Y3721D01*
X3736Y3721D01*
X3736Y3685D02*
X3364Y3685D01*
X7179Y2164D02*
X7473Y2164D01*
X7179Y2164D02*
X7179Y2536D01*
X7473Y2536D01*
X7473Y2164D01*
X7473Y2422D02*
X7179Y2422D01*
X7927Y2164D02*
X8221Y2164D01*
X7927Y2164D02*
X7927Y2536D01*
X8221Y2536D01*
X8221Y2164D01*
X8221Y2422D02*
X7927Y2422D01*
D10*
X9872Y1394D02*
X9872Y1176D01*
X9872Y1394D02*
X10128Y1394D01*
X10128Y1176D01*
X9872Y1176D01*
X9872Y1392D02*
X10128Y1392D01*
X9872Y724D02*
X9872Y506D01*
X9872Y724D02*
X10128Y724D01*
X10128Y506D01*
X9872Y506D01*
X9872Y722D02*
X10128Y722D01*
X4209Y1796D02*
X3991Y1796D01*
X3991Y2170D01*
X4209Y2170D01*
X4209Y1796D01*
X4209Y2012D02*
X3991Y2012D01*
X4365Y930D02*
X4583Y930D01*
X4365Y930D02*
X4365Y1304D01*
X4583Y1304D01*
X4583Y930D01*
X4583Y1146D02*
X4365Y1146D01*
X3835Y930D02*
X3617Y930D01*
X3617Y1304D01*
X3835Y1304D01*
X3835Y930D01*
X3835Y1146D02*
X3617Y1146D01*
D12*
X11056Y2004D02*
X11056Y2334D01*
X11544Y2334D01*
X11544Y2004D01*
X11056Y2004D01*
X11056Y2263D02*
X11544Y2263D01*
X11056Y996D02*
X11056Y666D01*
X11056Y996D02*
X11544Y996D01*
X11544Y666D01*
X11056Y666D01*
X11056Y925D02*
X11544Y925D01*
D13*
X6295Y781D02*
X5807Y781D01*
X5807Y1419D01*
X6295Y1419D01*
X6295Y781D01*
X6295Y1032D02*
X5807Y1032D01*
X5807Y1283D02*
X6295Y1283D01*
X7409Y1419D02*
X7897Y1419D01*
X7897Y781D01*
X7409Y781D01*
X7409Y1419D01*
X7409Y1032D02*
X7897Y1032D01*
X7897Y1283D02*
X7409Y1283D01*
D10*
X5896Y2241D02*
X5896Y2459D01*
X6270Y2459D01*
X6270Y2241D01*
X5896Y2241D01*
X5896Y2457D02*
X6270Y2457D01*
X5030Y2085D02*
X5030Y1867D01*
X5030Y2085D02*
X5404Y2085D01*
X5404Y1867D01*
X5030Y1867D01*
X5030Y2083D02*
X5404Y2083D01*
X5030Y2615D02*
X5030Y2833D01*
X5404Y2833D01*
X5404Y2615D01*
X5030Y2615D01*
X5030Y2831D02*
X5404Y2831D01*
X9596Y2459D02*
X9596Y2241D01*
X9596Y2459D02*
X9970Y2459D01*
X9970Y2241D01*
X9596Y2241D01*
X9596Y2457D02*
X9970Y2457D01*
X8730Y2085D02*
X8730Y1867D01*
X8730Y2085D02*
X9104Y2085D01*
X9104Y1867D01*
X8730Y1867D01*
X8730Y2083D02*
X9104Y2083D01*
X8730Y2615D02*
X8730Y2833D01*
X9104Y2833D01*
X9104Y2615D01*
X8730Y2615D01*
X8730Y2831D02*
X9104Y2831D01*
D14*
X6820Y3300D02*
X6560Y3300D01*
X6560Y3960D01*
X6820Y3960D01*
X6820Y3300D01*
X6820Y3559D02*
X6560Y3559D01*
X6560Y3818D02*
X6820Y3818D01*
X7470Y3300D02*
X7730Y3300D01*
X7470Y3300D02*
X7470Y3960D01*
X7730Y3960D01*
X7730Y3300D01*
X7730Y3559D02*
X7470Y3559D01*
X7470Y3818D02*
X7730Y3818D01*
X8380Y3300D02*
X8640Y3300D01*
X8380Y3300D02*
X8380Y3960D01*
X8640Y3960D01*
X8640Y3300D01*
X8640Y3559D02*
X8380Y3559D01*
X8380Y3818D02*
X8640Y3818D01*
D15*
X8201Y5744D02*
X6999Y5744D01*
X6999Y6396D01*
X8201Y6396D01*
X8201Y5744D01*
X8201Y5997D02*
X6999Y5997D01*
X6999Y6250D02*
X8201Y6250D01*
D16*
X12097Y3843D02*
X13883Y3843D01*
X13883Y3157D01*
X12097Y3157D01*
X12097Y3843D01*
X12097Y3410D02*
X13883Y3410D01*
X13883Y3663D02*
X12097Y3663D01*
X12097Y2103D02*
X13883Y2103D01*
X13883Y1417D01*
X12097Y1417D01*
X12097Y2103D01*
X12097Y1670D02*
X13883Y1670D01*
X13883Y1923D02*
X12097Y1923D01*
X12097Y5583D02*
X13883Y5583D01*
X13883Y4897D01*
X12097Y4897D01*
X12097Y5583D01*
X12097Y5150D02*
X13883Y5150D01*
X13883Y5403D02*
X12097Y5403D01*
X1953Y3157D02*
X167Y3157D01*
X167Y3843D01*
X1953Y3843D01*
X1953Y3157D01*
X1953Y3410D02*
X167Y3410D01*
X167Y3663D02*
X1953Y3663D01*
X1953Y4897D02*
X167Y4897D01*
X167Y5583D01*
X1953Y5583D01*
X1953Y4897D01*
X1953Y5150D02*
X167Y5150D01*
X167Y5403D02*
X1953Y5403D01*
X1953Y1417D02*
X167Y1417D01*
X167Y2103D01*
X1953Y2103D01*
X1953Y1417D01*
X1953Y1670D02*
X167Y1670D01*
X167Y1923D02*
X1953Y1923D01*
D10*
X5772Y5276D02*
X5772Y5494D01*
X6028Y5494D01*
X6028Y5276D01*
X5772Y5276D01*
X5772Y5492D02*
X6028Y5492D01*
X5772Y4824D02*
X5772Y4606D01*
X5772Y4824D02*
X6028Y4824D01*
X6028Y4606D01*
X5772Y4606D01*
X5772Y4822D02*
X6028Y4822D01*
M02*
