G04 EAGLE Gerber X2 export*
G75*
%MOIN*%
%FSLAX34Y34*%
%LPD*%
%AMOC8*
5,1,8,0,0,1.08239X$1,22.5*%
G01*
%ADD10R,0.039370X0.043307*%
%ADD11R,0.043307X0.039370*%
%ADD12R,0.059055X0.051181*%
%ADD13R,0.051181X0.059055*%
%ADD14R,0.039370X0.055118*%
%ADD15R,0.070866X0.055118*%
%ADD16R,0.085039X0.070079*%
%ADD17R,0.048000X0.088000*%
%ADD18R,0.141732X0.086614*%
%ADD19R,0.200000X0.090000*%
%ADD20C,0.020000*%
%ADD21C,0.029717*%

G36*
X2318Y3911D02*
X2318Y3911D01*
X2324Y3911D01*
X2327Y3911D01*
X2330Y3911D01*
X2336Y3913D01*
X2341Y3913D01*
X2344Y3915D01*
X2348Y3915D01*
X2353Y3917D01*
X2358Y3919D01*
X2361Y3921D01*
X2364Y3922D01*
X2368Y3925D01*
X2373Y3928D01*
X2376Y3930D01*
X2379Y3932D01*
X2386Y3939D01*
X2387Y3939D01*
X2414Y3966D01*
X2478Y3993D01*
X2486Y3997D01*
X2493Y4001D01*
X2494Y4001D01*
X2500Y4006D01*
X2507Y4012D01*
X2508Y4012D01*
X2513Y4018D01*
X2519Y4025D01*
X2524Y4032D01*
X2529Y4040D01*
X2532Y4048D01*
X2535Y4056D01*
X2537Y4065D01*
X2539Y4073D01*
X2539Y4074D01*
X2539Y4085D01*
X2539Y4296D01*
X2538Y4305D01*
X2538Y4313D01*
X2538Y4314D01*
X2535Y4322D01*
X2533Y4330D01*
X2533Y4331D01*
X2529Y4338D01*
X2526Y4346D01*
X2525Y4347D01*
X2520Y4354D01*
X2515Y4361D01*
X2509Y4367D01*
X2503Y4373D01*
X2502Y4373D01*
X2495Y4378D01*
X2488Y4383D01*
X2487Y4383D01*
X2478Y4388D01*
X2408Y4417D01*
X2363Y4462D01*
X2338Y4521D01*
X2338Y4700D01*
X2338Y4701D01*
X2337Y4709D01*
X2336Y4717D01*
X2336Y4718D01*
X2334Y4726D01*
X2332Y4734D01*
X2332Y4735D01*
X2331Y4735D01*
X2328Y4743D01*
X2324Y4750D01*
X2324Y4751D01*
X2319Y4758D01*
X2314Y4765D01*
X2313Y4765D01*
X2307Y4771D01*
X2301Y4777D01*
X2300Y4778D01*
X2293Y4782D01*
X2287Y4787D01*
X2286Y4787D01*
X2278Y4791D01*
X2270Y4794D01*
X2269Y4794D01*
X2261Y4796D01*
X2253Y4798D01*
X2252Y4798D01*
X2244Y4798D01*
X2236Y4799D01*
X2235Y4799D01*
X2234Y4799D01*
X2226Y4798D01*
X2218Y4797D01*
X2217Y4797D01*
X2209Y4794D01*
X2201Y4792D01*
X2201Y4791D01*
X2200Y4791D01*
X2193Y4787D01*
X2185Y4783D01*
X2178Y4778D01*
X2171Y4773D01*
X2171Y4772D01*
X2165Y4766D01*
X2160Y4760D01*
X2159Y4759D01*
X2153Y4749D01*
X2141Y4728D01*
X2122Y4709D01*
X2099Y4696D01*
X2073Y4689D01*
X1259Y4689D01*
X1259Y5041D01*
X2161Y5041D01*
X2162Y5036D01*
X2162Y5034D01*
X2162Y5032D01*
X2164Y5025D01*
X2166Y5018D01*
X2167Y5017D01*
X2167Y5015D01*
X2170Y5009D01*
X2173Y5002D01*
X2174Y5001D01*
X2175Y4999D01*
X2179Y4993D01*
X2183Y4988D01*
X2184Y4986D01*
X2185Y4985D01*
X2190Y4980D01*
X2195Y4975D01*
X2196Y4974D01*
X2198Y4973D01*
X2203Y4969D01*
X2209Y4964D01*
X2211Y4964D01*
X2212Y4963D01*
X2219Y4960D01*
X2225Y4957D01*
X2227Y4956D01*
X2228Y4956D01*
X2235Y4954D01*
X2242Y4952D01*
X2244Y4952D01*
X2246Y4951D01*
X2253Y4951D01*
X2260Y4950D01*
X2261Y4951D01*
X2263Y4951D01*
X2270Y4951D01*
X2277Y4952D01*
X2279Y4952D01*
X2281Y4953D01*
X2288Y4955D01*
X2294Y4957D01*
X2296Y4957D01*
X2298Y4958D01*
X2304Y4961D01*
X2310Y4964D01*
X2312Y4965D01*
X2313Y4966D01*
X2319Y4970D01*
X2325Y4974D01*
X2326Y4976D01*
X2327Y4977D01*
X2332Y4982D01*
X2337Y4987D01*
X2338Y4989D01*
X2339Y4990D01*
X2343Y4996D01*
X2347Y5002D01*
X2348Y5004D01*
X2349Y5005D01*
X2349Y5007D01*
X2352Y5012D01*
X2363Y5038D01*
X2408Y5083D01*
X2467Y5108D01*
X2964Y5108D01*
X3012Y5088D01*
X3019Y5086D01*
X3025Y5083D01*
X3027Y5083D01*
X3029Y5082D01*
X3036Y5082D01*
X3042Y5080D01*
X3044Y5080D01*
X3046Y5080D01*
X3053Y5081D01*
X3060Y5081D01*
X3062Y5081D01*
X3064Y5081D01*
X3071Y5083D01*
X3077Y5084D01*
X3080Y5085D01*
X3081Y5085D01*
X3083Y5086D01*
X3088Y5088D01*
X3136Y5108D01*
X3633Y5108D01*
X3660Y5097D01*
X3661Y5096D01*
X3663Y5095D01*
X3670Y5093D01*
X3677Y5091D01*
X3678Y5091D01*
X3680Y5091D01*
X3687Y5090D01*
X3694Y5089D01*
X3696Y5089D01*
X3698Y5089D01*
X3705Y5090D01*
X3712Y5090D01*
X3714Y5090D01*
X3715Y5090D01*
X3722Y5092D01*
X3729Y5094D01*
X3731Y5095D01*
X3732Y5095D01*
X3739Y5098D01*
X3745Y5101D01*
X3747Y5102D01*
X3748Y5103D01*
X3754Y5107D01*
X3760Y5111D01*
X3761Y5112D01*
X3763Y5113D01*
X3768Y5118D01*
X3773Y5123D01*
X3774Y5124D01*
X3775Y5126D01*
X3779Y5131D01*
X3829Y5182D01*
X3888Y5206D01*
X4464Y5206D01*
X4512Y5186D01*
X4519Y5184D01*
X4525Y5182D01*
X4527Y5181D01*
X4529Y5181D01*
X4536Y5180D01*
X4542Y5179D01*
X4544Y5179D01*
X4546Y5179D01*
X4553Y5179D01*
X4560Y5179D01*
X4562Y5179D01*
X4564Y5180D01*
X4571Y5181D01*
X4577Y5182D01*
X4580Y5183D01*
X4581Y5184D01*
X4583Y5184D01*
X4588Y5186D01*
X4636Y5206D01*
X4768Y5206D01*
X4771Y5206D01*
X4775Y5206D01*
X4780Y5207D01*
X4785Y5208D01*
X4789Y5209D01*
X4792Y5209D01*
X4797Y5211D01*
X4802Y5212D01*
X4805Y5214D01*
X4809Y5215D01*
X4813Y5218D01*
X4818Y5220D01*
X4821Y5222D01*
X4824Y5224D01*
X4828Y5227D01*
X4833Y5230D01*
X4835Y5233D01*
X4838Y5235D01*
X4841Y5239D01*
X4845Y5243D01*
X4847Y5246D01*
X4849Y5248D01*
X4852Y5253D01*
X4855Y5258D01*
X4856Y5261D01*
X4858Y5264D01*
X4860Y5269D01*
X4862Y5274D01*
X4863Y5277D01*
X4864Y5280D01*
X4865Y5286D01*
X4866Y5291D01*
X4866Y5294D01*
X4867Y5298D01*
X4867Y5303D01*
X4867Y5309D01*
X4866Y5312D01*
X4866Y5315D01*
X4865Y5321D01*
X4865Y5326D01*
X4864Y5329D01*
X4863Y5333D01*
X4860Y5343D01*
X4859Y5343D01*
X4841Y5388D01*
X4841Y5512D01*
X4888Y5625D01*
X4975Y5712D01*
X5088Y5759D01*
X5212Y5759D01*
X5311Y5718D01*
X5315Y5717D01*
X5320Y5715D01*
X5324Y5714D01*
X5327Y5713D01*
X5332Y5712D01*
X5337Y5711D01*
X5343Y5711D01*
X5345Y5711D01*
X5346Y5711D01*
X5349Y5711D01*
X5452Y5711D01*
X5555Y5668D01*
X5558Y5667D01*
X5562Y5666D01*
X5567Y5664D01*
X5572Y5663D01*
X5575Y5662D01*
X5579Y5661D01*
X5584Y5661D01*
X5590Y5660D01*
X5593Y5661D01*
X5596Y5660D01*
X5602Y5661D01*
X5607Y5661D01*
X5611Y5662D01*
X5614Y5663D01*
X5619Y5664D01*
X5624Y5665D01*
X5628Y5667D01*
X5631Y5668D01*
X5636Y5670D01*
X5641Y5672D01*
X5643Y5674D01*
X5647Y5676D01*
X5651Y5679D01*
X5655Y5682D01*
X5658Y5685D01*
X5660Y5687D01*
X5664Y5691D01*
X5668Y5695D01*
X5670Y5697D01*
X5672Y5700D01*
X5675Y5704D01*
X5678Y5709D01*
X5680Y5712D01*
X5682Y5715D01*
X5684Y5720D01*
X5686Y5725D01*
X5687Y5728D01*
X5688Y5731D01*
X5689Y5737D01*
X5691Y5742D01*
X5691Y5745D01*
X5692Y5749D01*
X5692Y5759D01*
X5692Y5760D01*
X5692Y6041D01*
X5717Y6100D01*
X5762Y6145D01*
X5821Y6169D01*
X6279Y6169D01*
X6338Y6145D01*
X6383Y6100D01*
X6402Y6055D01*
X6406Y6047D01*
X6410Y6040D01*
X6410Y6039D01*
X6415Y6032D01*
X6420Y6026D01*
X6421Y6026D01*
X6421Y6025D01*
X6427Y6020D01*
X6433Y6014D01*
X6434Y6014D01*
X6441Y6009D01*
X6448Y6005D01*
X6449Y6004D01*
X6457Y6001D01*
X6465Y5998D01*
X6474Y5996D01*
X6482Y5994D01*
X6483Y5994D01*
X6493Y5994D01*
X6819Y5994D01*
X6915Y5954D01*
X7061Y5808D01*
X7065Y5804D01*
X7069Y5801D01*
X7072Y5799D01*
X7075Y5796D01*
X7079Y5794D01*
X7084Y5791D01*
X7087Y5789D01*
X7090Y5788D01*
X7095Y5786D01*
X7100Y5784D01*
X7103Y5783D01*
X7107Y5782D01*
X7112Y5781D01*
X7117Y5780D01*
X7121Y5779D01*
X7124Y5779D01*
X7129Y5779D01*
X7135Y5779D01*
X7138Y5779D01*
X7142Y5779D01*
X7147Y5780D01*
X7152Y5781D01*
X7156Y5782D01*
X7159Y5782D01*
X7164Y5784D01*
X7169Y5786D01*
X7172Y5788D01*
X7176Y5789D01*
X7180Y5792D01*
X7185Y5794D01*
X7188Y5796D01*
X7191Y5798D01*
X7195Y5802D01*
X7199Y5805D01*
X7201Y5808D01*
X7204Y5810D01*
X7207Y5814D01*
X7211Y5818D01*
X7212Y5821D01*
X7215Y5824D01*
X7217Y5829D01*
X7220Y5833D01*
X7221Y5836D01*
X7223Y5839D01*
X7224Y5844D01*
X7226Y5849D01*
X7227Y5853D01*
X7228Y5856D01*
X7229Y5862D01*
X7230Y5867D01*
X7230Y5872D01*
X7231Y5874D01*
X7230Y5875D01*
X7231Y5878D01*
X7231Y6435D01*
X7255Y6494D01*
X7300Y6539D01*
X7359Y6564D01*
X8841Y6564D01*
X8900Y6539D01*
X8945Y6494D01*
X8969Y6436D01*
X8970Y6435D01*
X8970Y6433D01*
X8974Y6427D01*
X8977Y6420D01*
X8978Y6419D01*
X8979Y6418D01*
X8984Y6412D01*
X8988Y6406D01*
X8989Y6405D01*
X8990Y6404D01*
X8996Y6399D01*
X9001Y6395D01*
X9003Y6394D01*
X9004Y6393D01*
X9010Y6389D01*
X9016Y6385D01*
X9018Y6385D01*
X9019Y6384D01*
X9026Y6381D01*
X9033Y6379D01*
X9034Y6379D01*
X9036Y6378D01*
X9043Y6377D01*
X9050Y6375D01*
X9052Y6375D01*
X9053Y6375D01*
X9060Y6375D01*
X9068Y6375D01*
X9069Y6375D01*
X9071Y6375D01*
X9078Y6377D01*
X9082Y6377D01*
X9544Y6377D01*
X9612Y6349D01*
X9619Y6347D01*
X9625Y6345D01*
X9627Y6344D01*
X9629Y6344D01*
X9636Y6343D01*
X9642Y6342D01*
X9644Y6342D01*
X9646Y6342D01*
X9653Y6342D01*
X9660Y6342D01*
X9662Y6343D01*
X9664Y6343D01*
X9671Y6344D01*
X9677Y6346D01*
X9680Y6346D01*
X9681Y6347D01*
X9683Y6347D01*
X9688Y6349D01*
X9756Y6377D01*
X10213Y6377D01*
X10273Y6353D01*
X10323Y6302D01*
X10325Y6300D01*
X10331Y6293D01*
X10331Y6292D01*
X10337Y6287D01*
X10344Y6281D01*
X10351Y6276D01*
X10359Y6271D01*
X10367Y6268D01*
X10375Y6265D01*
X10384Y6263D01*
X10392Y6261D01*
X10393Y6261D01*
X10403Y6261D01*
X12602Y6261D01*
X12698Y6221D01*
X12921Y5998D01*
X12961Y5902D01*
X12961Y5890D01*
X12961Y5888D01*
X12961Y5887D01*
X12962Y5880D01*
X12962Y5872D01*
X12963Y5871D01*
X12963Y5869D01*
X12965Y5862D01*
X12967Y5855D01*
X12968Y5854D01*
X12968Y5852D01*
X12971Y5846D01*
X12975Y5839D01*
X12976Y5838D01*
X12976Y5837D01*
X12981Y5831D01*
X12985Y5825D01*
X12986Y5824D01*
X12987Y5823D01*
X12992Y5818D01*
X12998Y5813D01*
X12999Y5812D01*
X13000Y5811D01*
X13006Y5807D01*
X13012Y5803D01*
X13014Y5802D01*
X13015Y5801D01*
X13022Y5799D01*
X13028Y5796D01*
X13030Y5796D01*
X13032Y5795D01*
X13039Y5793D01*
X13046Y5792D01*
X13047Y5792D01*
X13049Y5791D01*
X13060Y5791D01*
X13791Y5791D01*
X13791Y5340D01*
X13791Y5338D01*
X13791Y5337D01*
X13792Y5330D01*
X13792Y5322D01*
X13793Y5321D01*
X13793Y5319D01*
X13795Y5312D01*
X13797Y5305D01*
X13798Y5304D01*
X13798Y5302D01*
X13801Y5296D01*
X13805Y5289D01*
X13806Y5288D01*
X13806Y5287D01*
X13811Y5281D01*
X13815Y5275D01*
X13816Y5274D01*
X13817Y5273D01*
X13822Y5268D01*
X13828Y5263D01*
X13829Y5262D01*
X13830Y5261D01*
X13836Y5257D01*
X13842Y5253D01*
X13844Y5252D01*
X13845Y5251D01*
X13852Y5249D01*
X13858Y5246D01*
X13860Y5246D01*
X13862Y5245D01*
X13869Y5243D01*
X13876Y5242D01*
X13877Y5242D01*
X13879Y5241D01*
X13890Y5241D01*
X14090Y5241D01*
X14092Y5241D01*
X14093Y5241D01*
X14100Y5242D01*
X14108Y5242D01*
X14109Y5243D01*
X14111Y5243D01*
X14118Y5245D01*
X14125Y5247D01*
X14126Y5248D01*
X14128Y5248D01*
X14134Y5251D01*
X14141Y5255D01*
X14142Y5256D01*
X14143Y5256D01*
X14149Y5261D01*
X14155Y5265D01*
X14156Y5266D01*
X14157Y5267D01*
X14162Y5272D01*
X14167Y5278D01*
X14168Y5279D01*
X14169Y5280D01*
X14173Y5286D01*
X14177Y5292D01*
X14178Y5294D01*
X14179Y5295D01*
X14181Y5302D01*
X14184Y5308D01*
X14184Y5310D01*
X14185Y5312D01*
X14187Y5319D01*
X14188Y5326D01*
X14188Y5327D01*
X14189Y5329D01*
X14189Y5340D01*
X14189Y5791D01*
X14740Y5791D01*
X14742Y5791D01*
X14743Y5791D01*
X14750Y5792D01*
X14758Y5792D01*
X14759Y5793D01*
X14761Y5793D01*
X14768Y5795D01*
X14775Y5797D01*
X14776Y5798D01*
X14778Y5798D01*
X14784Y5801D01*
X14791Y5805D01*
X14792Y5806D01*
X14793Y5806D01*
X14799Y5811D01*
X14805Y5815D01*
X14806Y5816D01*
X14807Y5817D01*
X14812Y5822D01*
X14817Y5828D01*
X14818Y5829D01*
X14819Y5830D01*
X14823Y5836D01*
X14827Y5842D01*
X14828Y5844D01*
X14829Y5845D01*
X14831Y5852D01*
X14834Y5858D01*
X14834Y5860D01*
X14835Y5862D01*
X14837Y5869D01*
X14838Y5876D01*
X14838Y5877D01*
X14839Y5879D01*
X14839Y5890D01*
X14839Y6740D01*
X14839Y6742D01*
X14839Y6743D01*
X14838Y6750D01*
X14838Y6758D01*
X14837Y6759D01*
X14837Y6761D01*
X14835Y6768D01*
X14833Y6775D01*
X14832Y6776D01*
X14832Y6778D01*
X14829Y6784D01*
X14825Y6791D01*
X14824Y6792D01*
X14824Y6793D01*
X14819Y6799D01*
X14815Y6805D01*
X14814Y6806D01*
X14813Y6807D01*
X14808Y6812D01*
X14802Y6817D01*
X14801Y6818D01*
X14800Y6819D01*
X14794Y6823D01*
X14788Y6827D01*
X14786Y6828D01*
X14785Y6829D01*
X14778Y6831D01*
X14772Y6834D01*
X14770Y6834D01*
X14768Y6835D01*
X14761Y6837D01*
X14754Y6838D01*
X14753Y6838D01*
X14751Y6839D01*
X14740Y6839D01*
X260Y6839D01*
X258Y6839D01*
X257Y6839D01*
X250Y6838D01*
X242Y6838D01*
X241Y6837D01*
X239Y6837D01*
X232Y6835D01*
X225Y6833D01*
X224Y6832D01*
X222Y6832D01*
X216Y6829D01*
X209Y6825D01*
X208Y6824D01*
X207Y6824D01*
X201Y6819D01*
X195Y6815D01*
X194Y6814D01*
X193Y6813D01*
X188Y6808D01*
X183Y6802D01*
X182Y6801D01*
X181Y6800D01*
X177Y6794D01*
X173Y6788D01*
X172Y6786D01*
X171Y6785D01*
X169Y6778D01*
X166Y6772D01*
X166Y6770D01*
X165Y6768D01*
X163Y6761D01*
X162Y6754D01*
X162Y6753D01*
X161Y6751D01*
X161Y6740D01*
X161Y5890D01*
X161Y5888D01*
X161Y5887D01*
X162Y5880D01*
X162Y5872D01*
X163Y5871D01*
X163Y5869D01*
X165Y5862D01*
X167Y5855D01*
X168Y5854D01*
X168Y5852D01*
X171Y5846D01*
X175Y5839D01*
X176Y5838D01*
X176Y5837D01*
X181Y5831D01*
X185Y5825D01*
X186Y5824D01*
X187Y5823D01*
X192Y5818D01*
X198Y5813D01*
X199Y5812D01*
X200Y5811D01*
X206Y5807D01*
X212Y5803D01*
X214Y5802D01*
X215Y5801D01*
X222Y5799D01*
X228Y5796D01*
X230Y5796D01*
X232Y5795D01*
X239Y5793D01*
X246Y5792D01*
X247Y5792D01*
X249Y5791D01*
X260Y5791D01*
X861Y5791D01*
X861Y5340D01*
X861Y5338D01*
X861Y5337D01*
X862Y5330D01*
X862Y5322D01*
X863Y5321D01*
X863Y5319D01*
X865Y5312D01*
X867Y5305D01*
X868Y5304D01*
X868Y5302D01*
X871Y5296D01*
X875Y5289D01*
X876Y5288D01*
X876Y5287D01*
X881Y5281D01*
X885Y5275D01*
X886Y5274D01*
X887Y5273D01*
X892Y5268D01*
X898Y5263D01*
X899Y5262D01*
X900Y5261D01*
X906Y5257D01*
X912Y5253D01*
X914Y5252D01*
X915Y5251D01*
X922Y5249D01*
X928Y5246D01*
X930Y5246D01*
X932Y5245D01*
X939Y5243D01*
X946Y5242D01*
X947Y5242D01*
X949Y5241D01*
X960Y5241D01*
X1061Y5241D01*
X1061Y5239D01*
X960Y5239D01*
X958Y5239D01*
X957Y5239D01*
X950Y5238D01*
X942Y5238D01*
X941Y5237D01*
X939Y5237D01*
X932Y5235D01*
X925Y5233D01*
X924Y5232D01*
X922Y5232D01*
X916Y5229D01*
X909Y5225D01*
X908Y5224D01*
X907Y5224D01*
X901Y5219D01*
X895Y5215D01*
X894Y5214D01*
X893Y5213D01*
X888Y5208D01*
X883Y5202D01*
X882Y5201D01*
X881Y5200D01*
X877Y5194D01*
X873Y5188D01*
X872Y5186D01*
X871Y5185D01*
X869Y5178D01*
X866Y5172D01*
X866Y5170D01*
X865Y5168D01*
X863Y5161D01*
X862Y5154D01*
X862Y5153D01*
X861Y5151D01*
X861Y5140D01*
X861Y4689D01*
X310Y4689D01*
X308Y4689D01*
X307Y4689D01*
X300Y4688D01*
X292Y4688D01*
X291Y4687D01*
X289Y4687D01*
X282Y4685D01*
X275Y4683D01*
X274Y4682D01*
X272Y4682D01*
X266Y4679D01*
X259Y4675D01*
X258Y4674D01*
X257Y4674D01*
X251Y4669D01*
X245Y4665D01*
X244Y4664D01*
X243Y4663D01*
X238Y4658D01*
X233Y4652D01*
X232Y4651D01*
X231Y4650D01*
X227Y4644D01*
X223Y4638D01*
X222Y4636D01*
X221Y4635D01*
X219Y4628D01*
X216Y4622D01*
X216Y4620D01*
X215Y4618D01*
X213Y4611D01*
X212Y4604D01*
X212Y4603D01*
X211Y4601D01*
X211Y4590D01*
X211Y4210D01*
X211Y4208D01*
X211Y4207D01*
X212Y4200D01*
X212Y4192D01*
X213Y4191D01*
X213Y4189D01*
X215Y4182D01*
X217Y4175D01*
X218Y4174D01*
X218Y4172D01*
X221Y4166D01*
X225Y4159D01*
X226Y4158D01*
X226Y4157D01*
X231Y4151D01*
X235Y4145D01*
X236Y4144D01*
X237Y4143D01*
X242Y4138D01*
X248Y4133D01*
X249Y4132D01*
X250Y4131D01*
X256Y4127D01*
X262Y4123D01*
X264Y4122D01*
X265Y4121D01*
X272Y4119D01*
X278Y4116D01*
X280Y4116D01*
X282Y4115D01*
X289Y4113D01*
X296Y4112D01*
X297Y4112D01*
X299Y4111D01*
X310Y4111D01*
X2092Y4111D01*
X2151Y4086D01*
X2196Y4041D01*
X2225Y3972D01*
X2227Y3969D01*
X2228Y3965D01*
X2231Y3961D01*
X2233Y3956D01*
X2235Y3953D01*
X2237Y3950D01*
X2241Y3946D01*
X2244Y3942D01*
X2247Y3940D01*
X2249Y3937D01*
X2253Y3934D01*
X2257Y3930D01*
X2260Y3928D01*
X2263Y3926D01*
X2268Y3924D01*
X2272Y3921D01*
X2275Y3920D01*
X2278Y3918D01*
X2284Y3916D01*
X2289Y3914D01*
X2292Y3914D01*
X2295Y3913D01*
X2301Y3912D01*
X2306Y3911D01*
X2309Y3911D01*
X2313Y3910D01*
X2318Y3911D01*
G37*
G36*
X14742Y161D02*
X14742Y161D01*
X14743Y161D01*
X14750Y162D01*
X14758Y162D01*
X14759Y163D01*
X14761Y163D01*
X14768Y165D01*
X14775Y167D01*
X14776Y168D01*
X14778Y168D01*
X14784Y171D01*
X14791Y175D01*
X14792Y176D01*
X14793Y176D01*
X14799Y181D01*
X14805Y185D01*
X14806Y186D01*
X14807Y187D01*
X14812Y192D01*
X14817Y198D01*
X14818Y199D01*
X14819Y200D01*
X14823Y206D01*
X14827Y212D01*
X14828Y214D01*
X14829Y215D01*
X14831Y222D01*
X14834Y228D01*
X14834Y230D01*
X14835Y232D01*
X14837Y239D01*
X14838Y246D01*
X14838Y247D01*
X14839Y249D01*
X14839Y260D01*
X14839Y1110D01*
X14839Y1112D01*
X14839Y1113D01*
X14838Y1120D01*
X14838Y1128D01*
X14837Y1129D01*
X14837Y1131D01*
X14835Y1138D01*
X14833Y1145D01*
X14832Y1146D01*
X14832Y1148D01*
X14829Y1154D01*
X14825Y1161D01*
X14824Y1162D01*
X14824Y1163D01*
X14819Y1169D01*
X14815Y1175D01*
X14814Y1176D01*
X14813Y1177D01*
X14808Y1182D01*
X14802Y1187D01*
X14801Y1188D01*
X14800Y1189D01*
X14794Y1193D01*
X14788Y1197D01*
X14786Y1198D01*
X14785Y1199D01*
X14778Y1201D01*
X14772Y1204D01*
X14770Y1204D01*
X14768Y1205D01*
X14761Y1207D01*
X14754Y1208D01*
X14753Y1208D01*
X14751Y1209D01*
X14740Y1209D01*
X14189Y1209D01*
X14189Y1660D01*
X14189Y1662D01*
X14189Y1663D01*
X14188Y1670D01*
X14188Y1678D01*
X14187Y1679D01*
X14187Y1681D01*
X14185Y1688D01*
X14183Y1695D01*
X14182Y1696D01*
X14182Y1698D01*
X14179Y1704D01*
X14175Y1711D01*
X14174Y1712D01*
X14174Y1713D01*
X14169Y1719D01*
X14165Y1725D01*
X14164Y1726D01*
X14163Y1727D01*
X14158Y1732D01*
X14152Y1737D01*
X14151Y1738D01*
X14150Y1739D01*
X14144Y1743D01*
X14138Y1747D01*
X14136Y1748D01*
X14135Y1749D01*
X14128Y1751D01*
X14122Y1754D01*
X14120Y1754D01*
X14118Y1755D01*
X14111Y1757D01*
X14104Y1758D01*
X14103Y1758D01*
X14101Y1759D01*
X14090Y1759D01*
X13890Y1759D01*
X13888Y1759D01*
X13887Y1759D01*
X13880Y1758D01*
X13872Y1758D01*
X13871Y1757D01*
X13869Y1757D01*
X13862Y1755D01*
X13855Y1753D01*
X13854Y1752D01*
X13852Y1752D01*
X13846Y1749D01*
X13839Y1745D01*
X13838Y1744D01*
X13837Y1744D01*
X13831Y1739D01*
X13825Y1735D01*
X13824Y1734D01*
X13823Y1733D01*
X13818Y1728D01*
X13813Y1722D01*
X13812Y1721D01*
X13811Y1720D01*
X13807Y1714D01*
X13803Y1708D01*
X13802Y1706D01*
X13801Y1705D01*
X13799Y1698D01*
X13796Y1692D01*
X13796Y1690D01*
X13795Y1688D01*
X13793Y1681D01*
X13792Y1674D01*
X13792Y1673D01*
X13791Y1671D01*
X13791Y1660D01*
X13791Y1209D01*
X13060Y1209D01*
X13058Y1209D01*
X13057Y1209D01*
X13050Y1208D01*
X13042Y1208D01*
X13041Y1207D01*
X13039Y1207D01*
X13032Y1205D01*
X13025Y1203D01*
X13024Y1202D01*
X13022Y1202D01*
X13016Y1199D01*
X13009Y1195D01*
X13008Y1194D01*
X13007Y1194D01*
X13001Y1189D01*
X12995Y1185D01*
X12994Y1184D01*
X12993Y1183D01*
X12988Y1178D01*
X12983Y1172D01*
X12982Y1171D01*
X12981Y1170D01*
X12977Y1164D01*
X12973Y1158D01*
X12972Y1156D01*
X12971Y1155D01*
X12969Y1148D01*
X12966Y1142D01*
X12966Y1140D01*
X12965Y1138D01*
X12963Y1131D01*
X12962Y1124D01*
X12962Y1123D01*
X12961Y1121D01*
X12961Y1110D01*
X12961Y948D01*
X12921Y852D01*
X12748Y679D01*
X12652Y639D01*
X10206Y639D01*
X10199Y639D01*
X10192Y638D01*
X10190Y638D01*
X10188Y638D01*
X10182Y636D01*
X10175Y634D01*
X10173Y634D01*
X10171Y633D01*
X10165Y630D01*
X10159Y627D01*
X10157Y626D01*
X10155Y625D01*
X10150Y621D01*
X10144Y618D01*
X10142Y616D01*
X10141Y615D01*
X10139Y614D01*
X10136Y610D01*
X10108Y582D01*
X10049Y558D01*
X9551Y558D01*
X9492Y582D01*
X9447Y627D01*
X9423Y687D01*
X9423Y1144D01*
X9440Y1187D01*
X9441Y1190D01*
X9443Y1193D01*
X9444Y1198D01*
X9446Y1204D01*
X9446Y1207D01*
X9447Y1210D01*
X9447Y1216D01*
X9448Y1221D01*
X9448Y1224D01*
X9448Y1228D01*
X9447Y1233D01*
X9447Y1239D01*
X9446Y1242D01*
X9446Y1245D01*
X9444Y1251D01*
X9443Y1256D01*
X9441Y1259D01*
X9440Y1262D01*
X9438Y1267D01*
X9436Y1272D01*
X9434Y1275D01*
X9432Y1278D01*
X9429Y1282D01*
X9426Y1287D01*
X9424Y1289D01*
X9422Y1292D01*
X9418Y1296D01*
X9414Y1300D01*
X9411Y1302D01*
X9408Y1304D01*
X9404Y1307D01*
X9399Y1310D01*
X9396Y1311D01*
X9393Y1313D01*
X9388Y1315D01*
X9384Y1318D01*
X9380Y1318D01*
X9377Y1320D01*
X9372Y1321D01*
X9367Y1322D01*
X9363Y1323D01*
X9360Y1323D01*
X9349Y1324D01*
X9319Y1324D01*
X9310Y1323D01*
X9302Y1322D01*
X9301Y1322D01*
X9293Y1320D01*
X9285Y1318D01*
X9284Y1318D01*
X9276Y1314D01*
X9269Y1310D01*
X9268Y1310D01*
X9261Y1305D01*
X9254Y1300D01*
X9248Y1293D01*
X9242Y1287D01*
X9239Y1283D01*
X9218Y1262D01*
X9216Y1260D01*
X9215Y1259D01*
X9211Y1253D01*
X9206Y1248D01*
X9205Y1246D01*
X9204Y1244D01*
X9201Y1239D01*
X9198Y1233D01*
X9197Y1231D01*
X9196Y1229D01*
X9194Y1222D01*
X9192Y1216D01*
X9191Y1214D01*
X9191Y1212D01*
X9190Y1205D01*
X9189Y1199D01*
X9189Y1197D01*
X9189Y1194D01*
X9189Y1188D01*
X9189Y1181D01*
X9190Y1179D01*
X9190Y1177D01*
X9192Y1166D01*
X9198Y1145D01*
X9198Y1015D01*
X8900Y1015D01*
X8602Y1015D01*
X8602Y1145D01*
X8608Y1166D01*
X8608Y1168D01*
X8609Y1170D01*
X8610Y1177D01*
X8611Y1183D01*
X8611Y1185D01*
X8611Y1188D01*
X8611Y1194D01*
X8611Y1201D01*
X8610Y1203D01*
X8610Y1205D01*
X8609Y1212D01*
X8608Y1218D01*
X8607Y1220D01*
X8606Y1222D01*
X8604Y1229D01*
X8601Y1235D01*
X8600Y1237D01*
X8599Y1239D01*
X8596Y1244D01*
X8592Y1250D01*
X8591Y1252D01*
X8590Y1253D01*
X8582Y1262D01*
X8567Y1277D01*
X8542Y1336D01*
X8542Y1425D01*
X8542Y1426D01*
X8542Y1428D01*
X8541Y1435D01*
X8541Y1442D01*
X8540Y1444D01*
X8540Y1445D01*
X8538Y1452D01*
X8536Y1459D01*
X8535Y1461D01*
X8535Y1462D01*
X8532Y1469D01*
X8529Y1475D01*
X8528Y1477D01*
X8527Y1478D01*
X8522Y1484D01*
X8518Y1490D01*
X8517Y1491D01*
X8516Y1492D01*
X8511Y1497D01*
X8506Y1502D01*
X8504Y1503D01*
X8503Y1504D01*
X8497Y1508D01*
X8491Y1512D01*
X8489Y1512D01*
X8488Y1513D01*
X8481Y1516D01*
X8475Y1519D01*
X8473Y1519D01*
X8472Y1520D01*
X8465Y1521D01*
X8458Y1523D01*
X8456Y1523D01*
X8454Y1523D01*
X8443Y1524D01*
X8419Y1524D01*
X8410Y1523D01*
X8402Y1522D01*
X8401Y1522D01*
X8393Y1520D01*
X8385Y1518D01*
X8384Y1518D01*
X8376Y1514D01*
X8369Y1510D01*
X8368Y1510D01*
X8361Y1505D01*
X8354Y1500D01*
X8348Y1493D01*
X8342Y1487D01*
X8339Y1483D01*
X8318Y1462D01*
X8316Y1460D01*
X8315Y1459D01*
X8311Y1453D01*
X8306Y1448D01*
X8305Y1446D01*
X8304Y1444D01*
X8301Y1439D01*
X8298Y1433D01*
X8297Y1431D01*
X8296Y1429D01*
X8294Y1422D01*
X8292Y1416D01*
X8291Y1414D01*
X8291Y1412D01*
X8290Y1405D01*
X8289Y1399D01*
X8289Y1397D01*
X8289Y1394D01*
X8289Y1388D01*
X8289Y1381D01*
X8290Y1379D01*
X8290Y1377D01*
X8292Y1366D01*
X8298Y1345D01*
X8298Y1215D01*
X8000Y1215D01*
X7702Y1215D01*
X7702Y1344D01*
X7702Y1349D01*
X7702Y1354D01*
X7701Y1358D01*
X7701Y1362D01*
X7699Y1367D01*
X7698Y1372D01*
X7697Y1375D01*
X7696Y1379D01*
X7694Y1383D01*
X7692Y1388D01*
X7690Y1391D01*
X7689Y1395D01*
X7685Y1399D01*
X7683Y1403D01*
X7680Y1406D01*
X7678Y1409D01*
X7674Y1413D01*
X7671Y1416D01*
X7668Y1419D01*
X7666Y1421D01*
X7661Y1424D01*
X7657Y1427D01*
X7654Y1429D01*
X7651Y1431D01*
X7646Y1433D01*
X7641Y1436D01*
X7638Y1437D01*
X7635Y1438D01*
X7630Y1439D01*
X7625Y1441D01*
X7621Y1441D01*
X7618Y1442D01*
X7612Y1443D01*
X7607Y1443D01*
X7603Y1443D01*
X7600Y1443D01*
X7595Y1443D01*
X7589Y1442D01*
X7586Y1442D01*
X7582Y1441D01*
X7577Y1440D01*
X7572Y1438D01*
X7569Y1437D01*
X7565Y1436D01*
X7561Y1433D01*
X7556Y1431D01*
X7553Y1429D01*
X7550Y1428D01*
X7546Y1425D01*
X7541Y1422D01*
X7537Y1418D01*
X7536Y1417D01*
X7535Y1416D01*
X7533Y1414D01*
X7493Y1374D01*
X7490Y1371D01*
X7486Y1367D01*
X7484Y1364D01*
X7482Y1361D01*
X7479Y1356D01*
X7476Y1352D01*
X7474Y1347D01*
X7473Y1346D01*
X7473Y1344D01*
X7472Y1342D01*
X7449Y1288D01*
X7448Y1285D01*
X7448Y1284D01*
X7447Y1282D01*
X7447Y1281D01*
X7445Y1275D01*
X7444Y1273D01*
X7444Y1271D01*
X7443Y1264D01*
X7442Y1258D01*
X7442Y1256D01*
X7442Y1254D01*
X7442Y1247D01*
X7442Y1240D01*
X7443Y1238D01*
X7443Y1236D01*
X7444Y1229D01*
X7446Y1223D01*
X7446Y1220D01*
X7447Y1219D01*
X7447Y1217D01*
X7449Y1212D01*
X7477Y1144D01*
X7477Y687D01*
X7453Y627D01*
X7408Y582D01*
X7349Y558D01*
X7152Y558D01*
X7145Y557D01*
X7139Y557D01*
X7137Y556D01*
X7135Y556D01*
X7128Y554D01*
X7121Y553D01*
X7120Y552D01*
X7118Y552D01*
X7111Y549D01*
X7105Y546D01*
X7103Y545D01*
X7102Y544D01*
X7096Y540D01*
X7090Y536D01*
X7088Y534D01*
X7087Y534D01*
X7086Y532D01*
X7082Y529D01*
X6970Y416D01*
X6884Y330D01*
X6880Y326D01*
X6877Y322D01*
X6875Y319D01*
X6872Y317D01*
X6870Y312D01*
X6867Y308D01*
X6865Y304D01*
X6864Y301D01*
X6862Y296D01*
X6860Y292D01*
X6859Y288D01*
X6858Y285D01*
X6857Y279D01*
X6856Y274D01*
X6855Y271D01*
X6855Y267D01*
X6855Y262D01*
X6855Y257D01*
X6855Y253D01*
X6855Y250D01*
X6856Y244D01*
X6857Y239D01*
X6858Y236D01*
X6858Y232D01*
X6860Y227D01*
X6862Y222D01*
X6864Y219D01*
X6865Y216D01*
X6868Y211D01*
X6870Y207D01*
X6872Y204D01*
X6874Y201D01*
X6878Y197D01*
X6881Y193D01*
X6884Y190D01*
X6886Y188D01*
X6890Y184D01*
X6894Y181D01*
X6897Y179D01*
X6900Y177D01*
X6904Y174D01*
X6909Y171D01*
X6912Y170D01*
X6915Y168D01*
X6920Y167D01*
X6925Y165D01*
X6929Y164D01*
X6932Y163D01*
X6938Y162D01*
X6943Y161D01*
X6948Y161D01*
X6950Y161D01*
X6951Y161D01*
X6954Y161D01*
X14740Y161D01*
X14742Y161D01*
G37*
G36*
X5586Y161D02*
X5586Y161D01*
X5591Y161D01*
X5595Y162D01*
X5598Y162D01*
X5604Y164D01*
X5609Y165D01*
X5612Y166D01*
X5616Y167D01*
X5620Y169D01*
X5625Y171D01*
X5628Y173D01*
X5631Y175D01*
X5636Y178D01*
X5640Y180D01*
X5643Y183D01*
X5646Y185D01*
X5649Y189D01*
X5653Y192D01*
X5656Y195D01*
X5658Y198D01*
X5661Y202D01*
X5664Y206D01*
X5666Y209D01*
X5668Y212D01*
X5670Y217D01*
X5672Y222D01*
X5674Y225D01*
X5675Y228D01*
X5676Y234D01*
X5678Y239D01*
X5678Y242D01*
X5679Y246D01*
X5679Y251D01*
X5680Y256D01*
X5680Y260D01*
X5680Y263D01*
X5679Y268D01*
X5679Y274D01*
X5678Y277D01*
X5678Y281D01*
X5676Y286D01*
X5675Y291D01*
X5674Y294D01*
X5673Y298D01*
X5670Y302D01*
X5668Y307D01*
X5666Y310D01*
X5665Y313D01*
X5661Y318D01*
X5658Y322D01*
X5655Y326D01*
X5654Y327D01*
X5653Y328D01*
X5651Y330D01*
X5382Y600D01*
X5356Y626D01*
X5350Y630D01*
X5345Y635D01*
X5344Y636D01*
X5342Y637D01*
X5336Y640D01*
X5330Y644D01*
X5329Y645D01*
X5327Y646D01*
X5320Y648D01*
X5314Y650D01*
X5312Y651D01*
X5310Y651D01*
X5303Y653D01*
X5297Y654D01*
X5294Y654D01*
X5293Y654D01*
X5291Y654D01*
X5286Y655D01*
X5119Y655D01*
X5110Y654D01*
X5102Y653D01*
X5101Y653D01*
X5093Y651D01*
X5085Y648D01*
X5084Y648D01*
X5076Y645D01*
X5069Y641D01*
X5068Y641D01*
X5061Y636D01*
X5054Y631D01*
X5054Y630D01*
X5048Y624D01*
X5042Y618D01*
X5039Y613D01*
X4988Y563D01*
X4929Y538D01*
X4471Y538D01*
X4412Y563D01*
X4361Y613D01*
X4359Y616D01*
X4354Y623D01*
X4347Y629D01*
X4341Y635D01*
X4333Y639D01*
X4326Y644D01*
X4318Y647D01*
X4310Y650D01*
X4309Y650D01*
X4309Y651D01*
X4301Y652D01*
X4292Y654D01*
X4291Y654D01*
X4281Y655D01*
X3907Y655D01*
X3906Y655D01*
X3902Y656D01*
X3899Y657D01*
X3894Y658D01*
X3889Y659D01*
X3883Y659D01*
X3881Y659D01*
X3880Y659D01*
X3878Y659D01*
X3473Y659D01*
X3414Y684D01*
X3368Y729D01*
X3358Y754D01*
X3354Y761D01*
X3351Y768D01*
X3350Y769D01*
X3350Y770D01*
X3345Y776D01*
X3341Y782D01*
X3340Y783D01*
X3339Y784D01*
X3333Y789D01*
X3328Y794D01*
X3327Y795D01*
X3326Y796D01*
X3319Y800D01*
X3313Y804D01*
X3312Y804D01*
X3311Y805D01*
X3304Y808D01*
X3297Y811D01*
X3296Y811D01*
X3294Y811D01*
X3287Y813D01*
X3280Y815D01*
X3278Y815D01*
X3277Y815D01*
X3269Y815D01*
X3262Y815D01*
X3261Y815D01*
X3259Y815D01*
X3252Y814D01*
X3244Y813D01*
X3243Y813D01*
X3242Y813D01*
X3235Y810D01*
X3228Y808D01*
X3226Y807D01*
X3225Y807D01*
X3219Y803D01*
X3212Y799D01*
X3211Y799D01*
X3210Y798D01*
X3204Y793D01*
X3198Y788D01*
X3197Y788D01*
X3196Y787D01*
X3191Y781D01*
X3186Y775D01*
X3186Y774D01*
X3185Y773D01*
X3184Y772D01*
X3180Y766D01*
X3176Y758D01*
X3157Y739D01*
X3134Y726D01*
X3109Y719D01*
X2927Y719D01*
X2927Y1048D01*
X2927Y1050D01*
X2927Y1051D01*
X2926Y1058D01*
X2926Y1066D01*
X2925Y1067D01*
X2925Y1069D01*
X2923Y1076D01*
X2921Y1083D01*
X2920Y1084D01*
X2920Y1086D01*
X2916Y1092D01*
X2913Y1099D01*
X2912Y1100D01*
X2912Y1101D01*
X2907Y1107D01*
X2903Y1113D01*
X2902Y1114D01*
X2901Y1115D01*
X2896Y1120D01*
X2890Y1125D01*
X2889Y1126D01*
X2888Y1127D01*
X2882Y1131D01*
X2876Y1135D01*
X2874Y1136D01*
X2873Y1137D01*
X2866Y1139D01*
X2864Y1140D01*
X2864Y1142D01*
X2861Y1148D01*
X2857Y1155D01*
X2856Y1156D01*
X2856Y1157D01*
X2851Y1163D01*
X2847Y1169D01*
X2846Y1170D01*
X2845Y1171D01*
X2840Y1176D01*
X2834Y1181D01*
X2833Y1182D01*
X2832Y1183D01*
X2826Y1187D01*
X2820Y1191D01*
X2818Y1192D01*
X2817Y1192D01*
X2810Y1195D01*
X2804Y1198D01*
X2802Y1198D01*
X2800Y1199D01*
X2793Y1200D01*
X2786Y1202D01*
X2785Y1202D01*
X2783Y1203D01*
X2772Y1203D01*
X2404Y1203D01*
X2404Y1345D01*
X2410Y1366D01*
X2410Y1368D01*
X2411Y1370D01*
X2411Y1377D01*
X2413Y1383D01*
X2413Y1385D01*
X2413Y1388D01*
X2412Y1394D01*
X2412Y1401D01*
X2412Y1403D01*
X2412Y1405D01*
X2410Y1412D01*
X2409Y1418D01*
X2408Y1420D01*
X2408Y1422D01*
X2405Y1429D01*
X2403Y1435D01*
X2402Y1437D01*
X2401Y1439D01*
X2397Y1444D01*
X2394Y1450D01*
X2392Y1452D01*
X2391Y1453D01*
X2384Y1462D01*
X2368Y1477D01*
X2352Y1517D01*
X2348Y1524D01*
X2345Y1530D01*
X2344Y1532D01*
X2344Y1533D01*
X2339Y1539D01*
X2335Y1544D01*
X2334Y1546D01*
X2333Y1547D01*
X2327Y1552D01*
X2322Y1557D01*
X2321Y1558D01*
X2320Y1559D01*
X2314Y1563D01*
X2308Y1567D01*
X2306Y1567D01*
X2305Y1568D01*
X2298Y1571D01*
X2292Y1574D01*
X2290Y1574D01*
X2288Y1575D01*
X2281Y1576D01*
X2274Y1578D01*
X2273Y1578D01*
X2271Y1578D01*
X2264Y1578D01*
X2257Y1579D01*
X2255Y1578D01*
X2253Y1579D01*
X2246Y1577D01*
X2239Y1577D01*
X2237Y1576D01*
X2236Y1576D01*
X2229Y1573D01*
X2222Y1571D01*
X2221Y1571D01*
X2219Y1570D01*
X2213Y1566D01*
X2207Y1563D01*
X2205Y1562D01*
X2204Y1561D01*
X2198Y1557D01*
X2193Y1552D01*
X2191Y1551D01*
X2190Y1550D01*
X2186Y1545D01*
X2181Y1539D01*
X2180Y1538D01*
X2179Y1536D01*
X2175Y1530D01*
X2171Y1524D01*
X2171Y1523D01*
X2170Y1521D01*
X2168Y1514D01*
X2165Y1508D01*
X2165Y1506D01*
X2164Y1504D01*
X2163Y1498D01*
X2161Y1491D01*
X2161Y1488D01*
X2161Y1487D01*
X2161Y1485D01*
X2161Y1480D01*
X2161Y1297D01*
X2154Y1271D01*
X2141Y1248D01*
X2122Y1229D01*
X2099Y1216D01*
X2073Y1209D01*
X1259Y1209D01*
X1259Y1660D01*
X1259Y1662D01*
X1259Y1663D01*
X1258Y1670D01*
X1258Y1678D01*
X1257Y1679D01*
X1257Y1681D01*
X1255Y1688D01*
X1253Y1695D01*
X1252Y1696D01*
X1252Y1698D01*
X1249Y1704D01*
X1245Y1711D01*
X1244Y1712D01*
X1244Y1713D01*
X1239Y1719D01*
X1235Y1725D01*
X1234Y1726D01*
X1233Y1727D01*
X1228Y1732D01*
X1222Y1737D01*
X1221Y1738D01*
X1220Y1739D01*
X1214Y1743D01*
X1208Y1747D01*
X1206Y1748D01*
X1205Y1749D01*
X1198Y1751D01*
X1192Y1754D01*
X1190Y1754D01*
X1188Y1755D01*
X1181Y1757D01*
X1174Y1758D01*
X1173Y1758D01*
X1171Y1759D01*
X1160Y1759D01*
X960Y1759D01*
X958Y1759D01*
X957Y1759D01*
X950Y1758D01*
X942Y1758D01*
X941Y1757D01*
X939Y1757D01*
X932Y1755D01*
X925Y1753D01*
X924Y1752D01*
X922Y1752D01*
X916Y1749D01*
X909Y1745D01*
X908Y1744D01*
X907Y1744D01*
X901Y1739D01*
X895Y1735D01*
X894Y1734D01*
X893Y1733D01*
X888Y1728D01*
X883Y1722D01*
X882Y1721D01*
X881Y1720D01*
X877Y1714D01*
X873Y1708D01*
X872Y1706D01*
X871Y1705D01*
X869Y1698D01*
X866Y1692D01*
X866Y1690D01*
X865Y1688D01*
X863Y1681D01*
X862Y1674D01*
X862Y1673D01*
X861Y1671D01*
X861Y1660D01*
X861Y1209D01*
X260Y1209D01*
X258Y1209D01*
X257Y1209D01*
X250Y1208D01*
X242Y1208D01*
X241Y1207D01*
X239Y1207D01*
X232Y1205D01*
X225Y1203D01*
X224Y1202D01*
X222Y1202D01*
X216Y1199D01*
X209Y1195D01*
X208Y1194D01*
X207Y1194D01*
X201Y1189D01*
X195Y1185D01*
X194Y1184D01*
X193Y1183D01*
X188Y1178D01*
X183Y1172D01*
X182Y1171D01*
X181Y1170D01*
X177Y1164D01*
X173Y1158D01*
X172Y1156D01*
X171Y1155D01*
X169Y1148D01*
X166Y1142D01*
X166Y1140D01*
X165Y1138D01*
X163Y1131D01*
X162Y1124D01*
X162Y1123D01*
X161Y1121D01*
X161Y1110D01*
X161Y260D01*
X161Y258D01*
X161Y257D01*
X162Y250D01*
X162Y242D01*
X163Y241D01*
X163Y239D01*
X165Y232D01*
X167Y225D01*
X168Y224D01*
X168Y222D01*
X171Y216D01*
X175Y209D01*
X176Y208D01*
X176Y207D01*
X181Y201D01*
X185Y195D01*
X186Y194D01*
X187Y193D01*
X192Y188D01*
X198Y183D01*
X199Y182D01*
X200Y181D01*
X206Y177D01*
X212Y173D01*
X214Y172D01*
X215Y171D01*
X222Y169D01*
X228Y166D01*
X230Y166D01*
X232Y165D01*
X239Y163D01*
X246Y162D01*
X247Y162D01*
X249Y161D01*
X260Y161D01*
X5581Y161D01*
X5586Y161D01*
G37*
G36*
X8558Y4024D02*
X8558Y4024D01*
X8565Y4024D01*
X8567Y4024D01*
X8569Y4024D01*
X8576Y4026D01*
X8583Y4027D01*
X8584Y4028D01*
X8586Y4028D01*
X8593Y4031D01*
X8599Y4034D01*
X8601Y4035D01*
X8602Y4035D01*
X8608Y4039D01*
X8614Y4043D01*
X8616Y4044D01*
X8617Y4045D01*
X8625Y4053D01*
X8679Y4106D01*
X8738Y4131D01*
X9164Y4131D01*
X9169Y4131D01*
X9174Y4131D01*
X9178Y4132D01*
X9182Y4132D01*
X9187Y4134D01*
X9192Y4135D01*
X9197Y4136D01*
X9199Y4137D01*
X9200Y4138D01*
X9202Y4138D01*
X9234Y4151D01*
X9236Y4152D01*
X9240Y4154D01*
X9277Y4173D01*
X9279Y4173D01*
X9286Y4174D01*
X9288Y4175D01*
X9289Y4175D01*
X9292Y4176D01*
X9333Y4176D01*
X9335Y4176D01*
X9340Y4176D01*
X9381Y4179D01*
X9383Y4179D01*
X9390Y4177D01*
X9391Y4177D01*
X9393Y4177D01*
X9404Y4176D01*
X9449Y4176D01*
X9452Y4176D01*
X9455Y4176D01*
X9461Y4177D01*
X9466Y4178D01*
X9470Y4179D01*
X9473Y4179D01*
X9478Y4181D01*
X9483Y4182D01*
X9486Y4184D01*
X9490Y4185D01*
X9494Y4188D01*
X9499Y4190D01*
X9502Y4192D01*
X9505Y4194D01*
X9509Y4197D01*
X9514Y4200D01*
X9516Y4203D01*
X9519Y4205D01*
X9522Y4209D01*
X9526Y4213D01*
X9528Y4216D01*
X9530Y4218D01*
X9533Y4223D01*
X9536Y4228D01*
X9537Y4231D01*
X9539Y4234D01*
X9541Y4239D01*
X9543Y4244D01*
X9544Y4247D01*
X9545Y4250D01*
X9546Y4256D01*
X9547Y4261D01*
X9547Y4264D01*
X9548Y4268D01*
X9548Y4273D01*
X9548Y4279D01*
X9547Y4282D01*
X9547Y4285D01*
X9546Y4291D01*
X9546Y4296D01*
X9545Y4299D01*
X9544Y4303D01*
X9541Y4313D01*
X9540Y4313D01*
X9523Y4356D01*
X9523Y4813D01*
X9547Y4873D01*
X9592Y4918D01*
X9651Y4942D01*
X10143Y4942D01*
X10148Y4943D01*
X10153Y4943D01*
X10157Y4943D01*
X10160Y4944D01*
X10165Y4945D01*
X10171Y4946D01*
X10174Y4948D01*
X10177Y4948D01*
X10182Y4951D01*
X10187Y4953D01*
X10190Y4955D01*
X10193Y4956D01*
X10198Y4959D01*
X10202Y4962D01*
X10205Y4964D01*
X10208Y4966D01*
X10211Y4970D01*
X10215Y4974D01*
X10217Y4977D01*
X10220Y4979D01*
X10223Y4983D01*
X10226Y4988D01*
X10228Y4991D01*
X10230Y4994D01*
X10232Y4999D01*
X10234Y5003D01*
X10235Y5007D01*
X10237Y5010D01*
X10238Y5015D01*
X10240Y5020D01*
X10240Y5024D01*
X10241Y5027D01*
X10241Y5032D01*
X10242Y5038D01*
X10242Y5041D01*
X10242Y5045D01*
X10241Y5050D01*
X10241Y5055D01*
X10240Y5059D01*
X10240Y5062D01*
X10238Y5067D01*
X10237Y5072D01*
X10236Y5076D01*
X10235Y5079D01*
X10232Y5084D01*
X10230Y5089D01*
X10228Y5092D01*
X10226Y5095D01*
X10223Y5099D01*
X10220Y5103D01*
X10217Y5107D01*
X10216Y5109D01*
X10215Y5110D01*
X10213Y5112D01*
X10188Y5171D01*
X10188Y5523D01*
X10188Y5525D01*
X10188Y5527D01*
X10187Y5534D01*
X10186Y5541D01*
X10186Y5543D01*
X10186Y5544D01*
X10184Y5551D01*
X10182Y5558D01*
X10181Y5560D01*
X10181Y5561D01*
X10177Y5568D01*
X10174Y5574D01*
X10173Y5575D01*
X10173Y5577D01*
X10168Y5583D01*
X10164Y5588D01*
X10163Y5590D01*
X10162Y5591D01*
X10156Y5596D01*
X10151Y5601D01*
X10150Y5602D01*
X10149Y5603D01*
X10143Y5606D01*
X10137Y5610D01*
X10135Y5611D01*
X10134Y5612D01*
X10127Y5615D01*
X10120Y5618D01*
X10119Y5618D01*
X10117Y5619D01*
X10110Y5620D01*
X10103Y5622D01*
X10102Y5622D01*
X10100Y5622D01*
X10089Y5623D01*
X9756Y5623D01*
X9688Y5651D01*
X9681Y5653D01*
X9675Y5655D01*
X9673Y5656D01*
X9671Y5656D01*
X9664Y5657D01*
X9658Y5658D01*
X9656Y5658D01*
X9654Y5658D01*
X9647Y5658D01*
X9640Y5658D01*
X9638Y5657D01*
X9636Y5657D01*
X9629Y5656D01*
X9623Y5654D01*
X9620Y5654D01*
X9619Y5653D01*
X9617Y5653D01*
X9612Y5651D01*
X9544Y5623D01*
X9069Y5623D01*
X9067Y5623D01*
X9065Y5623D01*
X9058Y5622D01*
X9051Y5621D01*
X9049Y5621D01*
X9048Y5621D01*
X9041Y5618D01*
X9034Y5616D01*
X9033Y5616D01*
X9031Y5615D01*
X9025Y5612D01*
X9018Y5609D01*
X9017Y5608D01*
X9015Y5607D01*
X9010Y5603D01*
X9004Y5599D01*
X9003Y5597D01*
X9001Y5596D01*
X8996Y5591D01*
X8991Y5586D01*
X8991Y5584D01*
X8989Y5583D01*
X8986Y5577D01*
X8982Y5571D01*
X8981Y5570D01*
X8980Y5568D01*
X8977Y5562D01*
X8975Y5555D01*
X8974Y5553D01*
X8974Y5552D01*
X8972Y5545D01*
X8970Y5538D01*
X8970Y5536D01*
X8970Y5535D01*
X8969Y5523D01*
X8969Y5505D01*
X8945Y5446D01*
X8900Y5401D01*
X8841Y5376D01*
X7360Y5376D01*
X7358Y5376D01*
X7357Y5376D01*
X7350Y5375D01*
X7342Y5375D01*
X7341Y5374D01*
X7339Y5374D01*
X7332Y5372D01*
X7325Y5370D01*
X7324Y5369D01*
X7322Y5369D01*
X7316Y5366D01*
X7309Y5362D01*
X7308Y5361D01*
X7307Y5361D01*
X7301Y5356D01*
X7295Y5352D01*
X7294Y5351D01*
X7293Y5350D01*
X7288Y5345D01*
X7283Y5339D01*
X7282Y5338D01*
X7281Y5337D01*
X7277Y5331D01*
X7273Y5325D01*
X7272Y5323D01*
X7271Y5322D01*
X7269Y5315D01*
X7266Y5309D01*
X7266Y5307D01*
X7265Y5305D01*
X7263Y5298D01*
X7262Y5291D01*
X7262Y5290D01*
X7261Y5288D01*
X7261Y5277D01*
X7261Y4860D01*
X7261Y4858D01*
X7261Y4857D01*
X7262Y4850D01*
X7262Y4842D01*
X7263Y4841D01*
X7263Y4839D01*
X7265Y4832D01*
X7267Y4825D01*
X7268Y4824D01*
X7268Y4822D01*
X7271Y4816D01*
X7275Y4809D01*
X7276Y4808D01*
X7276Y4807D01*
X7281Y4801D01*
X7285Y4795D01*
X7286Y4794D01*
X7287Y4793D01*
X7292Y4788D01*
X7298Y4783D01*
X7299Y4782D01*
X7300Y4781D01*
X7306Y4777D01*
X7312Y4773D01*
X7314Y4772D01*
X7315Y4771D01*
X7322Y4769D01*
X7328Y4766D01*
X7330Y4766D01*
X7332Y4765D01*
X7339Y4763D01*
X7346Y4762D01*
X7347Y4762D01*
X7349Y4761D01*
X7360Y4761D01*
X7552Y4761D01*
X7648Y4721D01*
X8209Y4160D01*
X8214Y4155D01*
X8219Y4151D01*
X8221Y4150D01*
X8222Y4148D01*
X8228Y4145D01*
X8234Y4141D01*
X8236Y4141D01*
X8238Y4140D01*
X8244Y4137D01*
X8251Y4135D01*
X8253Y4135D01*
X8254Y4134D01*
X8261Y4133D01*
X8268Y4131D01*
X8271Y4131D01*
X8272Y4131D01*
X8274Y4131D01*
X8279Y4131D01*
X8372Y4131D01*
X8431Y4106D01*
X8485Y4053D01*
X8486Y4051D01*
X8487Y4050D01*
X8493Y4046D01*
X8498Y4041D01*
X8500Y4040D01*
X8501Y4039D01*
X8507Y4036D01*
X8514Y4032D01*
X8515Y4032D01*
X8517Y4031D01*
X8524Y4029D01*
X8530Y4027D01*
X8532Y4026D01*
X8534Y4026D01*
X8541Y4025D01*
X8548Y4024D01*
X8549Y4024D01*
X8551Y4024D01*
X8558Y4024D01*
G37*
G36*
X5098Y1312D02*
X5098Y1312D01*
X5100Y1312D01*
X5107Y1312D01*
X5114Y1313D01*
X5116Y1314D01*
X5118Y1314D01*
X5124Y1316D01*
X5131Y1318D01*
X5133Y1318D01*
X5135Y1319D01*
X5141Y1322D01*
X5147Y1325D01*
X5149Y1326D01*
X5150Y1327D01*
X5156Y1331D01*
X5162Y1336D01*
X5163Y1337D01*
X5164Y1338D01*
X5169Y1343D01*
X5174Y1348D01*
X5175Y1350D01*
X5176Y1351D01*
X5177Y1352D01*
X5227Y1403D01*
X5287Y1427D01*
X5375Y1427D01*
X5376Y1427D01*
X5378Y1427D01*
X5385Y1428D01*
X5392Y1429D01*
X5394Y1429D01*
X5396Y1429D01*
X5402Y1432D01*
X5409Y1434D01*
X5411Y1434D01*
X5412Y1435D01*
X5419Y1438D01*
X5425Y1441D01*
X5427Y1442D01*
X5428Y1443D01*
X5434Y1447D01*
X5440Y1451D01*
X5441Y1453D01*
X5442Y1454D01*
X5447Y1459D01*
X5452Y1464D01*
X5453Y1466D01*
X5454Y1467D01*
X5458Y1473D01*
X5462Y1479D01*
X5462Y1480D01*
X5463Y1482D01*
X5466Y1488D01*
X5469Y1495D01*
X5469Y1497D01*
X5470Y1498D01*
X5471Y1505D01*
X5473Y1512D01*
X5473Y1514D01*
X5473Y1515D01*
X5474Y1527D01*
X5474Y1722D01*
X5925Y1722D01*
X5926Y1723D01*
X5928Y1722D01*
X5935Y1723D01*
X5942Y1724D01*
X5944Y1724D01*
X5946Y1725D01*
X5952Y1727D01*
X5959Y1729D01*
X5961Y1729D01*
X5962Y1730D01*
X5969Y1733D01*
X5975Y1736D01*
X5977Y1737D01*
X5978Y1738D01*
X5984Y1742D01*
X5990Y1747D01*
X5991Y1748D01*
X5992Y1749D01*
X5997Y1754D01*
X6000Y1757D01*
X6001Y1756D01*
X6002Y1754D01*
X6008Y1749D01*
X6013Y1744D01*
X6014Y1744D01*
X6015Y1742D01*
X6021Y1739D01*
X6027Y1735D01*
X6029Y1734D01*
X6030Y1733D01*
X6037Y1730D01*
X6044Y1728D01*
X6045Y1727D01*
X6047Y1727D01*
X6054Y1725D01*
X6061Y1723D01*
X6062Y1723D01*
X6064Y1723D01*
X6075Y1722D01*
X6623Y1722D01*
X6625Y1723D01*
X6627Y1722D01*
X6634Y1723D01*
X6641Y1724D01*
X6643Y1724D01*
X6644Y1725D01*
X6651Y1727D01*
X6658Y1729D01*
X6660Y1729D01*
X6661Y1730D01*
X6668Y1733D01*
X6674Y1736D01*
X6675Y1737D01*
X6677Y1738D01*
X6683Y1742D01*
X6688Y1747D01*
X6690Y1748D01*
X6691Y1749D01*
X6696Y1754D01*
X6701Y1759D01*
X6702Y1761D01*
X6703Y1762D01*
X6706Y1768D01*
X6710Y1774D01*
X6711Y1775D01*
X6712Y1777D01*
X6715Y1784D01*
X6718Y1790D01*
X6718Y1792D01*
X6719Y1793D01*
X6720Y1800D01*
X6722Y1807D01*
X6722Y1809D01*
X6722Y1811D01*
X6722Y1812D01*
X6747Y1873D01*
X6798Y1923D01*
X6800Y1925D01*
X6807Y1931D01*
X6808Y1931D01*
X6813Y1937D01*
X6819Y1944D01*
X6824Y1951D01*
X6829Y1959D01*
X6832Y1967D01*
X6835Y1975D01*
X6837Y1984D01*
X6839Y1992D01*
X6839Y1993D01*
X6839Y2003D01*
X6839Y2250D01*
X6839Y2257D01*
X6838Y2264D01*
X6838Y2266D01*
X6838Y2268D01*
X6836Y2274D01*
X6834Y2281D01*
X6834Y2283D01*
X6833Y2285D01*
X6830Y2291D01*
X6827Y2297D01*
X6826Y2299D01*
X6825Y2301D01*
X6821Y2306D01*
X6818Y2312D01*
X6816Y2314D01*
X6815Y2315D01*
X6814Y2316D01*
X6810Y2320D01*
X6171Y2959D01*
X6166Y2963D01*
X6161Y2968D01*
X6159Y2969D01*
X6158Y2970D01*
X6152Y2974D01*
X6146Y2977D01*
X6144Y2978D01*
X6143Y2979D01*
X6136Y2981D01*
X6130Y2984D01*
X6128Y2984D01*
X6126Y2985D01*
X6119Y2986D01*
X6112Y2987D01*
X6110Y2988D01*
X6108Y2988D01*
X6107Y2988D01*
X6101Y2988D01*
X5899Y2988D01*
X5892Y2987D01*
X5885Y2987D01*
X5883Y2987D01*
X5881Y2986D01*
X5875Y2985D01*
X5868Y2983D01*
X5866Y2982D01*
X5864Y2982D01*
X5858Y2979D01*
X5852Y2976D01*
X5850Y2975D01*
X5848Y2974D01*
X5843Y2970D01*
X5837Y2966D01*
X5835Y2965D01*
X5834Y2964D01*
X5832Y2962D01*
X5829Y2959D01*
X5715Y2846D01*
X5620Y2806D01*
X5267Y2806D01*
X5259Y2805D01*
X5250Y2805D01*
X5241Y2802D01*
X5233Y2800D01*
X5225Y2796D01*
X5217Y2792D01*
X5210Y2787D01*
X5203Y2782D01*
X5202Y2782D01*
X5196Y2776D01*
X5190Y2770D01*
X5190Y2769D01*
X5185Y2762D01*
X5180Y2755D01*
X5180Y2754D01*
X5176Y2745D01*
X5157Y2700D01*
X5112Y2655D01*
X5053Y2631D01*
X4595Y2631D01*
X4536Y2655D01*
X4478Y2713D01*
X4476Y2714D01*
X4475Y2716D01*
X4470Y2720D01*
X4469Y2721D01*
X4468Y2722D01*
X4464Y2725D01*
X4463Y2726D01*
X4461Y2727D01*
X4455Y2730D01*
X4449Y2733D01*
X4447Y2734D01*
X4446Y2735D01*
X4439Y2737D01*
X4432Y2739D01*
X4431Y2740D01*
X4429Y2740D01*
X4422Y2741D01*
X4415Y2742D01*
X4413Y2742D01*
X4411Y2742D01*
X4404Y2742D01*
X4397Y2742D01*
X4395Y2742D01*
X4394Y2742D01*
X4387Y2740D01*
X4380Y2739D01*
X4378Y2738D01*
X4377Y2738D01*
X4370Y2735D01*
X4363Y2732D01*
X4362Y2731D01*
X4360Y2731D01*
X4354Y2727D01*
X4348Y2723D01*
X4347Y2722D01*
X4346Y2721D01*
X4342Y2717D01*
X4341Y2717D01*
X4337Y2713D01*
X4335Y2711D01*
X4312Y2697D01*
X4286Y2691D01*
X4175Y2691D01*
X4175Y3067D01*
X4175Y3069D01*
X4175Y3070D01*
X4174Y3077D01*
X4174Y3085D01*
X4173Y3086D01*
X4173Y3088D01*
X4171Y3095D01*
X4169Y3102D01*
X4168Y3103D01*
X4168Y3105D01*
X4164Y3111D01*
X4161Y3117D01*
X4160Y3119D01*
X4160Y3120D01*
X4155Y3126D01*
X4151Y3132D01*
X4150Y3133D01*
X4149Y3134D01*
X4144Y3139D01*
X4138Y3144D01*
X4137Y3145D01*
X4136Y3146D01*
X4130Y3150D01*
X4124Y3154D01*
X4122Y3155D01*
X4121Y3155D01*
X4114Y3158D01*
X4108Y3161D01*
X4106Y3161D01*
X4104Y3162D01*
X4097Y3163D01*
X4090Y3165D01*
X4089Y3165D01*
X4087Y3166D01*
X4076Y3166D01*
X4074Y3166D01*
X4073Y3166D01*
X4066Y3165D01*
X4058Y3165D01*
X4057Y3164D01*
X4055Y3164D01*
X4048Y3162D01*
X4041Y3160D01*
X4040Y3159D01*
X4038Y3159D01*
X4032Y3155D01*
X4025Y3152D01*
X4024Y3151D01*
X4023Y3151D01*
X4017Y3146D01*
X4011Y3142D01*
X4010Y3141D01*
X4009Y3140D01*
X4004Y3134D01*
X3999Y3129D01*
X3998Y3128D01*
X3997Y3127D01*
X3993Y3121D01*
X3989Y3115D01*
X3988Y3113D01*
X3987Y3112D01*
X3985Y3105D01*
X3982Y3098D01*
X3981Y3097D01*
X3981Y3095D01*
X3979Y3088D01*
X3978Y3081D01*
X3978Y3080D01*
X3977Y3078D01*
X3977Y3067D01*
X3977Y2681D01*
X3974Y2680D01*
X3970Y2678D01*
X3967Y2677D01*
X3963Y2674D01*
X3958Y2671D01*
X3956Y2669D01*
X3953Y2666D01*
X3949Y2663D01*
X3945Y2659D01*
X3943Y2656D01*
X3941Y2654D01*
X3938Y2649D01*
X3934Y2645D01*
X3933Y2642D01*
X3931Y2639D01*
X3929Y2634D01*
X3926Y2630D01*
X3925Y2626D01*
X3924Y2623D01*
X3922Y2618D01*
X3921Y2613D01*
X3920Y2609D01*
X3920Y2606D01*
X3919Y2600D01*
X3919Y2595D01*
X3919Y2592D01*
X3919Y2588D01*
X3919Y2583D01*
X3919Y2578D01*
X3920Y2574D01*
X3921Y2571D01*
X3922Y2566D01*
X3923Y2560D01*
X3925Y2557D01*
X3926Y2554D01*
X3928Y2549D01*
X3930Y2544D01*
X3932Y2541D01*
X3934Y2538D01*
X3937Y2534D01*
X3940Y2529D01*
X3944Y2526D01*
X3945Y2524D01*
X3946Y2523D01*
X3948Y2521D01*
X4021Y2448D01*
X4061Y2352D01*
X4061Y2335D01*
X4062Y2326D01*
X4062Y2317D01*
X4065Y2309D01*
X4067Y2300D01*
X4071Y2292D01*
X4074Y2284D01*
X4075Y2284D01*
X4080Y2277D01*
X4085Y2270D01*
X4091Y2264D01*
X4097Y2258D01*
X4097Y2257D01*
X4098Y2257D01*
X4105Y2253D01*
X4112Y2248D01*
X4113Y2247D01*
X4122Y2243D01*
X4186Y2216D01*
X4232Y2171D01*
X4256Y2112D01*
X4256Y1936D01*
X4256Y1931D01*
X4257Y1926D01*
X4257Y1922D01*
X4258Y1919D01*
X4259Y1914D01*
X4260Y1908D01*
X4261Y1905D01*
X4262Y1902D01*
X4265Y1897D01*
X4266Y1892D01*
X4268Y1889D01*
X4270Y1886D01*
X4273Y1881D01*
X4276Y1877D01*
X4278Y1874D01*
X4280Y1871D01*
X4284Y1868D01*
X4287Y1864D01*
X4290Y1861D01*
X4293Y1859D01*
X4297Y1856D01*
X4301Y1853D01*
X4305Y1851D01*
X4308Y1849D01*
X4312Y1847D01*
X4317Y1845D01*
X4320Y1843D01*
X4324Y1842D01*
X4329Y1841D01*
X4334Y1839D01*
X4337Y1839D01*
X4341Y1838D01*
X4346Y1838D01*
X4351Y1837D01*
X4355Y1837D01*
X4359Y1837D01*
X4364Y1838D01*
X4369Y1838D01*
X4373Y1839D01*
X4376Y1839D01*
X4381Y1841D01*
X4386Y1842D01*
X4390Y1843D01*
X4393Y1844D01*
X4398Y1847D01*
X4402Y1849D01*
X4405Y1851D01*
X4409Y1852D01*
X4413Y1856D01*
X4417Y1859D01*
X4421Y1862D01*
X4423Y1863D01*
X4424Y1864D01*
X4425Y1866D01*
X4441Y1882D01*
X4464Y1895D01*
X4490Y1902D01*
X4601Y1902D01*
X4601Y1585D01*
X4601Y1583D01*
X4601Y1581D01*
X4602Y1574D01*
X4602Y1567D01*
X4603Y1565D01*
X4603Y1564D01*
X4605Y1557D01*
X4607Y1550D01*
X4608Y1549D01*
X4608Y1547D01*
X4611Y1541D01*
X4615Y1534D01*
X4616Y1533D01*
X4616Y1531D01*
X4621Y1526D01*
X4625Y1520D01*
X4626Y1519D01*
X4627Y1517D01*
X4632Y1512D01*
X4638Y1507D01*
X4639Y1507D01*
X4640Y1505D01*
X4646Y1502D01*
X4652Y1498D01*
X4654Y1497D01*
X4655Y1496D01*
X4662Y1493D01*
X4668Y1491D01*
X4670Y1490D01*
X4672Y1490D01*
X4679Y1488D01*
X4686Y1486D01*
X4687Y1486D01*
X4689Y1486D01*
X4700Y1485D01*
X4998Y1485D01*
X4998Y1411D01*
X4998Y1404D01*
X4999Y1397D01*
X4999Y1395D01*
X4999Y1393D01*
X5001Y1386D01*
X5003Y1380D01*
X5003Y1378D01*
X5004Y1376D01*
X5007Y1370D01*
X5010Y1363D01*
X5011Y1362D01*
X5011Y1360D01*
X5016Y1355D01*
X5019Y1349D01*
X5021Y1347D01*
X5022Y1346D01*
X5027Y1341D01*
X5032Y1336D01*
X5033Y1335D01*
X5034Y1334D01*
X5040Y1330D01*
X5046Y1326D01*
X5048Y1325D01*
X5049Y1324D01*
X5056Y1321D01*
X5062Y1318D01*
X5064Y1317D01*
X5065Y1317D01*
X5072Y1315D01*
X5079Y1313D01*
X5081Y1313D01*
X5082Y1313D01*
X5090Y1312D01*
X5097Y1312D01*
X5098Y1312D01*
G37*
G36*
X1162Y1761D02*
X1162Y1761D01*
X1163Y1761D01*
X1170Y1762D01*
X1178Y1762D01*
X1179Y1763D01*
X1181Y1763D01*
X1188Y1765D01*
X1195Y1767D01*
X1196Y1768D01*
X1198Y1768D01*
X1204Y1771D01*
X1211Y1775D01*
X1212Y1776D01*
X1213Y1776D01*
X1219Y1781D01*
X1225Y1785D01*
X1226Y1786D01*
X1227Y1787D01*
X1232Y1792D01*
X1237Y1798D01*
X1238Y1799D01*
X1239Y1800D01*
X1243Y1806D01*
X1247Y1812D01*
X1248Y1814D01*
X1249Y1815D01*
X1251Y1822D01*
X1254Y1828D01*
X1254Y1830D01*
X1255Y1832D01*
X1257Y1839D01*
X1258Y1846D01*
X1258Y1847D01*
X1259Y1849D01*
X1259Y1860D01*
X1259Y2311D01*
X2073Y2311D01*
X2099Y2304D01*
X2122Y2291D01*
X2141Y2272D01*
X2154Y2249D01*
X2161Y2223D01*
X2161Y2169D01*
X2161Y2162D01*
X2162Y2154D01*
X2162Y2153D01*
X2162Y2151D01*
X2164Y2144D01*
X2166Y2137D01*
X2167Y2136D01*
X2167Y2134D01*
X2170Y2128D01*
X2173Y2121D01*
X2174Y2120D01*
X2175Y2118D01*
X2179Y2112D01*
X2183Y2106D01*
X2184Y2105D01*
X2185Y2104D01*
X2190Y2099D01*
X2195Y2094D01*
X2196Y2093D01*
X2198Y2091D01*
X2203Y2087D01*
X2209Y2083D01*
X2211Y2082D01*
X2212Y2081D01*
X2219Y2079D01*
X2225Y2076D01*
X2227Y2075D01*
X2228Y2074D01*
X2235Y2073D01*
X2242Y2071D01*
X2244Y2071D01*
X2246Y2070D01*
X2253Y2070D01*
X2260Y2069D01*
X2261Y2069D01*
X2263Y2069D01*
X2270Y2070D01*
X2277Y2071D01*
X2279Y2071D01*
X2281Y2071D01*
X2288Y2074D01*
X2294Y2075D01*
X2296Y2076D01*
X2298Y2077D01*
X2304Y2080D01*
X2310Y2083D01*
X2312Y2084D01*
X2313Y2085D01*
X2319Y2089D01*
X2325Y2093D01*
X2326Y2095D01*
X2327Y2096D01*
X2332Y2101D01*
X2337Y2106D01*
X2338Y2107D01*
X2339Y2109D01*
X2343Y2115D01*
X2347Y2121D01*
X2348Y2123D01*
X2349Y2124D01*
X2349Y2126D01*
X2352Y2131D01*
X2368Y2171D01*
X2414Y2216D01*
X2455Y2233D01*
X2460Y2236D01*
X2464Y2238D01*
X2467Y2240D01*
X2471Y2241D01*
X2475Y2245D01*
X2479Y2248D01*
X2482Y2250D01*
X2485Y2252D01*
X2488Y2256D01*
X2492Y2260D01*
X2494Y2263D01*
X2496Y2265D01*
X2499Y2270D01*
X2502Y2274D01*
X2504Y2277D01*
X2506Y2280D01*
X2508Y2285D01*
X2510Y2290D01*
X2511Y2294D01*
X2512Y2297D01*
X2513Y2302D01*
X2515Y2307D01*
X2515Y2311D01*
X2516Y2314D01*
X2516Y2319D01*
X2516Y2325D01*
X2516Y2328D01*
X2516Y2332D01*
X2515Y2337D01*
X2515Y2342D01*
X2514Y2346D01*
X2513Y2349D01*
X2511Y2354D01*
X2510Y2359D01*
X2509Y2363D01*
X2507Y2366D01*
X2505Y2371D01*
X2503Y2375D01*
X2500Y2378D01*
X2499Y2381D01*
X2495Y2385D01*
X2492Y2390D01*
X2490Y2392D01*
X2487Y2395D01*
X2483Y2398D01*
X2480Y2402D01*
X2477Y2404D01*
X2474Y2406D01*
X2469Y2409D01*
X2465Y2412D01*
X2460Y2414D01*
X2459Y2415D01*
X2457Y2416D01*
X2455Y2417D01*
X2414Y2434D01*
X2368Y2479D01*
X2344Y2538D01*
X2344Y2867D01*
X2344Y2872D01*
X2343Y2877D01*
X2343Y2881D01*
X2342Y2885D01*
X2341Y2890D01*
X2340Y2895D01*
X2339Y2898D01*
X2338Y2902D01*
X2335Y2906D01*
X2334Y2911D01*
X2332Y2914D01*
X2330Y2918D01*
X2327Y2922D01*
X2324Y2926D01*
X2322Y2929D01*
X2320Y2932D01*
X2316Y2936D01*
X2313Y2939D01*
X2310Y2942D01*
X2307Y2944D01*
X2303Y2947D01*
X2299Y2950D01*
X2295Y2952D01*
X2292Y2954D01*
X2288Y2956D01*
X2283Y2959D01*
X2280Y2960D01*
X2276Y2961D01*
X2271Y2962D01*
X2266Y2964D01*
X2263Y2964D01*
X2259Y2965D01*
X2254Y2966D01*
X2249Y2966D01*
X2245Y2966D01*
X2241Y2966D01*
X2236Y2966D01*
X2231Y2965D01*
X2227Y2965D01*
X2224Y2964D01*
X2219Y2963D01*
X2214Y2961D01*
X2210Y2960D01*
X2207Y2959D01*
X2202Y2956D01*
X2198Y2954D01*
X2195Y2952D01*
X2191Y2951D01*
X2187Y2948D01*
X2183Y2945D01*
X2179Y2941D01*
X2177Y2940D01*
X2176Y2939D01*
X2175Y2937D01*
X2151Y2914D01*
X2092Y2889D01*
X310Y2889D01*
X308Y2889D01*
X307Y2889D01*
X300Y2888D01*
X292Y2888D01*
X291Y2887D01*
X289Y2887D01*
X282Y2885D01*
X275Y2883D01*
X274Y2882D01*
X272Y2882D01*
X266Y2879D01*
X259Y2875D01*
X258Y2874D01*
X257Y2874D01*
X251Y2869D01*
X245Y2865D01*
X244Y2864D01*
X243Y2863D01*
X238Y2858D01*
X233Y2852D01*
X232Y2851D01*
X231Y2850D01*
X227Y2844D01*
X223Y2838D01*
X222Y2836D01*
X221Y2835D01*
X219Y2828D01*
X216Y2822D01*
X216Y2820D01*
X215Y2818D01*
X213Y2811D01*
X212Y2804D01*
X212Y2803D01*
X211Y2801D01*
X211Y2790D01*
X211Y2410D01*
X211Y2408D01*
X211Y2407D01*
X212Y2400D01*
X212Y2392D01*
X213Y2391D01*
X213Y2389D01*
X215Y2382D01*
X217Y2375D01*
X218Y2374D01*
X218Y2372D01*
X221Y2366D01*
X225Y2359D01*
X226Y2358D01*
X226Y2357D01*
X231Y2351D01*
X235Y2345D01*
X236Y2344D01*
X237Y2343D01*
X242Y2338D01*
X248Y2333D01*
X249Y2332D01*
X250Y2331D01*
X256Y2327D01*
X262Y2323D01*
X264Y2322D01*
X265Y2321D01*
X272Y2319D01*
X278Y2316D01*
X280Y2316D01*
X282Y2315D01*
X289Y2313D01*
X296Y2312D01*
X297Y2312D01*
X299Y2311D01*
X310Y2311D01*
X861Y2311D01*
X861Y1860D01*
X861Y1858D01*
X861Y1857D01*
X862Y1850D01*
X862Y1842D01*
X863Y1841D01*
X863Y1839D01*
X865Y1832D01*
X867Y1825D01*
X868Y1824D01*
X868Y1822D01*
X871Y1816D01*
X875Y1809D01*
X876Y1808D01*
X876Y1807D01*
X881Y1801D01*
X885Y1795D01*
X886Y1794D01*
X887Y1793D01*
X892Y1788D01*
X898Y1783D01*
X899Y1782D01*
X900Y1781D01*
X906Y1777D01*
X912Y1773D01*
X914Y1772D01*
X915Y1771D01*
X922Y1769D01*
X928Y1766D01*
X930Y1766D01*
X932Y1765D01*
X939Y1763D01*
X946Y1762D01*
X947Y1762D01*
X949Y1761D01*
X960Y1761D01*
X1160Y1761D01*
X1162Y1761D01*
G37*
G36*
X12342Y1161D02*
X12342Y1161D01*
X12343Y1161D01*
X12350Y1162D01*
X12358Y1162D01*
X12359Y1163D01*
X12361Y1163D01*
X12368Y1165D01*
X12375Y1167D01*
X12376Y1168D01*
X12378Y1168D01*
X12384Y1171D01*
X12391Y1175D01*
X12392Y1176D01*
X12393Y1176D01*
X12399Y1181D01*
X12405Y1185D01*
X12406Y1186D01*
X12407Y1187D01*
X12412Y1192D01*
X12417Y1198D01*
X12418Y1199D01*
X12419Y1200D01*
X12423Y1206D01*
X12427Y1212D01*
X12428Y1214D01*
X12429Y1215D01*
X12431Y1222D01*
X12434Y1228D01*
X12434Y1230D01*
X12435Y1232D01*
X12437Y1239D01*
X12438Y1246D01*
X12438Y1247D01*
X12439Y1249D01*
X12439Y1260D01*
X12439Y1783D01*
X12439Y1785D01*
X12439Y1787D01*
X12438Y1794D01*
X12438Y1801D01*
X12437Y1803D01*
X12437Y1804D01*
X12435Y1811D01*
X12433Y1818D01*
X12432Y1820D01*
X12432Y1821D01*
X12429Y1828D01*
X12425Y1834D01*
X12424Y1835D01*
X12424Y1837D01*
X12419Y1843D01*
X12415Y1848D01*
X12414Y1850D01*
X12413Y1851D01*
X12408Y1856D01*
X12402Y1861D01*
X12401Y1862D01*
X12400Y1863D01*
X12394Y1866D01*
X12388Y1870D01*
X12386Y1871D01*
X12385Y1872D01*
X12378Y1875D01*
X12372Y1878D01*
X12370Y1878D01*
X12368Y1879D01*
X12361Y1880D01*
X12354Y1882D01*
X12353Y1882D01*
X12351Y1882D01*
X12340Y1883D01*
X12284Y1883D01*
X12284Y2200D01*
X12284Y2901D01*
X12502Y2901D01*
X12502Y2860D01*
X12502Y2855D01*
X12502Y2850D01*
X12503Y2846D01*
X12504Y2843D01*
X12505Y2838D01*
X12506Y2833D01*
X12507Y2829D01*
X12508Y2826D01*
X12510Y2821D01*
X12512Y2816D01*
X12514Y2813D01*
X12516Y2810D01*
X12519Y2805D01*
X12522Y2801D01*
X12524Y2798D01*
X12526Y2795D01*
X12530Y2792D01*
X12533Y2788D01*
X12536Y2786D01*
X12539Y2783D01*
X12543Y2780D01*
X12547Y2777D01*
X12550Y2775D01*
X12553Y2773D01*
X12558Y2771D01*
X12563Y2769D01*
X12566Y2768D01*
X12570Y2766D01*
X12575Y2765D01*
X12580Y2763D01*
X12583Y2763D01*
X12587Y2762D01*
X12592Y2762D01*
X12597Y2761D01*
X12601Y2761D01*
X12604Y2761D01*
X12610Y2762D01*
X12615Y2762D01*
X12618Y2763D01*
X12622Y2763D01*
X12627Y2765D01*
X12632Y2766D01*
X12635Y2767D01*
X12639Y2768D01*
X12644Y2771D01*
X12648Y2773D01*
X12651Y2775D01*
X12655Y2777D01*
X12659Y2780D01*
X12663Y2783D01*
X12667Y2786D01*
X12669Y2787D01*
X12669Y2788D01*
X12671Y2790D01*
X12752Y2871D01*
X12778Y2882D01*
X12780Y2883D01*
X12781Y2883D01*
X12788Y2887D01*
X12794Y2890D01*
X12795Y2891D01*
X12797Y2892D01*
X12802Y2896D01*
X12808Y2901D01*
X12809Y2902D01*
X12810Y2903D01*
X12815Y2909D01*
X12820Y2914D01*
X12821Y2915D01*
X12822Y2917D01*
X12825Y2923D01*
X12829Y2929D01*
X12830Y2930D01*
X12830Y2932D01*
X12833Y2939D01*
X12835Y2945D01*
X12836Y2947D01*
X12836Y2949D01*
X12838Y2956D01*
X12839Y2963D01*
X12839Y2964D01*
X12839Y2966D01*
X12839Y2973D01*
X12839Y2980D01*
X12839Y2982D01*
X12839Y2984D01*
X12838Y2991D01*
X12836Y2998D01*
X12836Y2999D01*
X12836Y3001D01*
X12832Y3011D01*
X12829Y3018D01*
X12829Y3982D01*
X12839Y4006D01*
X12840Y4008D01*
X12841Y4009D01*
X12842Y4016D01*
X12845Y4023D01*
X12845Y4025D01*
X12845Y4026D01*
X12846Y4033D01*
X12847Y4041D01*
X12847Y4042D01*
X12847Y4044D01*
X12846Y4051D01*
X12846Y4058D01*
X12845Y4060D01*
X12845Y4062D01*
X12843Y4068D01*
X12842Y4075D01*
X12841Y4077D01*
X12841Y4079D01*
X12838Y4085D01*
X12835Y4092D01*
X12834Y4093D01*
X12833Y4095D01*
X12829Y4100D01*
X12825Y4106D01*
X12824Y4108D01*
X12823Y4109D01*
X12818Y4114D01*
X12813Y4119D01*
X12811Y4120D01*
X12810Y4121D01*
X12735Y4197D01*
X12730Y4200D01*
X12727Y4204D01*
X12724Y4206D01*
X12721Y4208D01*
X12716Y4211D01*
X12712Y4214D01*
X12709Y4215D01*
X12706Y4217D01*
X12701Y4219D01*
X12696Y4221D01*
X12692Y4221D01*
X12689Y4223D01*
X12684Y4224D01*
X12679Y4225D01*
X12675Y4225D01*
X12672Y4226D01*
X12666Y4225D01*
X12661Y4226D01*
X12657Y4225D01*
X12654Y4225D01*
X12649Y4224D01*
X12644Y4224D01*
X12640Y4223D01*
X12637Y4222D01*
X12632Y4220D01*
X12627Y4218D01*
X12623Y4217D01*
X12620Y4215D01*
X12616Y4213D01*
X12611Y4210D01*
X12608Y4208D01*
X12605Y4206D01*
X12601Y4203D01*
X12597Y4199D01*
X12595Y4197D01*
X12592Y4194D01*
X12589Y4190D01*
X12585Y4186D01*
X12583Y4183D01*
X12581Y4180D01*
X12579Y4176D01*
X12576Y4171D01*
X12574Y4168D01*
X12573Y4165D01*
X12571Y4160D01*
X12569Y4155D01*
X12569Y4151D01*
X12567Y4148D01*
X12567Y4143D01*
X12566Y4138D01*
X12565Y4132D01*
X12565Y4130D01*
X12565Y4129D01*
X12565Y4127D01*
X12565Y3623D01*
X12541Y3564D01*
X12495Y3519D01*
X12436Y3494D01*
X12434Y3494D01*
X12429Y3494D01*
X12425Y3494D01*
X12421Y3493D01*
X12416Y3493D01*
X12412Y3492D01*
X12407Y3491D01*
X12403Y3489D01*
X12399Y3488D01*
X12395Y3486D01*
X12391Y3484D01*
X12387Y3482D01*
X12383Y3481D01*
X12380Y3478D01*
X12376Y3475D01*
X12372Y3473D01*
X12369Y3470D01*
X12366Y3467D01*
X12362Y3464D01*
X12360Y3460D01*
X12357Y3458D01*
X12354Y3454D01*
X12351Y3450D01*
X12349Y3446D01*
X12347Y3443D01*
X12345Y3439D01*
X12343Y3434D01*
X12342Y3430D01*
X12340Y3427D01*
X12339Y3422D01*
X12337Y3418D01*
X12337Y3414D01*
X12336Y3409D01*
X12335Y3405D01*
X12335Y3400D01*
X12335Y3396D01*
X12335Y3392D01*
X12335Y3387D01*
X12336Y3382D01*
X12336Y3378D01*
X12337Y3374D01*
X12338Y3370D01*
X12339Y3365D01*
X12341Y3361D01*
X12342Y3357D01*
X12344Y3353D01*
X12346Y3349D01*
X12348Y3345D01*
X12350Y3342D01*
X12353Y3338D01*
X12356Y3334D01*
X12359Y3331D01*
X12361Y3328D01*
X12365Y3325D01*
X12368Y3321D01*
X12371Y3319D01*
X12374Y3316D01*
X12378Y3313D01*
X12382Y3311D01*
X12386Y3309D01*
X12389Y3307D01*
X12394Y3305D01*
X12398Y3303D01*
X12404Y3301D01*
X12406Y3300D01*
X12407Y3300D01*
X12408Y3299D01*
X12440Y3291D01*
X12463Y3277D01*
X12482Y3259D01*
X12495Y3236D01*
X12502Y3210D01*
X12502Y3099D01*
X12185Y3099D01*
X12183Y3099D01*
X12181Y3099D01*
X12174Y3098D01*
X12167Y3098D01*
X12165Y3097D01*
X12164Y3097D01*
X12157Y3095D01*
X12150Y3093D01*
X12149Y3092D01*
X12147Y3092D01*
X12141Y3089D01*
X12134Y3085D01*
X12133Y3084D01*
X12131Y3084D01*
X12126Y3079D01*
X12120Y3075D01*
X12119Y3074D01*
X12117Y3073D01*
X12112Y3068D01*
X12107Y3062D01*
X12107Y3061D01*
X12105Y3060D01*
X12102Y3054D01*
X12098Y3048D01*
X12097Y3046D01*
X12096Y3045D01*
X12093Y3038D01*
X12091Y3032D01*
X12090Y3030D01*
X12090Y3028D01*
X12088Y3021D01*
X12086Y3014D01*
X12086Y3013D01*
X12086Y3011D01*
X12085Y3000D01*
X12085Y2200D01*
X12085Y1883D01*
X11975Y1883D01*
X11949Y1890D01*
X11944Y1892D01*
X11938Y1895D01*
X11936Y1896D01*
X11933Y1897D01*
X11927Y1898D01*
X11921Y1900D01*
X11919Y1901D01*
X11916Y1901D01*
X11910Y1902D01*
X11904Y1903D01*
X11901Y1902D01*
X11899Y1903D01*
X11892Y1902D01*
X11886Y1902D01*
X11884Y1901D01*
X11881Y1901D01*
X11875Y1899D01*
X11869Y1898D01*
X11867Y1897D01*
X11864Y1896D01*
X11858Y1893D01*
X11853Y1891D01*
X11851Y1889D01*
X11848Y1888D01*
X11843Y1884D01*
X11838Y1881D01*
X11835Y1879D01*
X11834Y1878D01*
X11833Y1876D01*
X11830Y1874D01*
X11803Y1847D01*
X11773Y1835D01*
X11771Y1834D01*
X11770Y1833D01*
X11763Y1830D01*
X11757Y1826D01*
X11756Y1825D01*
X11754Y1824D01*
X11749Y1820D01*
X11743Y1815D01*
X11742Y1814D01*
X11741Y1813D01*
X11736Y1808D01*
X11731Y1802D01*
X11730Y1801D01*
X11729Y1800D01*
X11726Y1793D01*
X11722Y1787D01*
X11721Y1786D01*
X11720Y1784D01*
X11718Y1778D01*
X11715Y1771D01*
X11715Y1769D01*
X11715Y1768D01*
X11713Y1761D01*
X11712Y1754D01*
X11712Y1752D01*
X11712Y1750D01*
X11712Y1743D01*
X11712Y1736D01*
X11712Y1734D01*
X11712Y1733D01*
X11713Y1726D01*
X11714Y1718D01*
X11715Y1717D01*
X11715Y1715D01*
X11719Y1705D01*
X11742Y1649D01*
X11742Y1260D01*
X11742Y1258D01*
X11742Y1257D01*
X11743Y1250D01*
X11744Y1242D01*
X11744Y1241D01*
X11744Y1239D01*
X11747Y1232D01*
X11748Y1225D01*
X11749Y1224D01*
X11750Y1222D01*
X11753Y1216D01*
X11756Y1209D01*
X11757Y1208D01*
X11758Y1207D01*
X11762Y1201D01*
X11766Y1195D01*
X11768Y1194D01*
X11769Y1193D01*
X11774Y1188D01*
X11779Y1183D01*
X11780Y1182D01*
X11782Y1181D01*
X11788Y1177D01*
X11794Y1173D01*
X11795Y1172D01*
X11797Y1171D01*
X11803Y1169D01*
X11810Y1166D01*
X11812Y1166D01*
X11813Y1165D01*
X11820Y1163D01*
X11827Y1162D01*
X11829Y1162D01*
X11830Y1161D01*
X11841Y1161D01*
X12340Y1161D01*
X12342Y1161D01*
G37*
G36*
X14742Y4111D02*
X14742Y4111D01*
X14743Y4111D01*
X14750Y4112D01*
X14758Y4112D01*
X14759Y4113D01*
X14761Y4113D01*
X14768Y4115D01*
X14775Y4117D01*
X14776Y4118D01*
X14778Y4118D01*
X14784Y4121D01*
X14791Y4125D01*
X14792Y4126D01*
X14793Y4126D01*
X14799Y4131D01*
X14805Y4135D01*
X14806Y4136D01*
X14807Y4137D01*
X14812Y4142D01*
X14817Y4148D01*
X14818Y4149D01*
X14819Y4150D01*
X14823Y4156D01*
X14827Y4162D01*
X14828Y4164D01*
X14829Y4165D01*
X14831Y4172D01*
X14834Y4178D01*
X14834Y4180D01*
X14835Y4182D01*
X14837Y4189D01*
X14838Y4196D01*
X14838Y4197D01*
X14839Y4199D01*
X14839Y4210D01*
X14839Y4590D01*
X14839Y4592D01*
X14839Y4593D01*
X14838Y4600D01*
X14838Y4608D01*
X14837Y4609D01*
X14837Y4611D01*
X14835Y4618D01*
X14833Y4625D01*
X14832Y4626D01*
X14832Y4628D01*
X14829Y4634D01*
X14825Y4641D01*
X14824Y4642D01*
X14824Y4643D01*
X14819Y4649D01*
X14815Y4655D01*
X14814Y4656D01*
X14813Y4657D01*
X14808Y4662D01*
X14802Y4667D01*
X14801Y4668D01*
X14800Y4669D01*
X14794Y4673D01*
X14788Y4677D01*
X14786Y4678D01*
X14785Y4679D01*
X14778Y4681D01*
X14772Y4684D01*
X14770Y4684D01*
X14768Y4685D01*
X14761Y4687D01*
X14754Y4688D01*
X14753Y4688D01*
X14751Y4689D01*
X14740Y4689D01*
X14189Y4689D01*
X14189Y5140D01*
X14189Y5142D01*
X14189Y5143D01*
X14188Y5150D01*
X14188Y5158D01*
X14187Y5159D01*
X14187Y5161D01*
X14185Y5168D01*
X14183Y5175D01*
X14182Y5176D01*
X14182Y5178D01*
X14179Y5184D01*
X14175Y5191D01*
X14174Y5192D01*
X14174Y5193D01*
X14169Y5199D01*
X14165Y5205D01*
X14164Y5206D01*
X14163Y5207D01*
X14158Y5212D01*
X14152Y5217D01*
X14151Y5218D01*
X14150Y5219D01*
X14144Y5223D01*
X14138Y5227D01*
X14136Y5228D01*
X14135Y5229D01*
X14128Y5231D01*
X14122Y5234D01*
X14120Y5234D01*
X14118Y5235D01*
X14111Y5237D01*
X14104Y5238D01*
X14103Y5238D01*
X14101Y5239D01*
X14090Y5239D01*
X13890Y5239D01*
X13888Y5239D01*
X13887Y5239D01*
X13880Y5238D01*
X13872Y5238D01*
X13871Y5237D01*
X13869Y5237D01*
X13862Y5235D01*
X13855Y5233D01*
X13854Y5232D01*
X13852Y5232D01*
X13846Y5229D01*
X13839Y5225D01*
X13838Y5224D01*
X13837Y5224D01*
X13831Y5219D01*
X13825Y5215D01*
X13824Y5214D01*
X13823Y5213D01*
X13818Y5208D01*
X13813Y5202D01*
X13812Y5201D01*
X13811Y5200D01*
X13807Y5194D01*
X13803Y5188D01*
X13802Y5186D01*
X13801Y5185D01*
X13799Y5178D01*
X13796Y5172D01*
X13796Y5170D01*
X13795Y5168D01*
X13793Y5161D01*
X13792Y5154D01*
X13792Y5153D01*
X13791Y5151D01*
X13791Y5140D01*
X13791Y4689D01*
X13409Y4689D01*
X13404Y4689D01*
X13399Y4689D01*
X13395Y4688D01*
X13392Y4688D01*
X13386Y4686D01*
X13381Y4685D01*
X13378Y4684D01*
X13374Y4683D01*
X13370Y4681D01*
X13365Y4679D01*
X13362Y4677D01*
X13359Y4675D01*
X13354Y4672D01*
X13350Y4670D01*
X13347Y4667D01*
X13344Y4665D01*
X13341Y4661D01*
X13337Y4658D01*
X13334Y4655D01*
X13332Y4652D01*
X13329Y4648D01*
X13326Y4644D01*
X13324Y4641D01*
X13322Y4638D01*
X13320Y4633D01*
X13318Y4628D01*
X13316Y4625D01*
X13315Y4622D01*
X13314Y4616D01*
X13312Y4611D01*
X13312Y4608D01*
X13311Y4604D01*
X13311Y4599D01*
X13310Y4594D01*
X13310Y4590D01*
X13310Y4587D01*
X13311Y4582D01*
X13311Y4576D01*
X13312Y4573D01*
X13312Y4569D01*
X13314Y4564D01*
X13315Y4559D01*
X13316Y4556D01*
X13317Y4552D01*
X13320Y4548D01*
X13322Y4543D01*
X13324Y4540D01*
X13325Y4537D01*
X13329Y4532D01*
X13332Y4528D01*
X13335Y4524D01*
X13336Y4523D01*
X13337Y4522D01*
X13339Y4520D01*
X13375Y4484D01*
X13719Y4140D01*
X13724Y4135D01*
X13729Y4131D01*
X13731Y4130D01*
X13732Y4128D01*
X13738Y4125D01*
X13744Y4121D01*
X13746Y4121D01*
X13748Y4120D01*
X13754Y4117D01*
X13761Y4115D01*
X13763Y4115D01*
X13764Y4114D01*
X13771Y4113D01*
X13778Y4111D01*
X13781Y4111D01*
X13782Y4111D01*
X13784Y4111D01*
X13789Y4111D01*
X14740Y4111D01*
X14742Y4111D01*
G37*
G36*
X14092Y1761D02*
X14092Y1761D01*
X14093Y1761D01*
X14100Y1762D01*
X14108Y1762D01*
X14109Y1763D01*
X14111Y1763D01*
X14118Y1765D01*
X14125Y1767D01*
X14126Y1768D01*
X14128Y1768D01*
X14134Y1771D01*
X14141Y1775D01*
X14142Y1776D01*
X14143Y1776D01*
X14149Y1781D01*
X14155Y1785D01*
X14156Y1786D01*
X14157Y1787D01*
X14162Y1792D01*
X14167Y1798D01*
X14168Y1799D01*
X14169Y1800D01*
X14173Y1806D01*
X14177Y1812D01*
X14178Y1814D01*
X14179Y1815D01*
X14181Y1822D01*
X14184Y1828D01*
X14184Y1830D01*
X14185Y1832D01*
X14187Y1839D01*
X14188Y1846D01*
X14188Y1847D01*
X14189Y1849D01*
X14189Y1860D01*
X14189Y2311D01*
X14740Y2311D01*
X14742Y2311D01*
X14743Y2311D01*
X14750Y2312D01*
X14758Y2312D01*
X14759Y2313D01*
X14761Y2313D01*
X14768Y2315D01*
X14775Y2317D01*
X14776Y2318D01*
X14778Y2318D01*
X14784Y2321D01*
X14791Y2325D01*
X14792Y2326D01*
X14793Y2326D01*
X14799Y2331D01*
X14805Y2335D01*
X14806Y2336D01*
X14807Y2337D01*
X14812Y2342D01*
X14817Y2348D01*
X14818Y2349D01*
X14819Y2350D01*
X14823Y2356D01*
X14827Y2362D01*
X14828Y2364D01*
X14829Y2365D01*
X14831Y2372D01*
X14834Y2378D01*
X14834Y2380D01*
X14835Y2382D01*
X14837Y2389D01*
X14838Y2396D01*
X14838Y2397D01*
X14839Y2399D01*
X14839Y2410D01*
X14839Y2790D01*
X14839Y2792D01*
X14839Y2793D01*
X14838Y2800D01*
X14838Y2808D01*
X14837Y2809D01*
X14837Y2811D01*
X14835Y2818D01*
X14833Y2825D01*
X14832Y2826D01*
X14832Y2828D01*
X14829Y2834D01*
X14825Y2841D01*
X14824Y2842D01*
X14824Y2843D01*
X14819Y2849D01*
X14815Y2855D01*
X14814Y2856D01*
X14813Y2857D01*
X14808Y2862D01*
X14802Y2867D01*
X14801Y2868D01*
X14800Y2869D01*
X14794Y2873D01*
X14788Y2877D01*
X14786Y2878D01*
X14785Y2879D01*
X14778Y2881D01*
X14772Y2884D01*
X14770Y2884D01*
X14768Y2885D01*
X14761Y2887D01*
X14754Y2888D01*
X14753Y2888D01*
X14751Y2889D01*
X14740Y2889D01*
X13789Y2889D01*
X13782Y2889D01*
X13775Y2888D01*
X13773Y2888D01*
X13772Y2888D01*
X13765Y2886D01*
X13758Y2884D01*
X13756Y2884D01*
X13754Y2883D01*
X13748Y2880D01*
X13742Y2877D01*
X13740Y2876D01*
X13739Y2875D01*
X13733Y2871D01*
X13727Y2868D01*
X13725Y2866D01*
X13724Y2865D01*
X13723Y2864D01*
X13719Y2860D01*
X13339Y2480D01*
X13336Y2476D01*
X13332Y2472D01*
X13330Y2469D01*
X13328Y2467D01*
X13325Y2462D01*
X13322Y2458D01*
X13321Y2454D01*
X13319Y2451D01*
X13317Y2446D01*
X13315Y2442D01*
X13314Y2438D01*
X13313Y2435D01*
X13312Y2429D01*
X13311Y2424D01*
X13311Y2421D01*
X13310Y2417D01*
X13310Y2412D01*
X13310Y2407D01*
X13310Y2403D01*
X13310Y2400D01*
X13311Y2394D01*
X13312Y2389D01*
X13313Y2386D01*
X13314Y2382D01*
X13316Y2377D01*
X13317Y2372D01*
X13319Y2369D01*
X13320Y2366D01*
X13323Y2361D01*
X13325Y2357D01*
X13328Y2354D01*
X13330Y2351D01*
X13333Y2347D01*
X13336Y2343D01*
X13339Y2340D01*
X13341Y2338D01*
X13345Y2334D01*
X13349Y2331D01*
X13352Y2329D01*
X13355Y2327D01*
X13360Y2324D01*
X13364Y2321D01*
X13368Y2320D01*
X13371Y2318D01*
X13376Y2317D01*
X13381Y2315D01*
X13384Y2314D01*
X13388Y2313D01*
X13393Y2312D01*
X13398Y2311D01*
X13403Y2311D01*
X13405Y2311D01*
X13407Y2311D01*
X13409Y2311D01*
X13791Y2311D01*
X13791Y1860D01*
X13791Y1858D01*
X13791Y1857D01*
X13792Y1850D01*
X13792Y1842D01*
X13793Y1841D01*
X13793Y1839D01*
X13795Y1832D01*
X13797Y1825D01*
X13798Y1824D01*
X13798Y1822D01*
X13801Y1816D01*
X13805Y1809D01*
X13806Y1808D01*
X13806Y1807D01*
X13811Y1801D01*
X13815Y1795D01*
X13816Y1794D01*
X13817Y1793D01*
X13822Y1788D01*
X13828Y1783D01*
X13829Y1782D01*
X13830Y1781D01*
X13836Y1777D01*
X13842Y1773D01*
X13844Y1772D01*
X13845Y1771D01*
X13852Y1769D01*
X13858Y1766D01*
X13860Y1766D01*
X13862Y1765D01*
X13869Y1763D01*
X13876Y1762D01*
X13877Y1762D01*
X13879Y1761D01*
X13890Y1761D01*
X14090Y1761D01*
X14092Y1761D01*
G37*
G36*
X11236Y3701D02*
X11236Y3701D01*
X11238Y3701D01*
X11245Y3702D01*
X11252Y3702D01*
X11254Y3703D01*
X11255Y3703D01*
X11262Y3705D01*
X11269Y3707D01*
X11271Y3708D01*
X11272Y3708D01*
X11279Y3712D01*
X11285Y3715D01*
X11287Y3716D01*
X11288Y3716D01*
X11294Y3721D01*
X11300Y3725D01*
X11301Y3726D01*
X11302Y3727D01*
X11307Y3732D01*
X11312Y3738D01*
X11313Y3739D01*
X11314Y3740D01*
X11318Y3746D01*
X11322Y3752D01*
X11322Y3754D01*
X11323Y3755D01*
X11326Y3762D01*
X11329Y3768D01*
X11329Y3770D01*
X11330Y3772D01*
X11331Y3779D01*
X11333Y3786D01*
X11333Y3787D01*
X11333Y3789D01*
X11334Y3800D01*
X11334Y4501D01*
X11532Y4501D01*
X11532Y4461D01*
X11533Y4458D01*
X11532Y4454D01*
X11533Y4449D01*
X11534Y4444D01*
X11535Y4440D01*
X11535Y4437D01*
X11537Y4432D01*
X11538Y4427D01*
X11540Y4423D01*
X11541Y4420D01*
X11544Y4415D01*
X11546Y4411D01*
X11548Y4408D01*
X11550Y4405D01*
X11553Y4401D01*
X11556Y4396D01*
X11559Y4394D01*
X11561Y4391D01*
X11565Y4388D01*
X11569Y4384D01*
X11572Y4382D01*
X11575Y4380D01*
X11579Y4377D01*
X11584Y4374D01*
X11587Y4373D01*
X11590Y4371D01*
X11595Y4369D01*
X11600Y4367D01*
X11603Y4366D01*
X11607Y4365D01*
X11612Y4364D01*
X11617Y4363D01*
X11621Y4363D01*
X11624Y4362D01*
X11629Y4362D01*
X11635Y4362D01*
X11638Y4362D01*
X11642Y4362D01*
X11647Y4363D01*
X11652Y4364D01*
X11656Y4365D01*
X11659Y4366D01*
X11663Y4367D01*
X12366Y4367D01*
X12369Y4367D01*
X12373Y4367D01*
X12378Y4368D01*
X12383Y4369D01*
X12387Y4370D01*
X12390Y4370D01*
X12395Y4372D01*
X12400Y4373D01*
X12403Y4375D01*
X12407Y4376D01*
X12411Y4379D01*
X12416Y4381D01*
X12419Y4383D01*
X12422Y4385D01*
X12426Y4388D01*
X12431Y4391D01*
X12433Y4394D01*
X12436Y4396D01*
X12439Y4400D01*
X12443Y4404D01*
X12445Y4407D01*
X12447Y4409D01*
X12450Y4414D01*
X12453Y4419D01*
X12454Y4422D01*
X12456Y4425D01*
X12458Y4430D01*
X12460Y4435D01*
X12461Y4438D01*
X12462Y4441D01*
X12463Y4447D01*
X12464Y4452D01*
X12464Y4455D01*
X12465Y4459D01*
X12465Y4464D01*
X12465Y4470D01*
X12464Y4473D01*
X12464Y4476D01*
X12463Y4482D01*
X12463Y4487D01*
X12462Y4490D01*
X12461Y4494D01*
X12458Y4504D01*
X12457Y4504D01*
X12439Y4548D01*
X12439Y4794D01*
X12439Y4795D01*
X12439Y4797D01*
X12438Y4804D01*
X12438Y4811D01*
X12437Y4813D01*
X12437Y4815D01*
X12435Y4821D01*
X12433Y4828D01*
X12432Y4830D01*
X12432Y4831D01*
X12429Y4838D01*
X12425Y4844D01*
X12424Y4846D01*
X12424Y4847D01*
X12419Y4853D01*
X12415Y4859D01*
X12414Y4860D01*
X12413Y4861D01*
X12408Y4866D01*
X12402Y4871D01*
X12401Y4872D01*
X12400Y4873D01*
X12394Y4877D01*
X12388Y4881D01*
X12386Y4881D01*
X12385Y4882D01*
X12378Y4885D01*
X12372Y4888D01*
X12370Y4888D01*
X12368Y4889D01*
X12361Y4890D01*
X12354Y4892D01*
X12353Y4892D01*
X12351Y4892D01*
X12340Y4893D01*
X12187Y4893D01*
X12187Y5231D01*
X12187Y5233D01*
X12187Y5235D01*
X12186Y5242D01*
X12185Y5249D01*
X12185Y5251D01*
X12185Y5252D01*
X12183Y5259D01*
X12181Y5266D01*
X12180Y5268D01*
X12180Y5269D01*
X12176Y5276D01*
X12173Y5282D01*
X12172Y5283D01*
X12171Y5285D01*
X12167Y5291D01*
X12163Y5296D01*
X12162Y5298D01*
X12161Y5299D01*
X12155Y5304D01*
X12150Y5309D01*
X12149Y5310D01*
X12148Y5311D01*
X12142Y5314D01*
X12136Y5319D01*
X12134Y5319D01*
X12133Y5320D01*
X12126Y5323D01*
X12119Y5326D01*
X12118Y5326D01*
X12116Y5327D01*
X12109Y5328D01*
X12102Y5330D01*
X12101Y5330D01*
X12099Y5330D01*
X12088Y5331D01*
X12012Y5331D01*
X12011Y5331D01*
X12009Y5331D01*
X12002Y5330D01*
X11995Y5329D01*
X11993Y5329D01*
X11991Y5329D01*
X11985Y5326D01*
X11978Y5325D01*
X11976Y5324D01*
X11975Y5323D01*
X11968Y5320D01*
X11962Y5317D01*
X11960Y5316D01*
X11959Y5315D01*
X11953Y5311D01*
X11947Y5307D01*
X11946Y5305D01*
X11945Y5304D01*
X11940Y5299D01*
X11935Y5294D01*
X11934Y5293D01*
X11933Y5291D01*
X11929Y5285D01*
X11925Y5279D01*
X11925Y5278D01*
X11924Y5276D01*
X11921Y5270D01*
X11918Y5263D01*
X11918Y5261D01*
X11917Y5260D01*
X11916Y5253D01*
X11914Y5246D01*
X11914Y5244D01*
X11914Y5243D01*
X11913Y5231D01*
X11913Y4893D01*
X11682Y4893D01*
X11657Y4900D01*
X11651Y4901D01*
X11646Y4902D01*
X11643Y4902D01*
X11640Y4903D01*
X11634Y4903D01*
X11628Y4903D01*
X11625Y4903D01*
X11622Y4903D01*
X11616Y4902D01*
X11611Y4901D01*
X11608Y4900D01*
X11605Y4899D01*
X11599Y4897D01*
X11594Y4896D01*
X11591Y4894D01*
X11588Y4893D01*
X11583Y4890D01*
X11578Y4888D01*
X11576Y4886D01*
X11573Y4884D01*
X11569Y4880D01*
X11564Y4877D01*
X11562Y4874D01*
X11560Y4872D01*
X11556Y4868D01*
X11552Y4864D01*
X11551Y4861D01*
X11549Y4859D01*
X11546Y4854D01*
X11543Y4849D01*
X11542Y4846D01*
X11540Y4843D01*
X11539Y4838D01*
X11536Y4832D01*
X11536Y4829D01*
X11535Y4826D01*
X11534Y4821D01*
X11533Y4815D01*
X11533Y4811D01*
X11532Y4809D01*
X11532Y4807D01*
X11532Y4804D01*
X11532Y4699D01*
X11334Y4699D01*
X11334Y5400D01*
X11334Y5402D01*
X11334Y5403D01*
X11333Y5410D01*
X11332Y5418D01*
X11332Y5419D01*
X11332Y5421D01*
X11330Y5428D01*
X11328Y5435D01*
X11327Y5436D01*
X11326Y5438D01*
X11323Y5444D01*
X11320Y5451D01*
X11319Y5452D01*
X11318Y5453D01*
X11314Y5459D01*
X11310Y5465D01*
X11309Y5466D01*
X11308Y5467D01*
X11302Y5472D01*
X11297Y5477D01*
X11296Y5478D01*
X11294Y5479D01*
X11288Y5483D01*
X11282Y5487D01*
X11281Y5488D01*
X11279Y5489D01*
X11273Y5491D01*
X11266Y5494D01*
X11265Y5494D01*
X11263Y5495D01*
X11256Y5497D01*
X11249Y5498D01*
X11247Y5498D01*
X11246Y5499D01*
X11235Y5499D01*
X11233Y5499D01*
X11231Y5499D01*
X11224Y5498D01*
X11217Y5498D01*
X11215Y5497D01*
X11214Y5497D01*
X11207Y5495D01*
X11200Y5493D01*
X11199Y5492D01*
X11197Y5492D01*
X11191Y5488D01*
X11184Y5485D01*
X11183Y5484D01*
X11181Y5484D01*
X11176Y5479D01*
X11170Y5475D01*
X11169Y5474D01*
X11167Y5473D01*
X11162Y5468D01*
X11157Y5462D01*
X11157Y5461D01*
X11155Y5460D01*
X11152Y5454D01*
X11148Y5448D01*
X11147Y5446D01*
X11146Y5445D01*
X11143Y5438D01*
X11141Y5432D01*
X11140Y5430D01*
X11140Y5428D01*
X11138Y5421D01*
X11136Y5414D01*
X11136Y5413D01*
X11136Y5411D01*
X11135Y5400D01*
X11135Y4600D01*
X11135Y3800D01*
X11136Y3798D01*
X11135Y3797D01*
X11136Y3790D01*
X11137Y3782D01*
X11137Y3781D01*
X11138Y3779D01*
X11140Y3772D01*
X11142Y3765D01*
X11142Y3764D01*
X11143Y3762D01*
X11146Y3756D01*
X11149Y3749D01*
X11150Y3748D01*
X11151Y3747D01*
X11155Y3741D01*
X11160Y3735D01*
X11161Y3734D01*
X11162Y3733D01*
X11167Y3728D01*
X11172Y3723D01*
X11174Y3722D01*
X11175Y3721D01*
X11181Y3717D01*
X11187Y3713D01*
X11188Y3712D01*
X11190Y3711D01*
X11196Y3709D01*
X11203Y3706D01*
X11205Y3706D01*
X11206Y3705D01*
X11213Y3703D01*
X11220Y3702D01*
X11222Y3702D01*
X11224Y3701D01*
X11235Y3701D01*
X11236Y3701D01*
G37*
G36*
X10378Y2654D02*
X10378Y2654D01*
X10384Y2654D01*
X10387Y2655D01*
X10389Y2655D01*
X10395Y2657D01*
X10402Y2658D01*
X10404Y2659D01*
X10406Y2660D01*
X10412Y2662D01*
X10418Y2665D01*
X10421Y2666D01*
X10422Y2667D01*
X10424Y2668D01*
X10427Y2670D01*
X11095Y3124D01*
X11100Y3129D01*
X11106Y3133D01*
X11107Y3134D01*
X11108Y3135D01*
X11113Y3141D01*
X11118Y3146D01*
X11119Y3147D01*
X11120Y3149D01*
X11123Y3155D01*
X11127Y3161D01*
X11128Y3163D01*
X11129Y3164D01*
X11131Y3171D01*
X11134Y3178D01*
X11134Y3179D01*
X11135Y3180D01*
X11136Y3188D01*
X11137Y3195D01*
X11138Y3197D01*
X11138Y3198D01*
X11138Y3200D01*
X11138Y3206D01*
X11138Y3229D01*
X11163Y3288D01*
X11208Y3333D01*
X11211Y3337D01*
X11215Y3341D01*
X11217Y3344D01*
X11219Y3347D01*
X11222Y3351D01*
X11224Y3355D01*
X11226Y3359D01*
X11228Y3362D01*
X11229Y3367D01*
X11232Y3372D01*
X11232Y3375D01*
X11234Y3379D01*
X11234Y3384D01*
X11236Y3389D01*
X11236Y3392D01*
X11236Y3396D01*
X11236Y3401D01*
X11237Y3406D01*
X11236Y3410D01*
X11236Y3414D01*
X11235Y3419D01*
X11234Y3424D01*
X11233Y3427D01*
X11233Y3431D01*
X11231Y3436D01*
X11229Y3441D01*
X11228Y3444D01*
X11226Y3447D01*
X11224Y3452D01*
X11221Y3457D01*
X11219Y3459D01*
X11217Y3462D01*
X11214Y3466D01*
X11210Y3470D01*
X11208Y3473D01*
X11205Y3476D01*
X11201Y3479D01*
X11197Y3482D01*
X11194Y3484D01*
X11191Y3486D01*
X11187Y3489D01*
X11182Y3492D01*
X11179Y3493D01*
X11176Y3495D01*
X11171Y3496D01*
X11166Y3498D01*
X11162Y3499D01*
X11159Y3500D01*
X11154Y3501D01*
X11149Y3502D01*
X11143Y3502D01*
X11141Y3502D01*
X11140Y3502D01*
X11137Y3502D01*
X11005Y3502D01*
X10984Y3508D01*
X10982Y3508D01*
X10980Y3509D01*
X10973Y3510D01*
X10967Y3511D01*
X10965Y3511D01*
X10962Y3511D01*
X10956Y3511D01*
X10949Y3511D01*
X10947Y3510D01*
X10945Y3510D01*
X10938Y3509D01*
X10932Y3508D01*
X10930Y3507D01*
X10928Y3506D01*
X10921Y3504D01*
X10915Y3501D01*
X10913Y3500D01*
X10911Y3499D01*
X10906Y3496D01*
X10900Y3492D01*
X10898Y3491D01*
X10897Y3490D01*
X10888Y3482D01*
X10873Y3467D01*
X10814Y3442D01*
X10317Y3442D01*
X10285Y3456D01*
X10282Y3457D01*
X10278Y3458D01*
X10273Y3459D01*
X10268Y3461D01*
X10265Y3461D01*
X10261Y3462D01*
X10256Y3462D01*
X10250Y3463D01*
X10247Y3463D01*
X10244Y3463D01*
X10238Y3463D01*
X10233Y3462D01*
X10229Y3461D01*
X10226Y3461D01*
X10221Y3459D01*
X10216Y3458D01*
X10212Y3457D01*
X10209Y3456D01*
X10204Y3453D01*
X10199Y3451D01*
X10197Y3449D01*
X10193Y3448D01*
X10189Y3444D01*
X10185Y3441D01*
X10182Y3439D01*
X10180Y3437D01*
X10176Y3433D01*
X10172Y3429D01*
X10170Y3426D01*
X10168Y3424D01*
X10165Y3419D01*
X10162Y3415D01*
X10160Y3412D01*
X10158Y3409D01*
X10156Y3404D01*
X10154Y3399D01*
X10153Y3396D01*
X10152Y3392D01*
X10151Y3387D01*
X10149Y3382D01*
X10149Y3378D01*
X10148Y3375D01*
X10148Y3365D01*
X10148Y3364D01*
X10148Y3182D01*
X9850Y3182D01*
X9848Y3182D01*
X9847Y3182D01*
X9840Y3181D01*
X9832Y3181D01*
X9831Y3180D01*
X9829Y3180D01*
X9822Y3178D01*
X9815Y3176D01*
X9814Y3175D01*
X9812Y3175D01*
X9806Y3172D01*
X9799Y3168D01*
X9798Y3168D01*
X9797Y3167D01*
X9791Y3162D01*
X9785Y3158D01*
X9784Y3157D01*
X9783Y3156D01*
X9778Y3151D01*
X9773Y3145D01*
X9772Y3144D01*
X9771Y3143D01*
X9767Y3137D01*
X9763Y3131D01*
X9762Y3129D01*
X9761Y3128D01*
X9759Y3121D01*
X9756Y3115D01*
X9756Y3113D01*
X9755Y3111D01*
X9753Y3104D01*
X9752Y3097D01*
X9752Y3096D01*
X9751Y3094D01*
X9751Y3083D01*
X9751Y3081D01*
X9751Y3080D01*
X9752Y3073D01*
X9752Y3065D01*
X9753Y3064D01*
X9753Y3062D01*
X9755Y3055D01*
X9757Y3048D01*
X9758Y3047D01*
X9758Y3045D01*
X9762Y3039D01*
X9765Y3032D01*
X9766Y3031D01*
X9766Y3030D01*
X9771Y3024D01*
X9775Y3018D01*
X9776Y3017D01*
X9777Y3016D01*
X9782Y3011D01*
X9788Y3006D01*
X9789Y3005D01*
X9790Y3004D01*
X9796Y3000D01*
X9802Y2996D01*
X9804Y2995D01*
X9805Y2995D01*
X9812Y2992D01*
X9818Y2989D01*
X9820Y2989D01*
X9822Y2988D01*
X9829Y2987D01*
X9836Y2985D01*
X9837Y2985D01*
X9839Y2984D01*
X9850Y2984D01*
X10148Y2984D01*
X10148Y2794D01*
X10143Y2778D01*
X10142Y2773D01*
X10141Y2767D01*
X10141Y2764D01*
X10140Y2761D01*
X10140Y2755D01*
X10140Y2749D01*
X10140Y2746D01*
X10140Y2743D01*
X10141Y2737D01*
X10142Y2732D01*
X10143Y2729D01*
X10144Y2726D01*
X10146Y2720D01*
X10147Y2715D01*
X10149Y2712D01*
X10150Y2709D01*
X10153Y2704D01*
X10155Y2699D01*
X10157Y2697D01*
X10159Y2694D01*
X10163Y2690D01*
X10166Y2685D01*
X10169Y2683D01*
X10171Y2681D01*
X10175Y2677D01*
X10179Y2673D01*
X10182Y2672D01*
X10184Y2670D01*
X10189Y2667D01*
X10194Y2664D01*
X10197Y2663D01*
X10200Y2661D01*
X10205Y2660D01*
X10211Y2657D01*
X10214Y2657D01*
X10217Y2656D01*
X10222Y2655D01*
X10228Y2654D01*
X10232Y2654D01*
X10234Y2653D01*
X10236Y2653D01*
X10239Y2653D01*
X10372Y2653D01*
X10378Y2654D01*
G37*
%LPC*%
G36*
X1259Y5439D02*
X1259Y5439D01*
X1259Y5791D01*
X2073Y5791D01*
X2099Y5784D01*
X2122Y5771D01*
X2141Y5752D01*
X2154Y5729D01*
X2161Y5703D01*
X2161Y5439D01*
X1259Y5439D01*
G37*
%LPD*%
G36*
X6592Y811D02*
X6592Y811D01*
X6599Y812D01*
X6601Y812D01*
X6603Y812D01*
X6610Y814D01*
X6616Y816D01*
X6618Y816D01*
X6620Y817D01*
X6626Y820D01*
X6633Y823D01*
X6634Y824D01*
X6636Y825D01*
X6642Y829D01*
X6647Y832D01*
X6649Y834D01*
X6650Y835D01*
X6652Y836D01*
X6656Y840D01*
X6694Y878D01*
X6698Y883D01*
X6703Y888D01*
X6704Y890D01*
X6705Y891D01*
X6708Y897D01*
X6712Y903D01*
X6713Y905D01*
X6714Y907D01*
X6716Y913D01*
X6719Y920D01*
X6719Y921D01*
X6720Y923D01*
X6721Y930D01*
X6722Y937D01*
X6722Y939D01*
X6722Y941D01*
X6722Y943D01*
X6723Y948D01*
X6723Y1144D01*
X6751Y1212D01*
X6753Y1219D01*
X6755Y1225D01*
X6756Y1227D01*
X6756Y1229D01*
X6757Y1236D01*
X6758Y1242D01*
X6758Y1244D01*
X6758Y1246D01*
X6758Y1253D01*
X6758Y1260D01*
X6757Y1262D01*
X6757Y1264D01*
X6756Y1271D01*
X6754Y1277D01*
X6754Y1280D01*
X6753Y1281D01*
X6753Y1283D01*
X6751Y1288D01*
X6723Y1356D01*
X6723Y1514D01*
X6722Y1518D01*
X6722Y1523D01*
X6722Y1527D01*
X6721Y1531D01*
X6720Y1536D01*
X6719Y1540D01*
X6718Y1544D01*
X6716Y1548D01*
X6714Y1553D01*
X6713Y1557D01*
X6711Y1560D01*
X6709Y1564D01*
X6706Y1568D01*
X6704Y1572D01*
X6701Y1575D01*
X6699Y1579D01*
X6695Y1582D01*
X6692Y1585D01*
X6689Y1588D01*
X6686Y1591D01*
X6682Y1593D01*
X6678Y1596D01*
X6675Y1598D01*
X6671Y1601D01*
X6667Y1603D01*
X6663Y1605D01*
X6659Y1606D01*
X6655Y1608D01*
X6650Y1609D01*
X6646Y1610D01*
X6642Y1611D01*
X6638Y1612D01*
X6633Y1612D01*
X6628Y1613D01*
X6624Y1613D01*
X6620Y1613D01*
X6616Y1612D01*
X6611Y1612D01*
X6607Y1611D01*
X6603Y1611D01*
X6598Y1609D01*
X6594Y1608D01*
X6590Y1607D01*
X6586Y1605D01*
X6582Y1603D01*
X6577Y1602D01*
X6574Y1599D01*
X6570Y1597D01*
X6566Y1594D01*
X6562Y1592D01*
X6559Y1589D01*
X6556Y1587D01*
X6553Y1583D01*
X6550Y1580D01*
X6547Y1577D01*
X6544Y1573D01*
X6542Y1569D01*
X6539Y1566D01*
X6537Y1562D01*
X6535Y1558D01*
X6533Y1554D01*
X6531Y1550D01*
X6529Y1544D01*
X6528Y1542D01*
X6528Y1541D01*
X6528Y1539D01*
X6519Y1508D01*
X6506Y1485D01*
X6484Y1463D01*
X6480Y1460D01*
X6479Y1459D01*
X6478Y1458D01*
X6473Y1453D01*
X6468Y1448D01*
X6467Y1446D01*
X6466Y1445D01*
X6462Y1439D01*
X6458Y1433D01*
X6457Y1432D01*
X6456Y1430D01*
X6454Y1423D01*
X6451Y1417D01*
X6450Y1415D01*
X6450Y1414D01*
X6448Y1407D01*
X6446Y1400D01*
X6446Y1398D01*
X6446Y1397D01*
X6446Y1389D01*
X6445Y1382D01*
X6445Y1381D01*
X6445Y1379D01*
X6446Y1372D01*
X6447Y1365D01*
X6448Y1363D01*
X6448Y1361D01*
X6450Y1355D01*
X6452Y1348D01*
X6453Y1346D01*
X6453Y1345D01*
X6458Y1335D01*
X6475Y1305D01*
X6482Y1280D01*
X6482Y1149D01*
X6185Y1149D01*
X6183Y1149D01*
X6181Y1149D01*
X6174Y1148D01*
X6167Y1148D01*
X6165Y1147D01*
X6164Y1147D01*
X6157Y1145D01*
X6150Y1143D01*
X6149Y1142D01*
X6147Y1142D01*
X6141Y1139D01*
X6134Y1135D01*
X6133Y1134D01*
X6131Y1134D01*
X6126Y1129D01*
X6120Y1125D01*
X6119Y1124D01*
X6117Y1123D01*
X6112Y1118D01*
X6107Y1112D01*
X6107Y1111D01*
X6105Y1110D01*
X6102Y1104D01*
X6098Y1098D01*
X6097Y1096D01*
X6096Y1095D01*
X6093Y1088D01*
X6091Y1082D01*
X6090Y1080D01*
X6090Y1078D01*
X6088Y1071D01*
X6086Y1064D01*
X6086Y1063D01*
X6086Y1061D01*
X6085Y1050D01*
X6086Y1048D01*
X6085Y1047D01*
X6086Y1040D01*
X6087Y1032D01*
X6087Y1031D01*
X6088Y1029D01*
X6090Y1022D01*
X6092Y1015D01*
X6092Y1014D01*
X6093Y1012D01*
X6096Y1006D01*
X6099Y999D01*
X6100Y998D01*
X6101Y997D01*
X6105Y991D01*
X6110Y985D01*
X6111Y984D01*
X6112Y983D01*
X6117Y978D01*
X6122Y973D01*
X6124Y972D01*
X6125Y971D01*
X6131Y967D01*
X6137Y963D01*
X6138Y962D01*
X6140Y961D01*
X6147Y959D01*
X6153Y956D01*
X6155Y956D01*
X6156Y955D01*
X6163Y953D01*
X6170Y952D01*
X6172Y952D01*
X6174Y951D01*
X6185Y951D01*
X6482Y951D01*
X6482Y910D01*
X6482Y908D01*
X6482Y907D01*
X6483Y900D01*
X6484Y892D01*
X6484Y891D01*
X6484Y889D01*
X6487Y882D01*
X6488Y875D01*
X6489Y874D01*
X6490Y872D01*
X6493Y866D01*
X6496Y859D01*
X6497Y858D01*
X6498Y857D01*
X6502Y851D01*
X6506Y845D01*
X6508Y844D01*
X6509Y843D01*
X6514Y838D01*
X6519Y833D01*
X6520Y832D01*
X6522Y831D01*
X6528Y827D01*
X6534Y823D01*
X6535Y822D01*
X6537Y821D01*
X6543Y819D01*
X6550Y816D01*
X6552Y816D01*
X6553Y815D01*
X6560Y813D01*
X6567Y812D01*
X6569Y812D01*
X6570Y811D01*
X6581Y811D01*
X6586Y811D01*
X6592Y811D01*
G37*
%LPC*%
G36*
X6174Y2071D02*
X6174Y2071D01*
X6174Y2348D01*
X6438Y2348D01*
X6464Y2341D01*
X6487Y2328D01*
X6506Y2309D01*
X6519Y2286D01*
X6526Y2261D01*
X6526Y2071D01*
X6174Y2071D01*
G37*
%LPD*%
%LPC*%
G36*
X5474Y2071D02*
X5474Y2071D01*
X5474Y2261D01*
X5481Y2286D01*
X5494Y2309D01*
X5513Y2328D01*
X5536Y2341D01*
X5562Y2348D01*
X5826Y2348D01*
X5826Y2071D01*
X5474Y2071D01*
G37*
%LPD*%
%LPC*%
G36*
X2491Y719D02*
X2491Y719D01*
X2466Y726D01*
X2443Y739D01*
X2424Y758D01*
X2411Y781D01*
X2404Y807D01*
X2404Y949D01*
X2673Y949D01*
X2673Y719D01*
X2491Y719D01*
G37*
%LPD*%
%LPC*%
G36*
X4799Y1684D02*
X4799Y1684D01*
X4799Y1902D01*
X4910Y1902D01*
X4936Y1895D01*
X4959Y1882D01*
X4977Y1863D01*
X4991Y1840D01*
X4998Y1814D01*
X4998Y1684D01*
X4799Y1684D01*
G37*
%LPD*%
%LPC*%
G36*
X8099Y798D02*
X8099Y798D01*
X8099Y1016D01*
X8298Y1016D01*
X8298Y886D01*
X8291Y860D01*
X8277Y837D01*
X8259Y818D01*
X8236Y805D01*
X8210Y798D01*
X8099Y798D01*
G37*
%LPD*%
%LPC*%
G36*
X8999Y598D02*
X8999Y598D01*
X8999Y816D01*
X9198Y816D01*
X9198Y686D01*
X9191Y660D01*
X9177Y637D01*
X9159Y618D01*
X9136Y605D01*
X9110Y598D01*
X8999Y598D01*
G37*
%LPD*%
%LPC*%
G36*
X7790Y798D02*
X7790Y798D01*
X7764Y805D01*
X7741Y818D01*
X7723Y837D01*
X7709Y860D01*
X7702Y886D01*
X7702Y1016D01*
X7901Y1016D01*
X7901Y798D01*
X7790Y798D01*
G37*
%LPD*%
%LPC*%
G36*
X8690Y598D02*
X8690Y598D01*
X8664Y605D01*
X8641Y618D01*
X8623Y637D01*
X8609Y660D01*
X8602Y686D01*
X8602Y816D01*
X8801Y816D01*
X8801Y598D01*
X8690Y598D01*
G37*
%LPD*%
D10*
X4700Y1585D03*
X4700Y915D03*
D11*
X3385Y4750D03*
X2715Y4750D03*
D10*
X8900Y915D03*
X8900Y1585D03*
D11*
X11515Y3000D03*
X12185Y3000D03*
D10*
X8000Y1115D03*
X8000Y1785D03*
D11*
X10565Y5400D03*
X11235Y5400D03*
X10565Y3800D03*
X11235Y3800D03*
D10*
X5515Y1050D03*
X6185Y1050D03*
X12185Y2200D03*
X11515Y2200D03*
D11*
X9800Y1585D03*
X9800Y915D03*
X9900Y4585D03*
X9900Y3915D03*
D10*
X11235Y4600D03*
X10565Y4600D03*
X9985Y6000D03*
X9315Y6000D03*
D12*
X3800Y1076D03*
X3800Y1824D03*
D11*
X7100Y915D03*
X7100Y1585D03*
D12*
X2800Y3574D03*
X2800Y2826D03*
X2800Y1824D03*
X2800Y1076D03*
D13*
X4924Y4750D03*
X4176Y4750D03*
X7826Y2550D03*
X8574Y2550D03*
D10*
X11385Y1400D03*
X10715Y1400D03*
D14*
X4450Y3933D03*
X4824Y3067D03*
X4076Y3067D03*
D15*
X12050Y5269D03*
X12050Y3931D03*
D16*
X6000Y3499D03*
X6000Y1897D03*
D14*
X6050Y5733D03*
X6424Y4867D03*
X5676Y4867D03*
X9850Y3083D03*
X10224Y2217D03*
X9476Y2217D03*
D17*
X7190Y3530D03*
X8100Y3530D03*
X9010Y3530D03*
D18*
X8100Y5970D03*
D19*
X13990Y3500D03*
X13990Y1760D03*
X13990Y5240D03*
X1060Y3500D03*
X1060Y5240D03*
X1060Y1760D03*
D20*
X3800Y1076D02*
X3961Y915D01*
X4700Y915D01*
X5381Y915D01*
X5515Y1050D01*
X6735Y550D02*
X7100Y915D01*
X6735Y550D02*
X5800Y550D01*
X5515Y835D01*
X5515Y1050D01*
X5250Y3067D02*
X4824Y3067D01*
X5250Y3067D02*
X5568Y3067D01*
X6000Y3499D01*
X7100Y2399D01*
X7100Y1585D01*
X8900Y1585D02*
X9800Y1585D01*
X7335Y1585D02*
X7100Y1585D01*
X7335Y1585D02*
X7550Y1800D01*
X7565Y1785D01*
X8000Y1785D01*
X8700Y1785D02*
X8900Y1585D01*
X8700Y1785D02*
X8000Y1785D01*
X9800Y1585D02*
X9985Y1400D01*
X10715Y1400D01*
D21*
X5150Y5450D03*
X5250Y3850D03*
D20*
X5150Y5450D02*
X5400Y5450D01*
X5676Y5174D02*
X5676Y4867D01*
X5676Y5174D02*
X5400Y5450D01*
X5250Y3850D02*
X5250Y3067D01*
X13450Y3350D02*
X13990Y3500D01*
X13450Y3350D02*
X13425Y3375D01*
X13990Y3500D02*
X13140Y4350D01*
X12950Y4350D02*
X12700Y4600D01*
X12700Y5850D01*
X12550Y6000D01*
X9985Y6000D01*
X12950Y4350D02*
X13140Y4350D01*
X13990Y3500D02*
X13140Y2650D01*
X12900Y2650D02*
X12700Y2450D01*
X12700Y1000D01*
X12600Y900D01*
X9815Y900D01*
X9800Y915D01*
X12900Y2650D02*
X13140Y2650D01*
X8180Y6050D02*
X8100Y5970D01*
X8130Y6000D02*
X9315Y6000D01*
X8130Y6000D02*
X8100Y5970D01*
X4924Y4750D02*
X4924Y4224D01*
X4633Y3933D02*
X4450Y3933D01*
X4633Y3933D02*
X4924Y4224D01*
X3800Y2300D02*
X3800Y1824D01*
X3800Y2300D02*
X3500Y2600D01*
X3500Y3600D01*
X3850Y3950D01*
X4433Y3950D01*
X4450Y3933D01*
X6400Y4843D02*
X6424Y4867D01*
X6400Y4843D02*
X6400Y4300D01*
X6324Y4224D01*
X4924Y4224D01*
X7826Y3256D02*
X7826Y2550D01*
X7826Y3256D02*
X8100Y3530D01*
X6767Y5733D02*
X6050Y5733D01*
X6767Y5733D02*
X7000Y5500D01*
X7000Y4500D01*
X7500Y4500D01*
X8100Y3900D01*
X8100Y3530D01*
X10224Y2217D02*
X11498Y3083D01*
X11515Y3000D01*
X11750Y3631D02*
X12050Y3931D01*
X11750Y3631D02*
X11750Y3450D01*
X11515Y3215D01*
X11515Y3000D01*
X11515Y2200D01*
X11385Y2169D01*
X11385Y1400D01*
X5688Y1585D02*
X4700Y1585D01*
X5688Y1585D02*
X6000Y1897D01*
X6185Y1712D02*
X6185Y1050D01*
X6185Y1712D02*
X6000Y1897D01*
X4700Y2050D02*
X4700Y1585D01*
X4700Y2050D02*
X4050Y2700D01*
X4050Y3041D01*
X4076Y3067D01*
X11235Y4600D02*
X11235Y5400D01*
X11235Y4600D02*
X11235Y3800D01*
D21*
X1850Y800D03*
X4900Y2400D03*
X8000Y600D03*
D20*
X11200Y3465D02*
X11235Y3800D01*
X11200Y3465D02*
X11000Y3350D01*
X10633Y3083D01*
X9850Y3083D01*
D21*
X10350Y3200D03*
X12000Y1500D03*
X9800Y5250D03*
X1900Y6250D03*
D20*
X9881Y4585D02*
X9900Y4585D01*
X9881Y4585D02*
X10565Y4600D01*
X10565Y5400D01*
X10565Y4600D02*
X10565Y3800D01*
X9045Y3565D02*
X9010Y3530D01*
X9345Y3915D01*
X9900Y3915D01*
X8574Y2550D02*
X8907Y2217D01*
X9476Y2217D01*
X4176Y4750D02*
X3385Y4750D01*
X2800Y2826D02*
X2800Y1824D01*
X2800Y3574D02*
X2724Y3750D01*
X2800Y3750D02*
X2800Y3574D01*
X2800Y3750D02*
X2800Y4665D01*
X2715Y4750D01*
X2550Y3500D02*
X1060Y3500D01*
X2550Y3500D02*
X2800Y3750D01*
M02*
