M48
;GenerationSoftware,Autodesk,EAGLE,8.6.0*%
;CreationDate,2018-02-06T17:49:29Z*%
FMAT,2
ICI,OFF
INCH,TZ,000.000
T1C0.018
%
G90
M72
T1
X630Y285
X1000Y300
X530Y115
X280Y615
X1050Y60
X585Y600
X585Y660
X930Y660
X930Y600
X680Y660
X840Y660
X675Y565
X845Y565
X1065Y500
X55Y650
X1295Y645
X1295Y55
X50Y50
X925Y385
X685Y115
X410Y630
X955Y180
X155Y650
X160Y50
M30